  0
SECTION
  2
HEADER
  9
$ACADVER
  1
AC1014
  9
$ACADMAINTVER
 70
     9
  9
$DWGCODEPAGE
  3
ANSI_1252
  9
$INSBASE
 10
0.0
 20
0.0
 30
0.0
  9
$EXTMIN
 10
3806.108184376058
 20
18206.82741385611
 30
-0.0015258207003583
  9
$EXTMAX
 10
6227.08865963959
 20
19582.80494067704
 30
0.0000000349246037
  9
$LIMMIN
 10
0.0
 20
0.0
  9
$LIMMAX
 10
12.0
 20
9.0
  9
$ORTHOMODE
 70
     0
  9
$REGENMODE
 70
     1
  9
$FILLMODE
 70
     1
  9
$QTEXTMODE
 70
     0
  9
$MIRRTEXT
 70
     1
  9
$DRAGMODE
 70
     2
  9
$LTSCALE
 40
1.0
  9
$OSMODE
 70
    37
  9
$ATTMODE
 70
     1
  9
$TEXTSIZE
 40
0.2
  9
$TRACEWID
 40
0.05
  9
$TEXTSTYLE
  7
STANDARD
  9
$CLAYER
  8
0
  9
$CELTYPE
  6
BYLAYER
  9
$CECOLOR
 62
   256
  9
$CELTSCALE
 40
1.0
  9
$DELOBJ
 70
     1
  9
$DISPSILH
 70
     0
  9
$DIMSCALE
 40
1.0
  9
$DIMASZ
 40
0.18
  9
$DIMEXO
 40
0.0625
  9
$DIMDLI
 40
0.38
  9
$DIMRND
 40
0.0
  9
$DIMDLE
 40
0.0
  9
$DIMEXE
 40
0.18
  9
$DIMTP
 40
0.0
  9
$DIMTM
 40
0.0
  9
$DIMTXT
 40
0.18
  9
$DIMCEN
 40
0.09
  9
$DIMTSZ
 40
0.0
  9
$DIMTOL
 70
     0
  9
$DIMLIM
 70
     0
  9
$DIMTIH
 70
     1
  9
$DIMTOH
 70
     1
  9
$DIMSE1
 70
     0
  9
$DIMSE2
 70
     0
  9
$DIMTAD
 70
     0
  9
$DIMZIN
 70
     0
  9
$DIMBLK
  1

  9
$DIMASO
 70
     1
  9
$DIMSHO
 70
     1
  9
$DIMPOST
  1

  9
$DIMAPOST
  1

  9
$DIMALT
 70
     0
  9
$DIMALTD
 70
     2
  9
$DIMALTF
 40
25.4
  9
$DIMLFAC
 40
1.0
  9
$DIMTOFL
 70
     0
  9
$DIMTVP
 40
0.0
  9
$DIMTIX
 70
     0
  9
$DIMSOXD
 70
     0
  9
$DIMSAH
 70
     0
  9
$DIMBLK1
  1

  9
$DIMBLK2
  1

  9
$DIMSTYLE
  2
STANDARD
  9
$DIMCLRD
 70
     0
  9
$DIMCLRE
 70
     0
  9
$DIMCLRT
 70
     0
  9
$DIMTFAC
 40
1.0
  9
$DIMGAP
 40
0.09
  9
$DIMJUST
 70
     0
  9
$DIMSD1
 70
     0
  9
$DIMSD2
 70
     0
  9
$DIMTOLJ
 70
     1
  9
$DIMTZIN
 70
     0
  9
$DIMALTZ
 70
     0
  9
$DIMALTTZ
 70
     0
  9
$DIMFIT
 70
     3
  9
$DIMUPT
 70
     0
  9
$DIMUNIT
 70
     2
  9
$DIMDEC
 70
     4
  9
$DIMTDEC
 70
     4
  9
$DIMALTU
 70
     2
  9
$DIMALTTD
 70
     2
  9
$DIMTXSTY
  7
STANDARD
  9
$DIMAUNIT
 70
     0
  9
$LUNITS
 70
     4
  9
$LUPREC
 70
     4
  9
$SKETCHINC
 40
0.1
  9
$FILLETRAD
 40
0.0
  9
$AUNITS
 70
     0
  9
$AUPREC
 70
     2
  9
$MENU
  1
.
  9
$ELEVATION
 40
0.0
  9
$PELEVATION
 40
0.0
  9
$THICKNESS
 40
0.0
  9
$LIMCHECK
 70
     0
  9
$CHAMFERA
 40
0.5
  9
$CHAMFERB
 40
0.5
  9
$CHAMFERC
 40
1.0
  9
$CHAMFERD
 40
0.0
  9
$SKPOLY
 70
     0
  9
$TDCREATE
 40
2453696.545622616
  9
$TDUPDATE
 40
2458156.947877106
  9
$TDINDWG
 40
0.0011237269
  9
$TDUSRTIMER
 40
0.0011237269
  9
$USRTIMER
 70
     1
  9
$ANGBASE
 50
0.0
  9
$ANGDIR
 70
     0
  9
$PDMODE
 70
     0
  9
$PDSIZE
 40
0.0
  9
$PLINEWID
 40
0.0
  9
$COORDS
 70
     1
  9
$SPLFRAME
 70
     0
  9
$SPLINETYPE
 70
     6
  9
$SPLINESEGS
 70
     8
  9
$ATTDIA
 70
     0
  9
$ATTREQ
 70
     1
  9
$HANDLING
 70
     1
  9
$HANDSEED
  5
48D
  9
$SURFTAB1
 70
     6
  9
$SURFTAB2
 70
     6
  9
$SURFTYPE
 70
     6
  9
$SURFU
 70
     6
  9
$SURFV
 70
     6
  9
$UCSNAME
  2

  9
$UCSORG
 10
0.0
 20
0.0
 30
0.0
  9
$UCSXDIR
 10
1.0
 20
0.0
 30
0.0
  9
$UCSYDIR
 10
0.0
 20
1.0
 30
0.0
  9
$PUCSNAME
  2

  9
$PUCSORG
 10
0.0
 20
0.0
 30
0.0
  9
$PUCSXDIR
 10
1.0
 20
0.0
 30
0.0
  9
$PUCSYDIR
 10
0.0
 20
1.0
 30
0.0
  9
$USERI1
 70
     0
  9
$USERI2
 70
     0
  9
$USERI3
 70
     0
  9
$USERI4
 70
     0
  9
$USERI5
 70
     0
  9
$USERR1
 40
0.0
  9
$USERR2
 40
0.0
  9
$USERR3
 40
0.0
  9
$USERR4
 40
0.0
  9
$USERR5
 40
0.0
  9
$WORLDVIEW
 70
     1
  9
$SHADEDGE
 70
     3
  9
$SHADEDIF
 70
    70
  9
$TILEMODE
 70
     1
  9
$MAXACTVP
 70
    64
  9
$PINSBASE
 10
0.0
 20
0.0
 30
0.0
  9
$PLIMCHECK
 70
     0
  9
$PEXTMIN
 10
0.0
 20
0.0
 30
0.0
  9
$PEXTMAX
 10
0.0
 20
0.0
 30
0.0
  9
$PLIMMIN
 10
0.0
 20
0.0
  9
$PLIMMAX
 10
12.0
 20
9.0
  9
$UNITMODE
 70
     0
  9
$VISRETAIN
 70
     1
  9
$PLINEGEN
 70
     0
  9
$PSLTSCALE
 70
     1
  9
$TREEDEPTH
 70
  3020
  9
$PICKSTYLE
 70
     1
  9
$CMLSTYLE
  2
STANDARD
  9
$CMLJUST
 70
     0
  9
$CMLSCALE
 40
1.0
  9
$PROXYGRAPHICS
 70
     1
  9
$MEASUREMENT
 70
     0
  0
ENDSEC
  0
SECTION
  2
CLASSES
  0
CLASS
  1
ACDBDICTIONARYWDFLT
  2
AcDbDictionaryWithDefault
  3
ObjectDBX Classes
 90
        0
280
     0
281
     0
  0
CLASS
  1
ACDBPLACEHOLDER
  2
AcDbPlaceHolder
  3
ObjectDBX Classes
 90
        0
280
     0
281
     0
  0
CLASS
  1
LAYOUT
  2
AcDbLayout
  3
ObjectDBX Classes
 90
        0
280
     0
281
     0
  0
CLASS
  1
DICTIONARYVAR
  2
AcDbDictionaryVar
  3
ObjectDBX Classes
 90
        0
280
     0
281
     0
  0
CLASS
  1
TABLESTYLE
  2
AcDbTableStyle
  3
ObjectDBX Classes
 90
     4095
280
     0
281
     0
  0
CLASS
  1
MATERIAL
  2
AcDbMaterial
  3
ObjectDBX Classes
 90
     1153
280
     0
281
     0
  0
CLASS
  1
VISUALSTYLE
  2
AcDbVisualStyle
  3
ObjectDBX Classes
 90
     4095
280
     0
281
     0
  0
CLASS
  1
SCALE
  2
AcDbScale
  3
ObjectDBX Classes
 90
     1153
280
     0
281
     0
  0
CLASS
  1
MLEADERSTYLE
  2
AcDbMLeaderStyle
  3
ACDB_MLEADERSTYLE_CLASS
 90
     4095
280
     0
281
     0
  0
CLASS
  1
EXACXREFPANELOBJECT
  2
ExAcXREFPanelObject
  3
EXAC_ESW
 90
     1025
280
     1
281
     0
  0
CLASS
  1
NPOCOLLECTION
  2
AcDbImpNonPersistentObjectsCollection
  3
ObjectDBX Classes
 90
     1153
280
     1
281
     0
  0
CLASS
  1
CELLSTYLEMAP
  2
AcDbCellStyleMap
  3
ObjectDBX Classes
 90
     1152
280
     0
281
     0
  0
CLASS
  1
XRECORD
  2
AcDbXrecord
  3
ObjectDBX Classes
 90
        0
280
     0
281
     0
  0
CLASS
  1
LWPOLYLINE
  2
AcDbPolyline
  3
ObjectDBX Classes
 90
        0
280
     0
281
     1
  0
CLASS
  1
HATCH
  2
AcDbHatch
  3
ObjectDBX Classes
 90
        0
280
     0
281
     1
  0
ENDSEC
  0
SECTION
  2
TABLES
  0
TABLE
  2
VPORT
  5
8
102
{ACAD_XDICTIONARY
360
484
102
}
330
0
100
AcDbSymbolTable
 70
     1
  0
VPORT
  5
3D2
330
8
100
AcDbSymbolTableRecord
100
AcDbViewportTableRecord
  2
*ACTIVE
 70
     0
 10
0.0
 20
0.0
 11
1.0
 21
1.0
 12
5016.736716212739
 22
18895.20729354201
 13
0.0
 23
0.0
 14
0.5
 24
0.5
 15
0.5
 25
0.5
 16
0.0
 26
0.0
 36
1.0
 17
0.0
 27
0.0
 37
0.0
 40
1374.0
 41
2.257022471910112
 42
50.0
 43
0.0
 44
0.0
 50
0.0
 51
0.0
 71
     0
 72
   100
 73
     1
 74
     2
 75
     0
 76
     0
 77
     0
 78
     0
  0
ENDTAB
  0
TABLE
  2
LTYPE
  5
5
330
0
100
AcDbSymbolTable
 70
     3
  0
LTYPE
  5
14
330
5
100
AcDbSymbolTableRecord
100
AcDbLinetypeTableRecord
  2
BYBLOCK
 70
     0
  3

 72
    65
 73
     0
 40
0.0
  0
LTYPE
  5
15
330
5
100
AcDbSymbolTableRecord
100
AcDbLinetypeTableRecord
  2
BYLAYER
 70
     0
  3

 72
    65
 73
     0
 40
0.0
  0
LTYPE
  5
16
330
5
100
AcDbSymbolTableRecord
100
AcDbLinetypeTableRecord
  2
CONTINUOUS
 70
     0
  3
Solid line
 72
    65
 73
     0
 40
0.0
  0
LTYPE
  5
78
330
5
100
AcDbSymbolTableRecord
100
AcDbLinetypeTableRecord
  2
CENTER2
 70
     0
  3
Center (.5x) ___ _ ___ _ ___ _ ___ _ ___ _ ___
 72
    65
 73
     4
 40
1.125
 49
0.75
 74
     0
 49
-0.125
 74
     0
 49
0.125
 74
     0
 49
-0.125
 74
     0
  0
LTYPE
  5
79
330
5
100
AcDbSymbolTableRecord
100
AcDbLinetypeTableRecord
  2
HIDDEN
 70
     0
  3
Hidden __ __ __ __ __ __ __ __ __ __ __ __ __ _
 72
    65
 73
     2
 40
0.375
 49
0.25
 74
     0
 49
-0.125
 74
     0
  0
ENDTAB
  0
TABLE
  2
LAYER
  5
2
102
{ACAD_XDICTIONARY
360
81
102
}
330
0
100
AcDbSymbolTable
 70
     7
  0
LAYER
  5
10
102
{ACAD_XDICTIONARY
360
429
102
}
330
2
100
AcDbSymbolTableRecord
100
AcDbLayerTableRecord
  2
0
 70
     0
 62
     7
  6
CONTINUOUS
  0
LAYER
  5
7A
102
{ACAD_XDICTIONARY
360
42B
102
}
330
2
100
AcDbSymbolTableRecord
100
AcDbLayerTableRecord
  2
EXWALL
 70
     0
 62
     8
  6
CONTINUOUS
  0
LAYER
  5
7B
102
{ACAD_XDICTIONARY
360
42D
102
}
330
2
100
AcDbSymbolTableRecord
100
AcDbLayerTableRecord
  2
ARGRID
 70
     1
 62
     5
  6
CENTER2
  0
LAYER
  5
7C
102
{ACAD_XDICTIONARY
360
42F
102
}
330
2
100
AcDbSymbolTableRecord
100
AcDbLayerTableRecord
  2
EXROOF
 70
     0
 62
     9
  6
CONTINUOUS
  0
LAYER
  5
7D
102
{ACAD_XDICTIONARY
360
431
102
}
330
2
100
AcDbSymbolTableRecord
100
AcDbLayerTableRecord
  2
EXROOF_TEXT
 70
     0
 62
   134
  6
CONTINUOUS
  0
LAYER
  5
7E
102
{ACAD_XDICTIONARY
360
433
102
}
330
2
100
AcDbSymbolTableRecord
100
AcDbLayerTableRecord
  2
EQUIP
 70
     0
 62
    30
  6
CONTINUOUS
  0
LAYER
  5
7F
102
{ACAD_XDICTIONARY
360
435
102
}
330
2
100
AcDbSymbolTableRecord
100
AcDbLayerTableRecord
  2
EQUIP_TEXT
 70
     0
 62
    30
  6
CONTINUOUS
  0
ENDTAB
  0
TABLE
  2
STYLE
  5
3
330
0
100
AcDbSymbolTable
 70
     2
  0
STYLE
  5
11
330
3
100
AcDbSymbolTableRecord
100
AcDbTextStyleTableRecord
  2
STANDARD
 70
     0
 40
0.0
 41
1.0
 50
0.0
 71
     0
 42
0.2
  3
txt
  4

  0
STYLE
  5
80
330
3
100
AcDbSymbolTableRecord
100
AcDbTextStyleTableRecord
  2
ARIAL_NARROW
 70
     0
 40
17.0
 41
1.0
 50
0.0
 71
     0
 42
17.0
  3
ARIALN.TTF
  4

1001
ACAD
1000
Arial Narrow
1071
       34
  0
ENDTAB
  0
TABLE
  2
VIEW
  5
6
330
0
100
AcDbSymbolTable
 70
     0
  0
ENDTAB
  0
TABLE
  2
UCS
  5
7
330
0
100
AcDbSymbolTable
 70
     0
  0
ENDTAB
  0
TABLE
  2
APPID
  5
9
330
0
100
AcDbSymbolTable
 70
     7
  0
APPID
  5
12
330
9
100
AcDbSymbolTableRecord
100
AcDbRegAppTableRecord
  2
ACAD
 70
     0
  0
APPID
  5
74
330
9
100
AcDbSymbolTableRecord
100
AcDbRegAppTableRecord
  2
CCMP
 70
     0
  0
APPID
  5
75
330
9
100
AcDbSymbolTableRecord
100
AcDbRegAppTableRecord
  2
CCMP2
 70
     0
  0
APPID
  5
76
330
9
100
AcDbSymbolTableRecord
100
AcDbRegAppTableRecord
  2
CCMP3
 70
     0
  0
APPID
  5
77
330
9
100
AcDbSymbolTableRecord
100
AcDbRegAppTableRecord
  2
PE_URL
 70
     0
  0
APPID
  5
421
330
9
100
AcDbSymbolTableRecord
100
AcDbRegAppTableRecord
  2
ACAD_MLEADERVER
 70
     0
  0
APPID
  5
437
330
9
100
AcDbSymbolTableRecord
100
AcDbRegAppTableRecord
  2
ACAD_PSEXT
 70
     0
  0
ENDTAB
  0
TABLE
  2
DIMSTYLE
  5
A
330
0
100
AcDbSymbolTable
 70
     1
  0
DIMSTYLE
105
27
330
A
100
AcDbSymbolTableRecord
100
AcDbDimStyleTableRecord
  2
STANDARD
 70
     0
  3

  4

  5

  6

  7

 40
1.0
 41
0.18
 42
0.0625
 43
0.38
 44
0.18
 45
0.0
 46
0.0
 47
0.0
 48
0.0
140
0.18
141
0.09
142
0.0
143
25.4
144
1.0
145
0.0
146
1.0
147
0.09
 71
     0
 72
     0
 73
     1
 74
     1
 75
     0
 76
     0
 77
     0
 78
     0
170
     0
171
     2
172
     0
173
     0
174
     0
175
     0
176
     0
177
     0
178
     0
270
     2
271
     4
272
     4
273
     2
274
     2
340
11
275
     0
280
     0
281
     0
282
     0
283
     1
284
     0
285
     0
286
     0
287
     3
288
     0
  0
ENDTAB
  0
TABLE
  2
BLOCK_RECORD
  5
1
330
0
100
AcDbSymbolTable
 70
     0
  0
BLOCK_RECORD
  5
1F
330
1
100
AcDbSymbolTableRecord
100
AcDbBlockTableRecord
  2
*MODEL_SPACE
  0
BLOCK_RECORD
  5
58
330
1
100
AcDbSymbolTableRecord
100
AcDbBlockTableRecord
  2
*PAPER_SPACE
  0
ENDTAB
  0
ENDSEC
  0
SECTION
  2
BLOCKS
  0
BLOCK
  5
20
330
1F
100
AcDbEntity
  8
0
100
AcDbBlockBegin
  2
*MODEL_SPACE
 70
     0
 10
0.0
 20
0.0
 30
0.0
  3
*MODEL_SPACE
  1

  0
ENDBLK
  5
21
330
1F
100
AcDbEntity
  8
0
100
AcDbBlockEnd
  0
BLOCK
  5
5A
330
58
100
AcDbEntity
 67
     1
  8
0
100
AcDbBlockBegin
  2
*PAPER_SPACE
 70
     0
 10
0.0
 20
0.0
 30
0.0
  3
*PAPER_SPACE
  1

  0
ENDBLK
  5
5B
330
58
100
AcDbEntity
 67
     1
  8
0
100
AcDbBlockEnd
  0
ENDSEC
  0
SECTION
  2
ENTITIES
  0
LWPOLYLINE
  5
21F
330
1F
100
AcDbEntity
  8
EXROOF_TEXT
100
AcDbPolyline
 90
        4
 70
     1
 43
0.0
 10
3806.574817149207
 20
19356.34589408332
 10
3878.550457639252
 20
19356.34589408332
 10
3878.550457639252
 20
19309.37202233139
 10
3806.574817149207
 20
19309.37202233139
  0
LINE
  5
221
330
1F
100
AcDbEntity
  8
ARGRID
  6
CONTINUOUS
100
AcDbLine
 10
2361.714901757071
 20
19821.20729354201
 30
0.0
 11
7567.201984546217
 21
19821.20729354201
 31
0.0
  0
LINE
  5
222
330
1F
100
AcDbEntity
  8
ARGRID
  6
CONTINUOUS
100
AcDbLine
 10
2361.714901757071
 20
18811.20729354201
 30
0.0
 11
7567.201984546217
 21
18811.20729354201
 31
0.0
  0
LINE
  5
223
330
1F
100
AcDbEntity
  8
ARGRID
  6
CONTINUOUS
100
AcDbLine
 10
2361.714901757071
 20
19316.20729354201
 30
0.0
 11
7567.201984546217
 21
19316.20729354201
 31
0.0
  0
LINE
  5
224
330
1F
100
AcDbEntity
  8
ARGRID
  6
CONTINUOUS
100
AcDbLine
 10
2457.086680021986
 20
19135.95729354201
 30
0.0
 11
7471.830206281299
 21
19135.95729354201
 31
0.0
  0
LINE
  5
225
330
1F
100
AcDbEntity
  8
ARGRID
  6
CONTINUOUS
100
AcDbLine
 10
2414.214901757075
 20
19118.20729354201
 30
0.0
 11
7514.701984546217
 21
19118.20729354201
 31
0.0
  0
LINE
  5
226
330
1F
100
AcDbEntity
  8
ARGRID
  6
CONTINUOUS
100
AcDbLine
 10
2361.714901757071
 20
19316.20729354201
 30
0.0
 11
7567.201984546217
 21
19316.20729354201
 31
0.0
  0
LINE
  5
227
330
1F
100
AcDbEntity
  8
ARGRID
  6
CONTINUOUS
100
AcDbLine
 10
2414.214901757075
 20
18917.33229354201
 30
0.0
 11
7514.701984546217
 21
18917.33229354201
 31
0.0
  0
LINE
  5
228
330
1F
100
AcDbEntity
  8
ARGRID
  6
CONTINUOUS
100
AcDbLine
 10
2361.714901757071
 20
19568.70729354201
 30
0.0
 11
7567.201984546217
 21
19568.70729354201
 31
0.0
  0
LINE
  5
229
330
1F
100
AcDbEntity
  8
ARGRID
  6
CONTINUOUS
100
AcDbLine
 10
2361.714901757071
 20
19316.20729354201
 30
0.0
 11
7567.201984546217
 21
19316.20729354201
 31
0.0
  0
LINE
  5
22A
330
1F
100
AcDbEntity
  8
ARGRID
  6
CONTINUOUS
100
AcDbLine
 10
2457.086680021986
 20
19135.95729354201
 30
0.0
 11
7471.830206281299
 21
19135.95729354201
 31
0.0
  0
LINE
  5
22B
330
1F
100
AcDbEntity
  8
ARGRID
  6
CONTINUOUS
100
AcDbLine
 10
2414.214901757075
 20
19118.20729354201
 30
0.0
 11
7514.701984546217
 21
19118.20729354201
 31
0.0
  0
LINE
  5
22C
330
1F
100
AcDbEntity
  8
ARGRID
  6
CONTINUOUS
100
AcDbLine
 10
2361.714901757071
 20
19063.70729354201
 30
0.0
 11
7567.201984546217
 21
19063.70729354201
 31
0.0
  0
LINE
  5
22D
330
1F
100
AcDbEntity
  8
ARGRID
  6
CONTINUOUS
100
AcDbLine
 10
2414.214901757075
 20
18917.33229354201
 30
0.0
 11
7514.701984546217
 21
18917.33229354201
 31
0.0
  0
LINE
  5
22E
330
1F
100
AcDbEntity
  8
ARGRID
  6
CONTINUOUS
100
AcDbLine
 10
2436.537236131619
 20
18803.20729354201
 30
0.0
 11
7492.379650171676
 21
18803.20729354201
 31
0.0
  0
LINE
  5
22F
330
1F
100
AcDbEntity
  8
ARGRID
  6
CONTINUOUS
100
AcDbLine
 10
2474.852866038579
 20
19182.95729354201
 30
0.0
 11
7454.064020264716
 21
19182.95729354201
 31
0.0
  0
LINE
  5
230
330
1F
100
AcDbEntity
  8
ARGRID
  6
CONTINUOUS
100
AcDbLine
 10
2489.168495945524
 20
18795.20729354201
 30
0.0
 11
7439.748390357764
 21
18795.20729354201
 31
0.0
  0
LINE
  5
231
330
1F
100
AcDbEntity
  8
ARGRID
  6
CONTINUOUS
100
AcDbLine
 10
2361.714901757071
 20
18558.70729354201
 30
0.0
 11
7567.201984546217
 21
18558.70729354201
 31
0.0
  0
LINE
  5
232
330
1F
100
AcDbEntity
  8
ARGRID
  6
CONTINUOUS
100
AcDbLine
 10
2361.714901757071
 20
18306.20729354201
 30
0.0
 11
7567.201984546217
 21
18306.20729354201
 31
0.0
  0
LINE
  5
233
330
1F
100
AcDbEntity
  8
ARGRID
  6
CONTINUOUS
100
AcDbLine
 10
2466.909937117879
 20
18223.20729354201
 30
0.0
 11
7462.006949185413
 21
18223.20729354201
 31
0.0
  0
LINE
  5
234
330
1F
100
AcDbEntity
  8
ARGRID
  6
CONTINUOUS
100
AcDbLine
 10
2436.016048343115
 20
18193.45729354201
 30
0.0
 11
7492.900837960177
 21
18193.45729354201
 31
0.0
  0
LINE
  5
235
330
1F
100
AcDbEntity
  8
ARGRID
  6
CONTINUOUS
100
AcDbLine
 10
2437.301719452536
 20
18178.08229354201
 30
0.0
 11
7491.615166850764
 21
18178.08229354201
 31
0.0
  0
MTEXT
  5
236
330
1F
100
AcDbEntity
  8
ARGRID
100
AcDbMText
 10
2326.005929367843
 20
18304.47439296894
 30
0.0
 40
15.12
 41
40.125
 71
     5
 72
     5
  1
G
 11
-1.836909530733566E-16
 21
-1.0
 31
0.0
  0
LWPOLYLINE
  5
237
330
1F
100
AcDbEntity
  8
ARGRID
  6
CONTINUOUS
100
AcDbPolyline
 90
        3
 70
     1
 43
0.0
 10
2361.714901757071
 20
18306.20729354201
 10
2309.200884255516
 20
18275.88831140126
 10
2309.200884255516
 20
18336.52627568277
  0
LWPOLYLINE
  5
238
330
1F
100
AcDbEntity
  8
ARGRID
  6
CONTINUOUS
100
AcDbPolyline
 90
        3
 70
     1
 43
0.0
 10
2414.214901757071
 20
18215.25844012805
 10
2361.700884255516
 20
18184.9394579873
 10
2361.700884255516
 20
18245.57742226881
  0
LWPOLYLINE
  5
239
330
1F
100
AcDbEntity
  8
ARGRID
  6
CONTINUOUS
100
AcDbPolyline
 90
        3
 70
     1
 43
0.0
 10
2414.228919258626
 20
18275.88831140126
 10
2361.714901757071
 20
18245.56932926051
 10
2361.714901757071
 20
18306.20729354201
  0
LWPOLYLINE
  5
23A
330
1F
100
AcDbEntity
  8
ARGRID
  6
CONTINUOUS
100
AcDbPolyline
 90
        3
 70
     1
 43
0.0
 10
2414.214901757071
 20
18154.99547584655
 10
2361.700884255516
 20
18124.6764937058
 10
2361.700884255516
 20
18185.3144579873
  0
MTEXT
  5
23B
330
1F
100
AcDbEntity
  8
ARGRID
100
AcDbMText
 10
2378.505929367843
 20
18213.52553955498
 30
0.0
 40
15.12
 41
40.125
 71
     5
 72
     5
  1
G2
 11
-1.836909530733566E-16
 21
-1.0
 31
0.0
  0
MTEXT
  5
23C
330
1F
100
AcDbEntity
  8
ARGRID
100
AcDbMText
 10
2378.519946869398
 20
18274.15541082819
 30
0.0
 40
15.12
 41
40.125
 71
     5
 72
     5
  1
G1
 11
-1.836909530733566E-16
 21
-1.0
 31
0.0
  0
MTEXT
  5
23D
330
1F
100
AcDbEntity
  8
ARGRID
100
AcDbMText
 10
2378.505929367843
 20
18153.26257527347
 30
0.0
 40
15.12
 41
40.125
 71
     5
 72
     5
  1
G3
 11
-1.836909530733566E-16
 21
-1.0
 31
0.0
  0
LINE
  5
23E
330
1F
100
AcDbEntity
  8
ARGRID
  6
CONTINUOUS
100
AcDbLine
 10
2414.22891925863
 20
18275.88831140126
 30
0.0
 11
2466.909937117879
 21
18223.20729354201
 31
0.0
  0
LINE
  5
23F
330
1F
100
AcDbEntity
  8
ARGRID
  6
CONTINUOUS
100
AcDbLine
 10
2414.214901757071
 20
18154.99547584655
 30
0.0
 11
2437.301719452532
 21
18178.08229354201
 31
0.0
  0
LINE
  5
240
330
1F
100
AcDbEntity
  8
ARGRID
  6
CONTINUOUS
100
AcDbLine
 10
2414.214901757075
 20
18215.25844012805
 30
0.0
 11
2436.016048343115
 21
18193.45729354201
 31
0.0
  0
MTEXT
  5
241
330
1F
100
AcDbEntity
  8
ARGRID
100
AcDbMText
 10
2326.005929367843
 20
19819.47439296894
 30
0.0
 40
15.12
 41
40.125
 71
     5
 72
     5
  1
A
 11
-1.836909530733566E-16
 21
-1.0
 31
0.0
  0
LWPOLYLINE
  5
242
330
1F
100
AcDbEntity
  8
ARGRID
  6
CONTINUOUS
100
AcDbPolyline
 90
        3
 70
     1
 43
0.0
 10
2361.714901757071
 20
19821.20729354201
 10
2309.200884255516
 20
19790.88831140126
 10
2309.200884255516
 20
19851.52627568277
  0
MTEXT
  5
243
330
1F
100
AcDbEntity
  8
ARGRID
100
AcDbMText
 10
2326.005929367843
 20
19566.97439296893
 30
0.0
 40
15.12
 41
40.125
 71
     5
 72
     5
  1
B
 11
-1.836909530733566E-16
 21
-1.0
 31
0.0
  0
LWPOLYLINE
  5
244
330
1F
100
AcDbEntity
  8
ARGRID
  6
CONTINUOUS
100
AcDbPolyline
 90
        3
 70
     1
 43
0.0
 10
2361.714901757071
 20
19568.70729354201
 10
2309.200884255516
 20
19538.38831140126
 10
2309.200884255516
 20
19599.02627568277
  0
MTEXT
  5
245
330
1F
100
AcDbEntity
  8
ARGRID
100
AcDbMText
 10
2326.005929367847
 20
19314.47439296894
 30
0.0
 40
15.12
 41
40.125
 71
     5
 72
     5
  1
C
 11
-1.836909530733566E-16
 21
-1.0
 31
0.0
  0
LWPOLYLINE
  5
246
330
1F
100
AcDbEntity
  8
ARGRID
  6
CONTINUOUS
100
AcDbPolyline
 90
        3
 70
     1
 43
0.0
 10
2361.714901757075
 20
19316.20729354201
 10
2309.20088425552
 20
19285.88831140126
 10
2309.20088425552
 20
19346.52627568277
  0
MTEXT
  5
247
330
1F
100
AcDbEntity
  8
ARGRID
100
AcDbMText
 10
2326.005929367847
 20
19061.97439296893
 30
0.0
 40
15.12
 41
40.125
 71
     5
 72
     5
  1
D
 11
-1.836909530733566E-16
 21
-1.0
 31
0.0
  0
LWPOLYLINE
  5
248
330
1F
100
AcDbEntity
  8
ARGRID
  6
CONTINUOUS
100
AcDbPolyline
 90
        3
 70
     1
 43
0.0
 10
2361.714901757075
 20
19063.70729354201
 10
2309.20088425552
 20
19033.38831140126
 10
2309.20088425552
 20
19094.02627568277
  0
MTEXT
  5
249
330
1F
100
AcDbEntity
  8
ARGRID
100
AcDbMText
 10
2326.005929367847
 20
18809.47439296894
 30
0.0
 40
15.12
 41
40.125
 71
     5
 72
     5
  1
E
 11
-1.836909530733566E-16
 21
-1.0
 31
0.0
  0
LWPOLYLINE
  5
24A
330
1F
100
AcDbEntity
  8
ARGRID
  6
CONTINUOUS
100
AcDbPolyline
 90
        3
 70
     1
 43
0.0
 10
2361.714901757075
 20
18811.20729354201
 10
2309.20088425552
 20
18780.88831140126
 10
2309.20088425552
 20
18841.52627568277
  0
MTEXT
  5
24B
330
1F
100
AcDbEntity
  8
ARGRID
100
AcDbMText
 10
2326.005929367843
 20
18565.84939296893
 30
0.0
 40
15.12
 41
40.125
 71
     5
 72
     5
  1
F
 11
-1.836909530733566E-16
 21
-1.0
 31
0.0
  0
LWPOLYLINE
  5
24C
330
1F
100
AcDbEntity
  8
ARGRID
  6
CONTINUOUS
100
AcDbPolyline
 90
        3
 70
     1
 43
0.0
 10
2361.714901757071
 20
18558.70729354201
 10
2309.200884255516
 20
18528.38831140126
 10
2309.200884255516
 20
18589.02627568277
  0
LINE
  5
24D
330
1F
100
AcDbEntity
  8
ARGRID
  6
CONTINUOUS
100
AcDbLine
 10
2414.214901757071
 20
19178.82907180693
 30
0.0
 11
2457.086680021982
 21
19135.95729354201
 31
0.0
  0
LWPOLYLINE
  5
24E
330
1F
100
AcDbEntity
  8
ARGRID
  6
CONTINUOUS
100
AcDbPolyline
 90
        3
 70
     1
 43
0.0
 10
2414.214901757075
 20
19178.82907180693
 10
2361.70088425552
 20
19148.51008966618
 10
2361.70088425552
 20
19209.14805394768
  0
LINE
  5
24F
330
1F
100
AcDbEntity
  8
ARGRID
  6
CONTINUOUS
100
AcDbLine
 10
2414.219091006432
 20
18720.25788860292
 30
0.0
 11
2489.168495945524
 21
18795.20729354201
 31
0.0
  0
LWPOLYLINE
  5
250
330
1F
100
AcDbEntity
  8
ARGRID
  6
CONTINUOUS
100
AcDbPolyline
 90
        3
 70
     1
 43
0.0
 10
2414.22891925863
 20
18780.88831140126
 10
2361.714901757075
 20
18750.56932926051
 10
2361.714901757075
 20
18811.20729354201
  0
LWPOLYLINE
  5
251
330
1F
100
AcDbEntity
  8
ARGRID
  6
CONTINUOUS
100
AcDbPolyline
 90
        3
 70
     1
 43
0.0
 10
2414.22891925863
 20
18720.25034711976
 10
2361.714901757075
 20
18689.93136497901
 10
2361.714901757075
 20
18750.56932926051
  0
MTEXT
  5
252
330
1F
100
AcDbEntity
  8
ARGRID
100
AcDbMText
 10
2378.519946869402
 20
18718.51744654668
 30
0.0
 40
15.12
 41
40.125
 71
     5
 72
     5
  1
E2
 11
-1.836909530733566E-16
 21
-1.0
 31
0.0
  0
LWPOLYLINE
  5
253
330
1F
100
AcDbEntity
  8
ARGRID
  6
CONTINUOUS
100
AcDbPolyline
 90
        3
 70
     1
 43
0.0
 10
2414.214901757075
 20
19118.20729354201
 10
2361.70088425552
 20
19087.88831140126
 10
2361.70088425552
 20
19148.52627568277
  0
LWPOLYLINE
  5
254
330
1F
100
AcDbEntity
  8
ARGRID
  6
CONTINUOUS
100
AcDbPolyline
 90
        3
 70
     1
 43
0.0
 10
2414.214901757075
 20
18917.33229354201
 10
2361.70088425552
 20
18887.01331140126
 10
2361.70088425552
 20
18947.65127568277
  0
MTEXT
  5
255
330
1F
100
AcDbEntity
  8
ARGRID
100
AcDbMText
 10
2378.505929367847
 20
19116.47439296893
 30
0.0
 40
15.12
 41
40.125
 71
     5
 72
     5
  1
C3
 11
-1.836909530733566E-16
 21
-1.0
 31
0.0
  0
MTEXT
  5
256
330
1F
100
AcDbEntity
  8
ARGRID
100
AcDbMText
 10
2378.505929367847
 20
18915.59939296893
 30
0.0
 40
15.12
 41
40.125
 71
     5
 72
     5
  1
D2
 11
-1.836909530733566E-16
 21
-1.0
 31
0.0
  0
MTEXT
  5
257
330
1F
100
AcDbEntity
  8
ARGRID
100
AcDbMText
 10
2378.519946869402
 20
18779.15541082819
 30
0.0
 40
15.12
 41
40.125
 71
     5
 72
     5
  1
E1
 11
-1.836909530733566E-16
 21
-1.0
 31
0.0
  0
LINE
  5
258
330
1F
100
AcDbEntity
  8
ARGRID
  6
CONTINUOUS
100
AcDbLine
 10
2414.230536248525
 20
18780.90059365892
 30
0.0
 11
2436.537236131619
 21
18803.20729354201
 31
0.0
  0
LINE
  5
259
330
1F
100
AcDbEntity
  8
ARGRID
  6
CONTINUOUS
100
AcDbLine
 10
2414.214901757071
 20
19243.59525782352
 30
0.0
 11
2474.852866038579
 21
19182.95729354201
 31
0.0
  0
LWPOLYLINE
  5
25A
330
1F
100
AcDbEntity
  8
ARGRID
  6
CONTINUOUS
100
AcDbPolyline
 90
        3
 70
     1
 43
0.0
 10
2414.214901757075
 20
19243.59525782352
 10
2361.70088425552
 20
19213.27627568277
 10
2361.70088425552
 20
19273.91423996427
  0
MTEXT
  5
25B
330
1F
100
AcDbEntity
  8
ARGRID
100
AcDbMText
 10
2378.505929367847
 20
19177.09617123385
 30
0.0
 40
15.12
 41
40.125
 71
     5
 72
     5
  1
C2
 11
-1.836909530733566E-16
 21
-1.0
 31
0.0
  0
MTEXT
  5
25C
330
1F
100
AcDbEntity
  8
ARGRID
100
AcDbMText
 10
2378.505929367847
 20
19241.86235725044
 30
0.0
 40
15.12
 41
40.125
 71
     5
 72
     5
  1
C1
 11
-1.836909530733566E-16
 21
-1.0
 31
0.0
  0
LINE
  5
25D
330
1F
100
AcDbEntity
  8
ARGRID
100
AcDbLine
 10
3173.468488900967
 20
20553.96780217579
 30
0.0
 11
3173.468488900967
 21
17613.72078158213
 31
0.0
  0
LINE
  5
25E
330
1F
100
AcDbEntity
  8
ARGRID
100
AcDbLine
 10
3425.968488900967
 20
20553.96780217579
 30
0.0
 11
3425.968488900967
 21
17613.72078158213
 31
0.0
  0
LINE
  5
25F
330
1F
100
AcDbEntity
  8
ARGRID
100
AcDbLine
 10
3425.968488900967
 20
20553.96780217579
 30
0.0
 11
3425.968488900967
 21
17613.72078158213
 31
0.0
  0
LINE
  5
260
330
1F
100
AcDbEntity
  8
ARGRID
100
AcDbLine
 10
3678.468488900963
 20
20553.96780217579
 30
0.0
 11
3678.468488900963
 21
17613.72078158213
 31
0.0
  0
LINE
  5
261
330
1F
100
AcDbEntity
  8
ARGRID
100
AcDbLine
 10
3054.968488900967
 20
20471.15691304333
 30
0.0
 11
3054.968488900967
 21
17613.72078158213
 31
0.0
  0
LINE
  5
262
330
1F
100
AcDbEntity
  8
ARGRID
100
AcDbLine
 10
3100.718488900967
 20
20501.46780217579
 30
0.0
 11
3100.718488900967
 21
17613.72078158213
 31
0.0
  0
MTEXT
  5
263
330
1F
100
AcDbEntity
  8
ARGRID
100
AcDbMText
 10
3022.910681693874
 20
17544.40171896825
 30
0.0
 40
15.12
 41
40.125
 71
     5
 72
     5
  1
16B
  0
LWPOLYLINE
  5
264
330
1F
100
AcDbEntity
  8
ARGRID
  6
CONTINUOUS
100
AcDbPolyline
 90
        3
 70
     1
 43
0.0
 10
3024.643582266956
 20
17508.69274657902
 10
2994.324600126202
 20
17561.20676408058
 10
3054.962564407707
 20
17561.20676408058
  0
MTEXT
  5
265
330
1F
100
AcDbEntity
  8
ARGRID
100
AcDbMText
 10
3098.985588327884
 20
17544.4157364698
 30
0.0
 40
15.12
 41
40.125
 71
     5
 72
     5
  1
16A
  0
LWPOLYLINE
  5
266
330
1F
100
AcDbEntity
  8
ARGRID
  6
CONTINUOUS
100
AcDbPolyline
 90
        3
 70
     1
 43
0.0
 10
3100.718488900967
 20
17508.70676408058
 10
3070.399506760213
 20
17561.22078158213
 10
3131.037471041717
 20
17561.22078158213
  0
MTEXT
  5
267
330
1F
100
AcDbEntity
  8
ARGRID
100
AcDbMText
 10
3171.735588327884
 20
17596.9157364698
 30
0.0
 40
15.12
 41
40.125
 71
     5
 72
     5
  1
16
  0
LWPOLYLINE
  5
268
330
1F
100
AcDbEntity
  8
ARGRID
  6
CONTINUOUS
100
AcDbPolyline
 90
        3
 70
     1
 43
0.0
 10
3173.468488900967
 20
17561.20676408058
 10
3143.149506760213
 20
17613.72078158213
 10
3203.787471041717
 20
17613.72078158213
  0
LWPOLYLINE
  5
269
330
1F
100
AcDbEntity
  8
ARGRID
  6
CONTINUOUS
100
AcDbPolyline
 90
        3
 70
     1
 43
0.0
 10
3425.968488900967
 20
17561.20676408058
 10
3395.649506760213
 20
17613.72078158213
 10
3456.287471041717
 20
17613.72078158213
  0
MTEXT
  5
26A
330
1F
100
AcDbEntity
  8
ARGRID
100
AcDbMText
 10
3424.235588327884
 20
17596.9157364698
 30
0.0
 40
15.12
 41
40.125
 71
     5
 72
     5
  1
15
  0
LWPOLYLINE
  5
26B
330
1F
100
AcDbEntity
  8
ARGRID
  6
CONTINUOUS
100
AcDbPolyline
 90
        3
 70
     1
 43
0.0
 10
3678.468488900963
 20
17561.20676408058
 10
3648.149506760209
 20
17613.72078158213
 10
3708.787471041714
 20
17613.72078158213
  0
MTEXT
  5
26C
330
1F
100
AcDbEntity
  8
ARGRID
100
AcDbMText
 10
3676.735588327881
 20
17596.9157364698
 30
0.0
 40
15.12
 41
40.125
 71
     5
 72
     5
  1
14
  0
MTEXT
  5
26D
330
1F
100
AcDbEntity
  8
ARGRID
100
AcDbMText
 10
3022.910681693874
 20
20537.16275706346
 30
0.0
 40
15.12
 41
40.125
 71
     5
 72
     5
  1
16B
  0
LWPOLYLINE
  5
26E
330
1F
100
AcDbEntity
  8
ARGRID
  6
CONTINUOUS
100
AcDbPolyline
 90
        3
 70
     1
 43
0.0
 10
3024.643582266956
 20
20501.45378467424
 10
2994.324600126202
 20
20553.96780217579
 10
3054.962564407707
 20
20553.96780217579
  0
LINE
  5
26F
330
1F
100
AcDbEntity
  8
ARGRID
  6
CONTINUOUS
100
AcDbLine
 10
3024.657599768508
 20
20501.46780217579
 30
0.0
 11
3054.968488900967
 21
20471.15691304333
 31
0.0
  0
LWPOLYLINE
  5
270
330
1F
100
AcDbEntity
  8
ARGRID
  6
CONTINUOUS
100
AcDbPolyline
 90
        3
 70
     1
 43
0.0
 10
3100.718488900967
 20
20501.46780217579
 10
3070.399506760213
 20
20553.98181967734
 10
3131.037471041717
 20
20553.98181967734
  0
MTEXT
  5
271
330
1F
100
AcDbEntity
  8
ARGRID
100
AcDbMText
 10
3098.985588327884
 20
20537.17677456502
 30
0.0
 40
15.12
 41
40.125
 71
     5
 72
     5
  1
16A
  0
MTEXT
  5
272
330
1F
100
AcDbEntity
  8
ARGRID
100
AcDbMText
 10
3171.735588327884
 20
20589.67677456502
 30
0.0
 40
15.12
 41
40.125
 71
     5
 72
     5
  1
16
  0
LWPOLYLINE
  5
273
330
1F
100
AcDbEntity
  8
ARGRID
  6
CONTINUOUS
100
AcDbPolyline
 90
        3
 70
     1
 43
0.0
 10
3173.468488900967
 20
20553.96780217579
 10
3143.149506760213
 20
20606.48181967734
 10
3203.787471041717
 20
20606.48181967734
  0
LWPOLYLINE
  5
274
330
1F
100
AcDbEntity
  8
ARGRID
  6
CONTINUOUS
100
AcDbPolyline
 90
        3
 70
     1
 43
0.0
 10
3425.968488900967
 20
20553.96780217579
 10
3395.649506760213
 20
20606.48181967734
 10
3456.287471041717
 20
20606.48181967734
  0
MTEXT
  5
275
330
1F
100
AcDbEntity
  8
ARGRID
100
AcDbMText
 10
3424.235588327884
 20
20589.67677456502
 30
0.0
 40
15.12
 41
40.125
 71
     5
 72
     5
  1
15
  0
LWPOLYLINE
  5
276
330
1F
100
AcDbEntity
  8
ARGRID
  6
CONTINUOUS
100
AcDbPolyline
 90
        3
 70
     1
 43
0.0
 10
3678.468488900963
 20
20553.96780217579
 10
3648.149506760209
 20
20606.48181967734
 10
3708.787471041714
 20
20606.48181967734
  0
MTEXT
  5
277
330
1F
100
AcDbEntity
  8
ARGRID
100
AcDbMText
 10
3676.735588327881
 20
20589.67677456502
 30
0.0
 40
15.12
 41
40.125
 71
     5
 72
     5
  1
14
  0
TEXT
  5
278
330
1F
100
AcDbEntity
  8
EXROOF_TEXT
100
AcDbText
 10
6170.550945516404
 20
19315.50186633139
 30
0.0
 40
17.0
  1
M04
  7
ARIAL_NARROW
 72
     1
 11
6189.493305680115
 21
19315.50186633139
 31
0.0
100
AcDbText
  0
TEXT
  5
279
330
1F
100
AcDbEntity
  8
EXROOF_TEXT
100
AcDbText
 10
6164.074950902756
 20
19335.31597992031
 30
0.0
 40
17.0
  1
ROOF
  7
ARIAL_NARROW
 72
     1
 11
6192.207283781338
 21
19335.31597992031
 31
0.0
100
AcDbText
  0
LWPOLYLINE
  5
27A
330
1F
100
AcDbEntity
  8
EXROOF_TEXT
100
AcDbPolyline
 90
        4
 70
     1
 43
0.0
 10
6154.922974786226
 20
19356.34589408332
 10
6226.898615276272
 20
19356.34589408332
 10
6226.898615276272
 20
19309.37202233139
 10
6154.922974786226
 20
19309.37202233139
  0
LWPOLYLINE
  5
27B
330
1F
100
AcDbEntity
  8
EXWALL
  6
HIDDEN
 48
150.0
100
AcDbPolyline
 90
       25
 70
     0
 43
0.0
 10
5291.718488900963
 20
18208.20729354201
 10
4741.718488900963
 20
18208.20729354201
 10
4741.718488900966
 20
18414.33229354201
 10
4574.468488900962
 20
18414.33229354201
 10
4574.468488900962
 20
18797.70729354201
 10
4200.468488900964
 20
18797.70729354201
 10
4200.468488900963
 20
18541.70729354201
 10
4064.468488900963
 20
18541.70729354201
 10
4064.468488900962
 20
18661.70729354201
 10
3980.468488900962
 20
18661.70729354201
 10
3980.468488900962
 20
19050.20729354201
 10
3913.968488900963
 20
19050.20729354201
 10
3913.968488900963
 20
19582.20729354201
 10
6119.468488900963
 20
19582.20729354201
 10
6119.468488900963
 20
19050.20729354201
 10
6052.968488900963
 20
19050.20729354201
 10
6052.968488900963
 20
18661.70729354201
 10
5968.968488900963
 20
18661.70729354201
 10
5968.968488900963
 20
18541.70729354201
 10
5832.968488900963
 20
18541.70729354201
 10
5832.968488900963
 20
18797.70729354201
 10
5458.968488900962
 20
18797.70729354201
 10
5458.968488900962
 20
18414.33229354201
 10
5291.71848890096
 20
18414.33229354201
 10
5291.718488900963
 20
18208.20729354201
  0
LINE
  5
27C
330
1F
100
AcDbEntity
  8
ARGRID
100
AcDbLine
 10
4940.968488900965
 20
20553.96780217579
 30
0.0
 11
4940.968488900965
 21
17613.72078158213
 31
0.0
  0
LINE
  5
27D
330
1F
100
AcDbEntity
  8
ARGRID
100
AcDbLine
 10
4183.468488900965
 20
20553.96780217579
 30
0.0
 11
4183.468488900965
 21
17613.72078158213
 31
0.0
  0
LINE
  5
27E
330
1F
100
AcDbEntity
  8
ARGRID
100
AcDbLine
 10
4435.968488900965
 20
20553.96780217579
 30
0.0
 11
4435.968488900965
 21
17613.72078158213
 31
0.0
  0
LINE
  5
27F
330
1F
100
AcDbEntity
  8
ARGRID
100
AcDbLine
 10
4637.968488900965
 20
20501.46780217579
 30
0.0
 11
4637.968488900965
 21
17613.72078158213
 31
0.0
  0
LINE
  5
280
330
1F
100
AcDbEntity
  8
ARGRID
100
AcDbLine
 10
4597.468488900965
 20
20470.99921189354
 30
0.0
 11
4597.468488900965
 21
17613.72078158213
 31
0.0
  0
LINE
  5
281
330
1F
100
AcDbEntity
  8
ARGRID
100
AcDbLine
 10
4688.468488900965
 20
20553.96780217579
 30
0.0
 11
4688.468488900965
 21
17613.72078158213
 31
0.0
  0
LINE
  5
282
330
1F
100
AcDbEntity
  8
ARGRID
100
AcDbLine
 10
4074.968488900965
 20
20501.46780217579
 30
0.0
 11
4074.968488900965
 21
17613.72078158213
 31
0.0
  0
LINE
  5
283
330
1F
100
AcDbEntity
  8
ARGRID
100
AcDbLine
 10
3930.968488900963
 20
20553.96780217579
 30
0.0
 11
3930.968488900963
 21
17613.72078158213
 31
0.0
  0
LINE
  5
284
330
1F
100
AcDbEntity
  8
ARGRID
  6
CONTINUOUS
100
AcDbLine
 10
3920.218488900963
 20
20481.90691304333
 30
0.0
 11
3920.218488900963
 21
17613.72078158213
 31
0.0
  0
LINE
  5
285
330
1F
100
AcDbEntity
  8
EXWALL
  6
CONTINUOUS
100
AcDbLine
 10
4099.968488900965
 20
19313.70729354201
 30
0.0
 11
4436.968488900966
 21
19313.70729354201
 31
0.0
  0
LINE
  5
286
330
1F
100
AcDbEntity
  8
EXWALL
  6
CONTINUOUS
100
AcDbLine
 10
4175.468488900965
 20
19066.20729354201
 30
0.0
 11
4436.968488900968
 21
19066.20729354201
 31
0.0
  0
LINE
  5
287
330
1F
100
AcDbEntity
  8
EXWALL
  6
CONTINUOUS
100
AcDbLine
 10
4103.968488900965
 20
19317.70729354201
 30
0.0
 11
4440.968488900965
 21
19317.70729354201
 31
0.0
  0
LINE
  5
288
330
1F
100
AcDbEntity
  8
EXWALL
  6
CONTINUOUS
100
AcDbLine
 10
4175.468488900965
 20
19062.20729354201
 30
0.0
 11
4440.968488900967
 21
19062.20729354201
 31
0.0
  0
LINE
  5
289
330
1F
100
AcDbEntity
  8
EXWALL
  6
CONTINUOUS
100
AcDbLine
 10
4137.468488900965
 20
19050.20729354201
 30
0.0
 11
4452.968488900965
 21
19050.20729354201
 31
0.0
  0
LINE
  5
28A
330
1F
100
AcDbEntity
  8
EXWALL
  6
CONTINUOUS
100
AcDbLine
 10
4115.968488900965
 20
19329.70729354201
 30
0.0
 11
4452.968488900965
 21
19329.70729354201
 31
0.0
  0
HATCH
  5
28B
330
1F
100
AcDbEntity
  8
EXROOF
100
AcDbHatch
 10
0.0
 20
0.0
 30
0.0
210
0.0
220
0.0
230
1.0
  2
AR-RROOF
 70
     0
 71
     1
 91
        4
 92
        1
 93
        6
 72
     1
 10
4099.968488900965
 20
19566.20729354201
 11
3996.468488900965
 21
19566.20729354201
 72
     1
 10
3996.468488900965
 20
19566.20729354201
 11
3996.468488900965
 21
19066.20729354201
 72
     1
 10
3996.468488900965
 20
19066.20729354201
 11
4436.968488900967
 21
19066.20729354202
 72
     1
 10
4436.968488900967
 20
19066.20729354202
 11
4436.968488900966
 21
19313.70729354201
 72
     1
 10
4436.968488900966
 20
19313.70729354201
 11
4099.968488900965
 21
19313.70729354201
 72
     1
 10
4099.968488900965
 20
19313.70729354201
 11
4099.968488900965
 21
19566.20729354201
 97
        1
330
28C
 92
       16
 93
        4
 72
     1
 10
4273.068761832844
 20
19221.2732080433
 11
4369.036282486238
 21
19221.2732080433
 72
     1
 10
4369.036282486238
 20
19221.2732080433
 11
4369.036282486238
 21
19158.64137904073
 72
     1
 10
4369.036282486238
 20
19158.64137904073
 11
4273.068761832844
 21
19158.64137904073
 72
     1
 10
4273.068761832844
 20
19158.64137904073
 11
4273.068761832844
 21
19221.2732080433
 97
        1
330
2BE
 92
       16
 93
        1
 72
     2
 10
4183.718735692673
 20
19189.83513164666
 40
4.0
 50
0.0
 51
360.0
 73
     1
 97
        1
330
2BD
 92
       16
 93
        1
 72
     2
 10
4014.968488900965
 20
19439.95729354201
 40
4.0
 50
0.0
 51
360.0
 73
     1
 97
        1
330
2B4
 75
     0
 76
     1
 52
45.0
 41
115.0
 77
     0
 78
     3
 53
45.0
 43
0.0
 44
0.0
 45
97.5807358037436
 46
260.2152954766495
 79
     4
 49
1725.0
 49
-230.0
 49
575.0
 49
-115.0
 53
45.0
 43
67.493342264256
 44
148.8106221007089
 45
-189.4692620189354
 46
26.83470234602952
 79
     4
 49
345.0
 49
-37.95
 49
690.0
 49
-86.25
 53
45.0
 43
-28.46104794275853
 44
109.7783277792115
 45
368.367277659132
 46
477.3324326399789
 79
     4
 49
920.0
 49
-161.0
 49
460.0
 49
-115.0
 98
        1
 10
0.0
 20
0.0
  0
LWPOLYLINE
  5
28C
102
{ACAD_REACTORS
330
28B
102
}
330
1F
100
AcDbEntity
  8
EXROOF
100
AcDbPolyline
 90
        7
 70
     0
 43
0.0
 10
4099.968488900965
 20
19566.20729354201
 10
3996.468488900965
 20
19566.20729354201
 10
3996.468488900965
 20
19066.20729354201
 10
4436.968488900967
 20
19066.20729354202
 10
4436.968488900966
 20
19313.70729354201
 10
4099.968488900965
 20
19313.70729354201
 10
4099.968488900965
 20
19566.20729354201
  0
MTEXT
  5
28D
330
1F
100
AcDbEntity
  8
ARGRID
100
AcDbMText
 10
3898.924699195425
 20
17544.4157364698
 30
0.0
 40
15.12
 41
40.125
 71
     5
 72
     5
  1
13A
  0
LWPOLYLINE
  5
28E
330
1F
100
AcDbEntity
  8
ARGRID
  6
CONTINUOUS
100
AcDbPolyline
 90
        3
 70
     1
 43
0.0
 10
3900.657599768508
 20
17508.70676408058
 10
3870.338617627754
 20
17561.22078158213
 10
3930.976581909258
 20
17561.22078158213
  0
MTEXT
  5
28F
330
1F
100
AcDbEntity
  8
ARGRID
100
AcDbMText
 10
4073.235588327882
 20
17544.4157364698
 30
0.0
 40
15.12
 41
40.125
 71
     5
 72
     5
  1
12A
  0
LWPOLYLINE
  5
290
330
1F
100
AcDbEntity
  8
ARGRID
  6
CONTINUOUS
100
AcDbPolyline
 90
        3
 70
     1
 43
0.0
 10
4074.968488900965
 20
17508.70676408058
 10
4044.649506760211
 20
17561.22078158213
 10
4105.287471041715
 20
17561.22078158213
  0
LWPOLYLINE
  5
291
330
1F
100
AcDbEntity
  8
ARGRID
  6
CONTINUOUS
100
AcDbPolyline
 90
        3
 70
     1
 43
0.0
 10
3930.968488900963
 20
17561.20676408058
 10
3900.649506760209
 20
17613.72078158213
 10
3961.287471041715
 20
17613.72078158213
  0
MTEXT
  5
292
330
1F
100
AcDbEntity
  8
ARGRID
100
AcDbMText
 10
3929.235588327881
 20
17596.9157364698
 30
0.0
 40
15.12
 41
40.125
 71
     5
 72
     5
  1
13
  0
MTEXT
  5
293
330
1F
100
AcDbEntity
  8
ARGRID
100
AcDbMText
 10
4181.735588327882
 20
17596.9157364698
 30
0.0
 40
15.12
 41
40.125
 71
     5
 72
     5
  1
12
  0
LWPOLYLINE
  5
294
330
1F
100
AcDbEntity
  8
ARGRID
  6
CONTINUOUS
100
AcDbPolyline
 90
        3
 70
     1
 43
0.0
 10
4183.468488900965
 20
17561.20676408058
 10
4153.149506760211
 20
17613.72078158213
 10
4213.787471041715
 20
17613.72078158213
  0
TEXT
  5
295
330
1F
100
AcDbEntity
  8
EXROOF_TEXT
100
AcDbText
 10
4105.489215200543
 20
18757.87040213395
 30
0.0
 40
17.0
  1
ROOF
  7
ARIAL_NARROW
 72
     1
 11
4133.621548079124
 21
18757.87040213395
 31
0.0
100
AcDbText
  0
LWPOLYLINE
  5
296
102
{ACAD_REACTORS
330
297
102
}
330
1F
100
AcDbEntity
  8
EXROOF_TEXT
100
AcDbPolyline
 90
        4
 70
     1
 43
0.0
 10
4096.337239084013
 20
18778.90031629696
 10
4168.312879574059
 20
18778.90031629696
 10
4168.312879574059
 20
18731.92644454504
 10
4096.337239084013
 20
18731.92644454504
  0
HATCH
  5
297
330
1F
100
AcDbEntity
  8
EXROOF
100
AcDbHatch
 10
0.0
 20
0.0
 30
0.0
210
0.0
220
0.0
230
1.0
  2
AR-RROOF
 70
     0
 71
     1
 91
        3
 92
        1
 93
        4
 72
     1
 10
4080.968488900965
 20
18801.83229354202
 11
4183.968488900967
 21
18801.83229354202
 72
     1
 10
4183.968488900967
 20
18801.83229354202
 11
4183.968488900967
 21
18558.20729354201
 72
     1
 10
4183.968488900967
 20
18558.20729354201
 11
4080.968488900965
 21
18558.20729354201
 72
     1
 10
4080.968488900965
 20
18558.20729354201
 11
4080.968488900965
 21
18801.83229354202
 97
        1
330
298
 92
       16
 93
        4
 72
     1
 10
4096.337239084013
 20
18778.90031629696
 11
4168.312879574059
 21
18778.90031629696
 72
     1
 10
4168.312879574059
 20
18778.90031629696
 11
4168.312879574059
 21
18731.92644454504
 72
     1
 10
4168.312879574059
 20
18731.92644454504
 11
4096.337239084013
 21
18731.92644454504
 72
     1
 10
4096.337239084013
 20
18731.92644454504
 11
4096.337239084013
 21
18778.90031629696
 97
        1
330
296
 92
       16
 93
        1
 72
     2
 10
4132.468488900966
 20
18680.01979354201
 40
4.0
 50
0.0
 51
360.0
 73
     1
 97
        1
330
2BB
 75
     0
 76
     1
 52
45.0
 41
115.0
 77
     0
 78
     3
 53
45.0
 43
0.0
 44
0.0
 45
97.5807358037436
 46
260.2152954766495
 79
     4
 49
1725.0
 49
-230.0
 49
575.0
 49
-115.0
 53
45.0
 43
67.493342264256
 44
148.8106221007089
 45
-189.4692620189354
 46
26.83470234602952
 79
     4
 49
345.0
 49
-37.95
 49
690.0
 49
-86.25
 53
45.0
 43
-28.46104794275853
 44
109.7783277792115
 45
368.367277659132
 46
477.3324326399789
 79
     4
 49
920.0
 49
-161.0
 49
460.0
 49
-115.0
 98
        1
 10
0.0
 20
0.0
  0
LWPOLYLINE
  5
298
102
{ACAD_REACTORS
330
297
102
}
330
1F
100
AcDbEntity
  8
EXROOF
100
AcDbPolyline
 90
        4
 70
     1
 43
0.0
 10
4080.968488900965
 20
18801.83229354202
 10
4183.968488900967
 20
18801.83229354202
 10
4183.968488900967
 20
18558.20729354201
 10
4080.968488900965
 20
18558.20729354201
  0
LINE
  5
299
330
1F
100
AcDbEntity
  8
EXWALL
  6
CONTINUOUS
100
AcDbLine
 10
4080.968488900965
 20
18801.83229354202
 30
0.0
 11
4183.968488900967
 21
18801.83229354201
 31
0.0
  0
LINE
  5
29A
330
1F
100
AcDbEntity
  8
EXWALL
100
AcDbLine
 10
4183.968488900967
 20
18558.20729354201
 30
0.0
 11
4080.968488900965
 21
18558.20729354201
 31
0.0
  0
LINE
  5
29B
330
1F
100
AcDbEntity
  8
EXWALL
100
AcDbLine
 10
4187.968488900967
 20
18554.20729354201
 30
0.0
 11
4076.968488900965
 21
18554.20729354201
 31
0.0
  0
LINE
  5
29C
330
1F
100
AcDbEntity
  8
EXWALL
  6
CONTINUOUS
100
AcDbLine
 10
4076.968488900965
 20
18805.83229354202
 30
0.0
 11
4187.968488900967
 21
18805.83229354201
 31
0.0
  0
LINE
  5
29D
330
1F
100
AcDbEntity
  8
EXWALL
  6
CONTINUOUS
100
AcDbLine
 10
4064.968488900965
 20
18817.83229354202
 30
0.0
 11
4199.968488900967
 21
18817.83229354201
 31
0.0
  0
LINE
  5
29E
330
1F
100
AcDbEntity
  8
EXWALL
100
AcDbLine
 10
4199.968488900967
 20
18542.20729354201
 30
0.0
 11
4064.968488900965
 21
18542.20729354201
 31
0.0
  0
LINE
  5
29F
330
1F
100
AcDbEntity
  8
EXWALL
  6
CONTINUOUS
100
AcDbLine
 10
3996.468488900965
 20
19066.20729354201
 30
0.0
 11
4175.468488900965
 21
19066.20729354201
 31
0.0
  0
LINE
  5
2A0
330
1F
100
AcDbEntity
  8
EXWALL
100
AcDbLine
 10
4115.968488900965
 20
19582.20729354201
 30
0.0
 11
3913.968488900965
 21
19582.20729354201
 31
0.0
  0
LINE
  5
2A1
330
1F
100
AcDbEntity
  8
EXWALL
  6
CONTINUOUS
100
AcDbLine
 10
3992.468488900965
 20
19062.20729354201
 30
0.0
 11
4175.468488900965
 21
19062.20729354201
 31
0.0
  0
LINE
  5
2A2
330
1F
100
AcDbEntity
  8
EXWALL
  6
CONTINUOUS
100
AcDbLine
 10
3913.968488900965
 20
19050.20729354201
 30
0.0
 11
4137.468488900965
 21
19050.20729354201
 31
0.0
  0
LINE
  5
2A3
330
1F
100
AcDbEntity
  8
EXWALL
100
AcDbLine
 10
3992.468488900965
 20
19062.20729354201
 30
0.0
 11
3992.468488900965
 21
19570.20729354201
 31
0.0
  0
LINE
  5
2A4
330
1F
100
AcDbEntity
  8
EXWALL
100
AcDbLine
 10
3996.468488900965
 20
19066.20729354201
 30
0.0
 11
3996.468488900965
 21
19566.20729354201
 31
0.0
  0
LINE
  5
2A5
330
1F
100
AcDbEntity
  8
EXWALL
100
AcDbLine
 10
3980.468488900964
 20
19062.55187251736
 30
0.0
 11
3980.468488900965
 21
19570.20729354201
 31
0.0
  0
LINE
  5
2A6
330
1F
100
AcDbEntity
  8
EXWALL
100
AcDbLine
 10
3925.968488900965
 20
19062.20729354201
 30
0.0
 11
3925.968488900965
 21
19570.20729354201
 31
0.0
  0
LINE
  5
2A7
330
1F
100
AcDbEntity
  8
EXWALL
100
AcDbLine
 10
3913.968488900965
 20
19050.20729354201
 30
0.0
 11
3913.968488900965
 21
19582.20729354201
 31
0.0
  0
HATCH
  5
2A8
330
1F
100
AcDbEntity
  8
EXROOF
100
AcDbHatch
 10
0.0
 20
0.0
 30
0.0
210
0.0
220
0.0
230
1.0
  2
STEEL
 70
     0
 71
     1
 91
        1
 92
        1
 93
        4
 72
     1
 10
3925.968488900965
 20
19570.20729354201
 11
3980.468488900964
 21
19570.20729354201
 72
     1
 10
3980.468488900964
 20
19570.20729354201
 11
3980.468488900964
 21
19062.55187251736
 72
     1
 10
3980.468488900964
 20
19062.55187251736
 11
3925.968488900965
 21
19062.55187251736
 72
     1
 10
3925.968488900965
 20
19062.55187251736
 11
3925.968488900965
 21
19570.20729354201
 97
        1
330
2A9
 75
     0
 76
     1
 52
135.0
 41
200.0
 77
     0
 78
     2
 53
180.0
 43
0.0
 44
0.0
 45
-0.0000000000000053
 46
-25.0
 79
     0
 53
180.0
 43
-8.838834764831844
 44
-8.838834764831843
 45
-0.0000000000000053
 46
-25.0
 79
     0
 98
        1
 10
0.0
 20
0.0
  0
LWPOLYLINE
  5
2A9
102
{ACAD_REACTORS
330
2A8
102
}
330
1F
100
AcDbEntity
  8
EXROOF
100
AcDbPolyline
 90
        4
 70
     1
 43
0.0
 10
3925.968488900965
 20
19570.20729354201
 10
3980.468488900964
 20
19570.20729354201
 10
3980.468488900964
 20
19062.55187251736
 10
3925.968488900965
 20
19062.55187251736
  0
LINE
  5
2AA
330
1F
100
AcDbEntity
  8
EXWALL
100
AcDbLine
 10
3980.468488900965
 20
19062.55187251736
 30
0.0
 11
3925.968488900965
 21
19062.55187251736
 31
0.0
  0
LINE
  5
2AB
330
1F
100
AcDbEntity
  8
EXWALL
  6
CONTINUOUS
100
AcDbLine
 10
4080.968488900965
 20
18558.20729354201
 30
0.0
 11
4080.968488900965
 21
18801.83229354202
 31
0.0
  0
LINE
  5
2AC
330
1F
100
AcDbEntity
  8
EXWALL
  6
CONTINUOUS
100
AcDbLine
 10
4076.968488900965
 20
18554.20729354201
 30
0.0
 11
4076.968488900965
 21
18805.83229354202
 31
0.0
  0
LINE
  5
2AD
330
1F
100
AcDbEntity
  8
EXWALL
  6
CONTINUOUS
100
AcDbLine
 10
4064.968488900965
 20
18542.20729354201
 30
0.0
 11
4064.968488900965
 21
18817.83229354202
 31
0.0
  0
LINE
  5
2AE
330
1F
100
AcDbEntity
  8
EXWALL
100
AcDbLine
 10
3980.468488900965
 20
19570.20729354201
 30
0.0
 11
3925.968488900965
 21
19570.20729354201
 31
0.0
  0
LEADER
  5
2AF
330
1F
100
AcDbEntity
  8
EXROOF_TEXT
100
AcDbLeader
  3
STANDARD
 76
     3
 10
3925.968488900965
 20
19316.20729354201
 30
0.0
 10
3893.022267449641
 20
19332.85895820735
 30
0.0
 10
3878.550457639252
 20
19332.85895820735
 30
0.0
1001
ACAD
1000
DSTYLE
1002
{
1070
     5
1000

1070
   147
1040
0.09
1070
    77
1070
     0
1070
    40
1040
96.0
1002
}
  0
TEXT
  5
2B0
330
1F
100
AcDbEntity
  8
EXROOF_TEXT
100
AcDbText
 10
3822.202787879384
 20
19315.50186633139
 30
0.0
 40
17.0
  1
M03
  7
ARIAL_NARROW
 72
     1
 11
3841.145148043095
 21
19315.50186633139
 31
0.0
100
AcDbText
  0
TEXT
  5
2B1
330
1F
100
AcDbEntity
  8
EXROOF_TEXT
100
AcDbText
 10
3815.726793265737
 20
19335.31597992031
 30
0.0
 40
17.0
  1
ROOF
  7
ARIAL_NARROW
 72
     1
 11
3843.859126144318
 21
19335.31597992031
 31
0.0
100
AcDbText
  0
LINE
  5
2B2
330
1F
100
AcDbEntity
  8
EXWALL
  6
CONTINUOUS
100
AcDbLine
 10
4099.968488900965
 20
19313.70729354201
 30
0.0
 11
4099.968488900965
 21
19566.20729354201
 31
0.0
  0
LINE
  5
2B3
330
1F
100
AcDbEntity
  8
EXWALL
  6
CONTINUOUS
100
AcDbLine
 10
4103.968488900965
 20
19317.70729354201
 30
0.0
 11
4103.968488900965
 21
19570.20729354201
 31
0.0
  0
CIRCLE
  5
2B4
102
{ACAD_REACTORS
330
28B
102
}
330
1F
100
AcDbEntity
  8
EXWALL
100
AcDbCircle
 10
4014.968488900965
 20
19439.95729354201
 30
0.0
 40
4.0
  0
LINE
  5
2B5
330
1F
100
AcDbEntity
  8
EXWALL
100
AcDbLine
 10
4099.968488900965
 20
19566.20729354201
 30
0.0
 11
3996.468488900965
 21
19566.20729354201
 31
0.0
  0
LINE
  5
2B6
330
1F
100
AcDbEntity
  8
EXWALL
100
AcDbLine
 10
4103.968488900965
 20
19570.20729354201
 30
0.0
 11
3992.468488900965
 21
19570.20729354201
 31
0.0
  0
TEXT
  5
2B7
330
1F
100
AcDbEntity
  8
EXROOF_TEXT
100
AcDbText
 10
4114.661321683222
 20
18738.05628854503
 30
0.0
 40
17.0
  1
007
  7
ARIAL_NARROW
 72
     1
 11
4130.907569977901
 21
18738.05628854503
 31
0.0
100
AcDbText
  0
LINE
  5
2B8
330
1F
100
AcDbEntity
  8
EXWALL
100
AcDbLine
 10
4183.968488900967
 20
18558.20729354201
 30
0.0
 11
4183.968488900967
 21
18801.83229354201
 31
0.0
  0
LINE
  5
2B9
330
1F
100
AcDbEntity
  8
EXWALL
100
AcDbLine
 10
4187.968488900967
 20
18554.20729354201
 30
0.0
 11
4187.968488900967
 21
18805.83229354201
 31
0.0
  0
LINE
  5
2BA
330
1F
100
AcDbEntity
  8
EXWALL
100
AcDbLine
 10
4199.968488900967
 20
18542.20729354201
 30
0.0
 11
4199.968488900967
 21
18817.83229354201
 31
0.0
  0
CIRCLE
  5
2BB
102
{ACAD_REACTORS
330
297
102
}
330
1F
100
AcDbEntity
  8
EXWALL
100
AcDbCircle
 10
4132.468488900966
 20
18680.01979354201
 30
0.0
 40
4.0
  0
LINE
  5
2BC
330
1F
100
AcDbEntity
  8
EXWALL
  6
CONTINUOUS
100
AcDbLine
 10
4115.968488900965
 20
19329.70729354201
 30
0.0
 11
4115.968488900965
 21
19582.20729354201
 31
0.0
  0
CIRCLE
  5
2BD
102
{ACAD_REACTORS
330
28B
102
}
330
1F
100
AcDbEntity
  8
EXWALL
100
AcDbCircle
 10
4183.718735692673
 20
19189.83513164666
 30
0.0
 40
4.0
  0
LWPOLYLINE
  5
2BE
102
{ACAD_REACTORS
330
28B
102
}
330
1F
100
AcDbEntity
  8
EXROOF_TEXT
100
AcDbPolyline
 90
        4
 70
     1
 43
0.0
 10
4273.068761832844
 20
19221.2732080433
 10
4369.036282486238
 20
19221.2732080433
 10
4369.036282486238
 20
19158.64137904073
 10
4273.068761832844
 20
19158.64137904073
  0
TEXT
  5
2BF
330
1F
100
AcDbEntity
  8
EXROOF_TEXT
100
AcDbText
 10
4296.226656412599
 20
19166.81450437406
 30
0.0
 40
24.0
  1
002
  7
ARIAL_NARROW
 72
     1
 11
4319.162536358029
 21
19166.81450437406
 31
0.0
100
AcDbText
  0
TEXT
  5
2C0
330
1F
100
AcDbEntity
  8
EXROOF_TEXT
100
AcDbText
 10
4283.064939174211
 20
19193.23332249261
 30
0.0
 40
24.0
  1
ROOF
  7
ARIAL_NARROW
 72
     1
 11
4322.781173826325
 21
19193.23332249261
 31
0.0
100
AcDbText
  0
LWPOLYLINE
  5
2C1
330
1F
100
AcDbEntity
  8
ARGRID
  6
CONTINUOUS
100
AcDbPolyline
 90
        3
 70
     1
 43
0.0
 10
4688.476581909264
 20
17561.20676408058
 10
4658.157599768509
 20
17613.72078158213
 10
4718.795564050014
 20
17613.72078158213
  0
LWPOLYLINE
  5
2C2
330
1F
100
AcDbEntity
  8
ARGRID
  6
CONTINUOUS
100
AcDbPolyline
 90
        3
 70
     1
 43
0.0
 10
4637.968488900965
 20
17508.70676408058
 10
4607.649506760211
 20
17561.22078158213
 10
4668.287471041715
 20
17561.22078158213
  0
MTEXT
  5
2C3
330
1F
100
AcDbEntity
  8
ARGRID
100
AcDbMText
 10
4636.235588327882
 20
17544.4157364698
 30
0.0
 40
15.12
 41
40.125
 71
     5
 72
     5
  1
10A
  0
LWPOLYLINE
  5
2C4
330
1F
100
AcDbEntity
  8
ARGRID
  6
CONTINUOUS
100
AcDbPolyline
 90
        3
 70
     1
 43
0.0
 10
4567.269111320921
 20
17508.43755137837
 10
4536.950129180167
 20
17560.95156887993
 10
4597.588093461672
 20
17560.95156887993
  0
MTEXT
  5
2C5
330
1F
100
AcDbEntity
  8
ARGRID
100
AcDbMText
 10
4565.536210747839
 20
17544.1465237676
 30
0.0
 40
15.12
 41
40.125
 71
     5
 72
     5
  1
10B
  0
MTEXT
  5
2C6
330
1F
100
AcDbEntity
  8
ARGRID
100
AcDbMText
 10
4434.235588327882
 20
17596.9157364698
 30
0.0
 40
15.12
 41
40.125
 71
     5
 72
     5
  1
11
  0
LWPOLYLINE
  5
2C7
330
1F
100
AcDbEntity
  8
ARGRID
  6
CONTINUOUS
100
AcDbPolyline
 90
        3
 70
     1
 43
0.0
 10
4435.968488900965
 20
17561.20676408058
 10
4405.649506760211
 20
17613.72078158213
 10
4466.287471041715
 20
17613.72078158213
  0
MTEXT
  5
2C8
330
1F
100
AcDbEntity
  8
ARGRID
100
AcDbMText
 10
4686.743681336181
 20
17596.9157364698
 30
0.0
 40
15.12
 41
40.125
 71
     5
 72
     5
  1
10
  0
LWPOLYLINE
  5
2C9
330
1F
100
AcDbEntity
  8
ARGRID
  6
CONTINUOUS
100
AcDbPolyline
 90
        3
 70
     1
 43
0.0
 10
4940.968488900965
 20
17561.20676408058
 10
4910.649506760211
 20
17613.72078158213
 10
4971.287471041715
 20
17613.72078158213
  0
MTEXT
  5
2CA
330
1F
100
AcDbEntity
  8
ARGRID
100
AcDbMText
 10
4939.235588327882
 20
17596.9157364698
 30
0.0
 40
15.12
 41
40.125
 71
     5
 72
     5
  1
9
  0
HATCH
  5
2CB
330
1F
100
AcDbEntity
  8
EXROOF
100
AcDbHatch
 10
0.0
 20
0.0
 30
0.0
210
0.0
220
0.0
230
1.0
  2
AR-RROOF
 70
     0
 71
     1
 91
        4
 92
        1
 93
        4
 72
     1
 10
4598.468488900968
 20
18794.33229354201
 11
4934.468488900967
 21
18794.33229354201
 72
     1
 10
4934.468488900967
 20
18794.33229354201
 11
4934.468488900967
 21
18438.33229354201
 72
     1
 10
4934.468488900967
 20
18438.33229354201
 11
4598.468488900968
 21
18438.33229354201
 72
     1
 10
4598.468488900968
 20
18438.33229354201
 11
4598.468488900968
 21
18794.33229354201
 97
        1
330
2CC
 92
       16
 93
        4
 72
     1
 10
4718.48472857427
 20
18732.76704400997
 11
4814.452249227664
 21
18732.76704400997
 72
     1
 10
4814.452249227664
 20
18732.76704400997
 11
4814.452249227664
 21
18670.13521500741
 72
     1
 10
4814.452249227664
 20
18670.13521500741
 11
4718.48472857427
 21
18670.13521500741
 72
     1
 10
4718.48472857427
 20
18670.13521500741
 11
4718.48472857427
 21
18732.76704400997
 97
        1
330
2DD
 92
       16
 93
        4
 72
     1
 10
4627.077969759287
 20
18735.7075067381
 11
4651.077969759287
 21
18735.7075067381
 72
     1
 10
4651.077969759287
 20
18735.7075067381
 11
4651.077969759287
 21
18711.7075067381
 72
     1
 10
4651.077969759287
 20
18711.7075067381
 11
4627.077969759287
 21
18711.7075067381
 72
     1
 10
4627.077969759287
 20
18711.7075067381
 11
4627.077969759287
 21
18735.7075067381
 97
        1
330
2DC
 92
       16
 93
        1
 72
     2
 10
4766.468488900967
 20
18616.33229354202
 40
4.0
 50
0.0
 51
360.0
 73
     1
 97
        1
330
2E0
 75
     0
 76
     1
 52
45.0
 41
115.0
 77
     0
 78
     3
 53
45.0
 43
0.0
 44
0.0
 45
97.5807358037436
 46
260.2152954766495
 79
     4
 49
1725.0
 49
-230.0
 49
575.0
 49
-115.0
 53
45.0
 43
67.493342264256
 44
148.8106221007089
 45
-189.4692620189354
 46
26.83470234602952
 79
     4
 49
345.0
 49
-37.95
 49
690.0
 49
-86.25
 53
45.0
 43
-28.46104794275853
 44
109.7783277792115
 45
368.367277659132
 46
477.3324326399789
 79
     4
 49
920.0
 49
-161.0
 49
460.0
 49
-115.0
 98
        1
 10
0.0
 20
0.0
  0
LWPOLYLINE
  5
2CC
102
{ACAD_REACTORS
330
2CB
102
}
330
1F
100
AcDbEntity
  8
EXROOF
100
AcDbPolyline
 90
        4
 70
     1
 43
0.0
 10
4598.468488900968
 20
18794.33229354201
 10
4934.468488900967
 20
18794.33229354201
 10
4934.468488900967
 20
18438.33229354201
 10
4598.468488900968
 20
18438.33229354201
  0
LINE
  5
2CD
330
1F
100
AcDbEntity
  8
EXWALL
  6
CONTINUOUS
100
AcDbLine
 10
4598.468488900967
 20
18794.33229354201
 30
0.0
 11
4934.468488900967
 21
18794.33229354201
 31
0.0
  0
LINE
  5
2CE
330
1F
100
AcDbEntity
  8
EXWALL
  6
CONTINUOUS
100
AcDbLine
 10
4598.468488900965
 20
18438.33229354201
 30
0.0
 11
4934.468488900967
 21
18438.33229354201
 31
0.0
  0
LINE
  5
2CF
330
1F
100
AcDbEntity
  8
EXWALL
  6
CONTINUOUS
100
AcDbLine
 10
4594.468488900967
 20
18798.33229354201
 30
0.0
 11
4938.468488900967
 21
18798.33229354201
 31
0.0
  0
LINE
  5
2D0
330
1F
100
AcDbEntity
  8
EXWALL
  6
CONTINUOUS
100
AcDbLine
 10
4594.468488900965
 20
18434.33229354201
 30
0.0
 11
4938.468488900967
 21
18434.33229354201
 31
0.0
  0
LINE
  5
2D1
330
1F
100
AcDbEntity
  8
EXWALL
  6
CONTINUOUS
100
AcDbLine
 10
4574.468488900967
 20
18818.33229354201
 30
0.0
 11
4958.468488900967
 21
18818.33229354201
 31
0.0
  0
LINE
  5
2D2
330
1F
100
AcDbEntity
  8
EXWALL
  6
CONTINUOUS
100
AcDbLine
 10
4574.468488900965
 20
18414.33229354201
 30
0.0
 11
4958.468488900967
 21
18414.33229354201
 31
0.0
  0
LINE
  5
2D3
330
1F
100
AcDbEntity
  8
EXWALL
  6
CONTINUOUS
100
AcDbLine
 10
4452.968488900965
 20
19050.20729354201
 30
0.0
 11
4452.968488900965
 21
19329.70729354201
 31
0.0
  0
LINE
  5
2D4
330
1F
100
AcDbEntity
  8
EXWALL
  6
CONTINUOUS
100
AcDbLine
 10
4436.968488900968
 20
19066.20729354201
 30
0.0
 11
4436.968488900966
 21
19313.70729354201
 31
0.0
  0
LINE
  5
2D5
330
1F
100
AcDbEntity
  8
EXWALL
  6
CONTINUOUS
100
AcDbLine
 10
4440.968488900967
 20
19062.20729354201
 30
0.0
 11
4440.968488900965
 21
19317.70729354201
 31
0.0
  0
LEADER
  5
2D6
330
1F
100
AcDbEntity
  8
EQUIP_TEXT
100
AcDbLeader
  3
STANDARD
 76
     3
 10
4627.077969759287
 20
18723.7075067381
 30
0.0
 10
4557.428862672852
 20
18757.5391391124
 30
0.0
 10
4529.091960096642
 20
18757.5391391124
 30
0.0
1001
ACAD
1000
DSTYLE
1002
{
1070
     5
1000

1070
   147
1040
0.09
1070
    77
1070
     0
1070
    40
1040
96.0
1002
}
  0
MTEXT
  5
2D7
330
1F
100
AcDbEntity
  8
EQUIP_TEXT
100
AcDbMText
 10
4476.884546266746
 20
18773.01598681609
 30
0.0
 40
17.0
 41
130.875
 71
     2
 72
     5
  1
EXHAUST VENT
  7
ARIAL_NARROW
  0
LINE
  5
2D8
330
1F
100
AcDbEntity
  8
EXWALL
  6
CONTINUOUS
100
AcDbLine
 10
4598.468488900966
 20
18438.33229354201
 30
0.0
 11
4598.468488900968
 21
18794.33229354201
 31
0.0
  0
LINE
  5
2D9
330
1F
100
AcDbEntity
  8
EXWALL
  6
CONTINUOUS
100
AcDbLine
 10
4594.468488900966
 20
18434.33229354201
 30
0.0
 11
4594.468488900967
 21
18798.33229354201
 31
0.0
  0
LINE
  5
2DA
330
1F
100
AcDbEntity
  8
EXWALL
  6
CONTINUOUS
100
AcDbLine
 10
4574.468488900965
 20
18414.33229354201
 30
0.0
 11
4574.468488900967
 21
18818.33229354201
 31
0.0
  0
CIRCLE
  5
2DB
330
1F
100
AcDbEntity
  8
EQUIP
100
AcDbCircle
 10
4639.077969759287
 20
18723.7075067381
 30
0.0
 40
12.0
  0
LWPOLYLINE
  5
2DC
102
{ACAD_REACTORS
330
2CB
102
}
330
1F
100
AcDbEntity
  8
EQUIP
100
AcDbPolyline
 90
        4
 70
     1
 43
0.0
 10
4627.077969759287
 20
18735.7075067381
 10
4651.077969759287
 20
18735.7075067381
 10
4651.077969759287
 20
18711.7075067381
 10
4627.077969759287
 20
18711.7075067381
  0
LWPOLYLINE
  5
2DD
102
{ACAD_REACTORS
330
2CB
102
}
330
1F
100
AcDbEntity
  8
EXROOF_TEXT
100
AcDbPolyline
 90
        4
 70
     1
 43
0.0
 10
4718.48472857427
 20
18732.76704400997
 10
4814.452249227664
 20
18732.76704400997
 10
4814.452249227664
 20
18670.13521500741
 10
4718.48472857427
 20
18670.13521500741
  0
TEXT
  5
2DE
330
1F
100
AcDbEntity
  8
EXROOF_TEXT
100
AcDbText
 10
4728.480905915637
 20
18704.72715845929
 30
0.0
 40
24.0
  1
ROOF
  7
ARIAL_NARROW
 72
     1
 11
4768.197140567751
 21
18704.72715845929
 31
0.0
100
AcDbText
  0
TEXT
  5
2DF
330
1F
100
AcDbEntity
  8
EXROOF_TEXT
100
AcDbText
 10
4741.642623154025
 20
18678.30834034073
 30
0.0
 40
24.0
  1
006
  7
ARIAL_NARROW
 72
     1
 11
4764.578503099455
 21
18678.30834034073
 31
0.0
100
AcDbText
  0
CIRCLE
  5
2E0
102
{ACAD_REACTORS
330
2CB
102
}
330
1F
100
AcDbEntity
  8
EXWALL
100
AcDbCircle
 10
4766.468488900967
 20
18616.33229354202
 30
0.0
 40
4.0
  0
LINE
  5
2E1
330
1F
100
AcDbEntity
  8
EXWALL
  6
CONTINUOUS
100
AcDbLine
 10
4938.468488900967
 20
18596.26979354201
 30
0.0
 11
4938.468488900967
 21
18798.33229354201
 31
0.0
  0
LINE
  5
2E2
330
1F
100
AcDbEntity
  8
EXWALL
  6
CONTINUOUS
100
AcDbLine
 10
4958.468488900967
 20
18596.26979354201
 30
0.0
 11
4958.468488900967
 21
18818.33229354201
 31
0.0
  0
LINE
  5
2E3
330
1F
100
AcDbEntity
  8
EXWALL
  6
CONTINUOUS
100
AcDbLine
 10
4934.468488900967
 20
18438.33229354201
 30
0.0
 11
4934.468488900966
 21
18794.33229354201
 31
0.0
  0
LINE
  5
2E4
330
1F
100
AcDbEntity
  8
EXWALL
  6
CONTINUOUS
100
AcDbLine
 10
4938.468488900967
 20
18434.33229354201
 30
0.0
 11
4938.468488900967
 21
18596.26979354201
 31
0.0
  0
LINE
  5
2E5
330
1F
100
AcDbEntity
  8
EXWALL
  6
CONTINUOUS
100
AcDbLine
 10
4958.468488900967
 20
18414.33229354201
 30
0.0
 11
4958.468488900967
 21
18596.26979354201
 31
0.0
  0
LWPOLYLINE
  5
2E6
330
1F
100
AcDbEntity
  8
ARGRID
  6
CONTINUOUS
100
AcDbPolyline
 90
        3
 70
     1
 43
0.0
 10
3930.968488900963
 20
20553.96780217579
 10
3900.649506760209
 20
20606.48181967734
 10
3961.287471041715
 20
20606.48181967734
  0
MTEXT
  5
2E7
330
1F
100
AcDbEntity
  8
ARGRID
100
AcDbMText
 10
3898.924699195421
 20
20537.17677456502
 30
0.0
 40
15.12
 41
40.125
 71
     5
 72
     5
  1
13A
  0
LWPOLYLINE
  5
2E8
330
1F
100
AcDbEntity
  8
ARGRID
  6
CONTINUOUS
100
AcDbPolyline
 90
        3
 70
     1
 43
0.0
 10
3900.657599768504
 20
20501.46780217579
 10
3870.33861762775
 20
20553.98181967734
 10
3930.976581909254
 20
20553.98181967734
  0
MTEXT
  5
2E9
330
1F
100
AcDbEntity
  8
ARGRID
100
AcDbMText
 10
3929.235588327881
 20
20589.67677456502
 30
0.0
 40
15.12
 41
40.125
 71
     5
 72
     5
  1
13
  0
LINE
  5
2EA
330
1F
100
AcDbEntity
  8
ARGRID
  6
CONTINUOUS
100
AcDbLine
 10
3900.657599768504
 20
20501.46780217579
 30
0.0
 11
3920.218488900963
 21
20481.90691304333
 31
0.0
  0
LWPOLYLINE
  5
2EB
330
1F
100
AcDbEntity
  8
ARGRID
  6
CONTINUOUS
100
AcDbPolyline
 90
        3
 70
     1
 43
0.0
 10
4074.968488900965
 20
20501.46780217579
 10
4044.649506760211
 20
20553.98181967734
 10
4105.287471041715
 20
20553.98181967734
  0
MTEXT
  5
2EC
330
1F
100
AcDbEntity
  8
ARGRID
100
AcDbMText
 10
4073.235588327882
 20
20537.17677456502
 30
0.0
 40
15.12
 41
40.125
 71
     5
 72
     5
  1
12A
  0
MTEXT
  5
2ED
330
1F
100
AcDbEntity
  8
ARGRID
100
AcDbMText
 10
4181.735588327882
 20
20589.67677456502
 30
0.0
 40
15.12
 41
40.125
 71
     5
 72
     5
  1
12
  0
LWPOLYLINE
  5
2EE
330
1F
100
AcDbEntity
  8
ARGRID
  6
CONTINUOUS
100
AcDbPolyline
 90
        3
 70
     1
 43
0.0
 10
4183.468488900965
 20
20553.96780217579
 10
4153.149506760211
 20
20606.48181967734
 10
4213.787471041715
 20
20606.48181967734
  0
LWPOLYLINE
  5
2EF
330
1F
100
AcDbEntity
  8
ARGRID
  6
CONTINUOUS
100
AcDbPolyline
 90
        3
 70
     1
 43
0.0
 10
4688.47658190926
 20
20553.96780217579
 10
4658.157599768506
 20
20606.48181967734
 10
4718.79556405001
 20
20606.48181967734
  0
MTEXT
  5
2F0
330
1F
100
AcDbEntity
  8
ARGRID
100
AcDbMText
 10
4565.536210747839
 20
20536.90756186282
 30
0.0
 40
15.12
 41
40.125
 71
     5
 72
     5
  1
10B
  0
LWPOLYLINE
  5
2F1
330
1F
100
AcDbEntity
  8
ARGRID
  6
CONTINUOUS
100
AcDbPolyline
 90
        3
 70
     1
 43
0.0
 10
4567.269111320921
 20
20501.19858947359
 10
4536.950129180167
 20
20553.71260697514
 10
4597.588093461672
 20
20553.71260697514
  0
MTEXT
  5
2F2
330
1F
100
AcDbEntity
  8
ARGRID
100
AcDbMText
 10
4434.235588327882
 20
20589.67677456502
 30
0.0
 40
15.12
 41
40.125
 71
     5
 72
     5
  1
11
  0
LWPOLYLINE
  5
2F3
330
1F
100
AcDbEntity
  8
ARGRID
  6
CONTINUOUS
100
AcDbPolyline
 90
        3
 70
     1
 43
0.0
 10
4435.968488900965
 20
20553.96780217579
 10
4405.649506760211
 20
20606.48181967734
 10
4466.287471041715
 20
20606.48181967734
  0
MTEXT
  5
2F4
330
1F
100
AcDbEntity
  8
ARGRID
100
AcDbMText
 10
4636.235588327882
 20
20537.17677456502
 30
0.0
 40
15.12
 41
40.125
 71
     5
 72
     5
  1
10A
  0
LWPOLYLINE
  5
2F5
330
1F
100
AcDbEntity
  8
ARGRID
  6
CONTINUOUS
100
AcDbPolyline
 90
        3
 70
     1
 43
0.0
 10
4637.968488900965
 20
20501.46780217579
 10
4607.649506760211
 20
20553.98181967734
 10
4668.287471041715
 20
20553.98181967734
  0
LINE
  5
2F6
330
1F
100
AcDbEntity
  8
ARGRID
  6
CONTINUOUS
100
AcDbLine
 10
4567.269111320921
 20
20501.19858947359
 30
0.0
 11
4597.468488900965
 21
20470.99921189354
 31
0.0
  0
MTEXT
  5
2F7
330
1F
100
AcDbEntity
  8
ARGRID
100
AcDbMText
 10
4686.743681336177
 20
20589.67677456502
 30
0.0
 40
15.12
 41
40.125
 71
     5
 72
     5
  1
10
  0
LWPOLYLINE
  5
2F8
330
1F
100
AcDbEntity
  8
ARGRID
  6
CONTINUOUS
100
AcDbPolyline
 90
        3
 70
     1
 43
0.0
 10
4940.968488900965
 20
20553.96780217579
 10
4910.649506760211
 20
20606.48181967734
 10
4971.287471041715
 20
20606.48181967734
  0
MTEXT
  5
2F9
330
1F
100
AcDbEntity
  8
ARGRID
100
AcDbMText
 10
4939.235588327882
 20
20589.67677456502
 30
0.0
 40
15.12
 41
40.125
 71
     5
 72
     5
  1
9
  0
LINE
  5
2FA
330
1F
100
AcDbEntity
  8
ARGRID
100
AcDbLine
 10
6102.468488900963
 20
20553.96780217579
 30
0.0
 11
6102.468488900963
 21
17613.72078158213
 31
0.0
  0
LINE
  5
2FB
330
1F
100
AcDbEntity
  8
ARGRID
100
AcDbLine
 10
6113.218488900963
 20
20471.14546780124
 30
0.0
 11
6113.218488900963
 21
17613.72078158213
 31
0.0
  0
LINE
  5
2FC
330
1F
100
AcDbEntity
  8
ARGRID
100
AcDbLine
 10
5849.968488900965
 20
20553.96780217579
 30
0.0
 11
5849.968488900965
 21
17613.72078158213
 31
0.0
  0
LINE
  5
2FD
330
1F
100
AcDbEntity
  8
ARGRID
100
AcDbLine
 10
5958.468488900965
 20
20501.46780217579
 30
0.0
 11
5958.468488900965
 21
17613.72078158213
 31
0.0
  0
LINE
  5
2FE
330
1F
100
AcDbEntity
  8
ARGRID
100
AcDbLine
 10
5955.468488900965
 20
20553.96780217579
 30
0.0
 11
5955.468488900965
 21
17613.72078158213
 31
0.0
  0
LINE
  5
2FF
330
1F
100
AcDbEntity
  8
ARGRID
100
AcDbLine
 10
5344.968488900965
 20
20553.96780217579
 30
0.0
 11
5344.968488900965
 21
17613.72078158213
 31
0.0
  0
LINE
  5
300
330
1F
100
AcDbEntity
  8
ARGRID
100
AcDbLine
 10
5092.468488900965
 20
20553.96780217579
 30
0.0
 11
5092.468488900965
 21
17613.72078158213
 31
0.0
  0
LINE
  5
301
330
1F
100
AcDbEntity
  8
ARGRID
100
AcDbLine
 10
5395.468488900961
 20
20501.46780217579
 30
0.0
 11
5395.468488900965
 21
17613.72078158213
 31
0.0
  0
LINE
  5
302
330
1F
100
AcDbEntity
  8
ARGRID
100
AcDbLine
 10
5597.468488900965
 20
20553.96780217579
 30
0.0
 11
5597.468488900965
 21
17613.72078158213
 31
0.0
  0
LINE
  5
303
330
1F
100
AcDbEntity
  8
ARGRID
100
AcDbLine
 10
5435.968488900965
 20
20471.15217226884
 30
0.0
 11
5435.968488900965
 21
17613.72078158213
 31
0.0
  0
LINE
  5
304
330
1F
100
AcDbEntity
  8
ARGRID
100
AcDbLine
 10
5016.718488900965
 20
20553.96780217579
 30
0.0
 11
5016.718488900965
 21
17613.72078158213
 31
0.0
  0
LINE
  5
305
330
1F
100
AcDbEntity
  8
EXWALL
  6
CONTINUOUS
100
AcDbLine
 10
5917.468488900963
 20
19329.70729354201
 30
0.0
 11
5580.468488900963
 21
19329.70729354201
 31
0.0
  0
LINE
  5
306
330
1F
100
AcDbEntity
  8
EXWALL
  6
CONTINUOUS
100
AcDbLine
 10
5895.968488900963
 20
19050.20729354201
 30
0.0
 11
5580.468488900963
 21
19050.20729354201
 31
0.0
  0
LINE
  5
307
330
1F
100
AcDbEntity
  8
EXWALL
  6
CONTINUOUS
100
AcDbLine
 10
5857.968488900963
 20
19062.20729354201
 30
0.0
 11
5592.468488900961
 21
19062.20729354201
 31
0.0
  0
LINE
  5
308
330
1F
100
AcDbEntity
  8
EXWALL
  6
CONTINUOUS
100
AcDbLine
 10
5929.468488900963
 20
19317.70729354201
 30
0.0
 11
5592.468488900963
 21
19317.70729354201
 31
0.0
  0
MTEXT
  5
309
330
1F
100
AcDbEntity
  8
ARGRID
100
AcDbMText
 10
5595.735588327882
 20
17596.9157364698
 30
0.0
 40
15.12
 41
40.125
 71
     5
 72
     5
  1
6
  0
LWPOLYLINE
  5
30A
330
1F
100
AcDbEntity
  8
ARGRID
  6
CONTINUOUS
100
AcDbPolyline
 90
        3
 70
     1
 43
0.0
 10
5597.468488900965
 20
17561.20676408058
 10
5567.149506760211
 20
17613.72078158213
 10
5627.787471041715
 20
17613.72078158213
  0
LWPOLYLINE
  5
30B
330
1F
100
AcDbEntity
  8
ARGRID
  6
CONTINUOUS
100
AcDbPolyline
 90
        3
 70
     1
 43
0.0
 10
5092.468488900965
 20
17561.20676408058
 10
5062.149506760211
 20
17613.72078158213
 10
5122.787471041715
 20
17613.72078158213
  0
MTEXT
  5
30C
330
1F
100
AcDbEntity
  8
ARGRID
100
AcDbMText
 10
5090.735588327882
 20
17596.9157364698
 30
0.0
 40
15.12
 41
40.125
 71
     5
 72
     5
  1
8
  0
MTEXT
  5
30D
330
1F
100
AcDbEntity
  8
ARGRID
100
AcDbMText
 10
5464.547028985474
 20
17544.41154722044
 30
0.0
 40
15.12
 41
40.125
 71
     5
 72
     5
  1
6B
  0
LWPOLYLINE
  5
30E
330
1F
100
AcDbEntity
  8
ARGRID
  6
CONTINUOUS
100
AcDbPolyline
 90
        3
 70
     1
 43
0.0
 10
5466.279929558556
 20
17508.70257483122
 10
5435.960947417802
 20
17561.21659233277
 10
5496.598911699307
 20
17561.21659233277
  0
MTEXT
  5
30F
330
1F
100
AcDbEntity
  8
ARGRID
100
AcDbMText
 10
5393.735588327882
 20
17544.4157364698
 30
0.0
 40
15.12
 41
40.125
 71
     5
 72
     5
  1
6C
  0
LWPOLYLINE
  5
310
330
1F
100
AcDbEntity
  8
ARGRID
  6
CONTINUOUS
100
AcDbPolyline
 90
        3
 70
     1
 43
0.0
 10
5395.468488900965
 20
17508.70676408058
 10
5365.149506760211
 20
17561.22078158213
 10
5425.787471041715
 20
17561.22078158213
  0
LWPOLYLINE
  5
311
330
1F
100
AcDbEntity
  8
ARGRID
  6
CONTINUOUS
100
AcDbPolyline
 90
        3
 70
     1
 43
0.0
 10
5344.968488900965
 20
17561.20676408058
 10
5314.649506760211
 20
17613.72078158213
 10
5375.287471041715
 20
17613.72078158213
  0
MTEXT
  5
312
330
1F
100
AcDbEntity
  8
ARGRID
100
AcDbMText
 10
5343.235588327882
 20
17596.9157364698
 30
0.0
 40
15.12
 41
40.125
 71
     5
 72
     5
  1
7
  0
HATCH
  5
313
330
1F
100
AcDbEntity
  8
EXROOF
100
AcDbHatch
 10
0.0
 20
0.0
 30
0.0
210
0.0
220
0.0
230
1.0
  2
AR-RROOF
 70
     0
 71
     1
 91
        3
 92
        1
 93
        4
 72
     1
 10
5098.968488900965
 20
18794.33229354201
 11
5434.968488900965
 21
18794.33229354201
 72
     1
 10
5434.968488900965
 20
18794.33229354201
 11
5434.968488900965
 21
18438.33229354201
 72
     1
 10
5434.968488900965
 20
18438.33229354201
 11
5098.968488900965
 21
18438.33229354201
 72
     1
 10
5098.968488900965
 20
18438.33229354201
 11
5098.968488900965
 21
18794.33229354201
 97
        1
330
314
 92
       16
 93
        4
 72
     1
 10
5218.984728574268
 20
18732.76704400997
 11
5314.952249227662
 21
18732.76704400997
 72
     1
 10
5314.952249227662
 20
18732.76704400997
 11
5314.952249227662
 21
18670.13521500741
 72
     1
 10
5314.952249227662
 20
18670.13521500741
 11
5218.984728574268
 21
18670.13521500741
 72
     1
 10
5218.984728574268
 20
18670.13521500741
 11
5218.984728574268
 21
18732.76704400997
 97
        1
330
316
 92
       16
 93
        1
 72
     2
 10
5266.968488900965
 20
18616.33229354201
 40
4.0
 50
0.0
 51
360.0
 73
     1
 97
        1
330
324
 75
     0
 76
     1
 52
45.0
 41
115.0
 77
     0
 78
     3
 53
45.0
 43
0.0
 44
0.0
 45
97.5807358037436
 46
260.2152954766495
 79
     4
 49
1725.0
 49
-230.0
 49
575.0
 49
-115.0
 53
45.0
 43
67.493342264256
 44
148.8106221007089
 45
-189.4692620189354
 46
26.83470234602952
 79
     4
 49
345.0
 49
-37.95
 49
690.0
 49
-86.25
 53
45.0
 43
-28.46104794275853
 44
109.7783277792115
 45
368.367277659132
 46
477.3324326399789
 79
     4
 49
920.0
 49
-161.0
 49
460.0
 49
-115.0
 98
        1
 10
0.0
 20
0.0
  0
LWPOLYLINE
  5
314
102
{ACAD_REACTORS
330
313
102
}
330
1F
100
AcDbEntity
  8
EXROOF
100
AcDbPolyline
 90
        4
 70
     1
 43
0.0
 10
5098.968488900965
 20
18794.33229354201
 10
5434.968488900965
 20
18794.33229354201
 10
5434.968488900965
 20
18438.33229354201
 10
5098.968488900965
 20
18438.33229354201
  0
TEXT
  5
315
330
1F
100
AcDbEntity
  8
EXROOF_TEXT
100
AcDbText
 10
5228.980905915635
 20
18704.72715845929
 30
0.0
 40
24.0
  1
ROOF
  7
ARIAL_NARROW
 72
     1
 11
5268.69714056775
 21
18704.72715845929
 31
0.0
100
AcDbText
  0
LWPOLYLINE
  5
316
102
{ACAD_REACTORS
330
313
102
}
330
1F
100
AcDbEntity
  8
EXROOF_TEXT
100
AcDbPolyline
 90
        4
 70
     1
 43
0.0
 10
5218.984728574268
 20
18732.76704400997
 10
5314.952249227662
 20
18732.76704400997
 10
5314.952249227662
 20
18670.13521500741
 10
5218.984728574268
 20
18670.13521500741
  0
LINE
  5
317
330
1F
100
AcDbEntity
  8
EXWALL
  6
CONTINUOUS
100
AcDbLine
 10
5434.968488900965
 20
18438.33229354201
 30
0.0
 11
5098.968488900966
 21
18438.33229354201
 31
0.0
  0
LINE
  5
318
330
1F
100
AcDbEntity
  8
EXWALL
100
AcDbLine
 10
5098.968488900965
 20
18794.33229354201
 30
0.0
 11
5434.968488900965
 21
18794.33229354201
 31
0.0
  0
LINE
  5
319
330
1F
100
AcDbEntity
  8
EXWALL
  6
CONTINUOUS
100
AcDbLine
 10
5438.968488900965
 20
18434.33229354201
 30
0.0
 11
5094.968488900966
 21
18434.33229354201
 31
0.0
  0
LINE
  5
31A
330
1F
100
AcDbEntity
  8
EXWALL
100
AcDbLine
 10
5094.968488900965
 20
18798.33229354201
 30
0.0
 11
5438.968488900965
 21
18798.33229354201
 31
0.0
  0
LINE
  5
31B
330
1F
100
AcDbEntity
  8
EXWALL
100
AcDbLine
 10
5074.968488900965
 20
18818.33229354201
 30
0.0
 11
5458.968488900965
 21
18818.33229354201
 31
0.0
  0
LINE
  5
31C
330
1F
100
AcDbEntity
  8
EXWALL
  6
CONTINUOUS
100
AcDbLine
 10
5458.968488900965
 20
18414.33229354201
 30
0.0
 11
5074.968488900965
 21
18414.33229354201
 31
0.0
  0
LINE
  5
31D
330
1F
100
AcDbEntity
  8
EXWALL
  6
CONTINUOUS
100
AcDbLine
 10
5098.968488900965
 20
18596.26979354201
 30
0.0
 11
5098.968488900964
 21
18794.33229354201
 31
0.0
  0
LINE
  5
31E
330
1F
100
AcDbEntity
  8
EXWALL
  6
CONTINUOUS
100
AcDbLine
 10
5094.968488900965
 20
18596.26979354201
 30
0.0
 11
5094.968488900965
 21
18798.33229354201
 31
0.0
  0
LINE
  5
31F
330
1F
100
AcDbEntity
  8
EXWALL
  6
CONTINUOUS
100
AcDbLine
 10
5074.968488900965
 20
18596.26979354201
 30
0.0
 11
5074.968488900965
 21
18818.33229354201
 31
0.0
  0
LINE
  5
320
330
1F
100
AcDbEntity
  8
EXWALL
  6
CONTINUOUS
100
AcDbLine
 10
5098.968488900965
 20
18438.33229354201
 30
0.0
 11
5098.968488900965
 21
18596.26979354201
 31
0.0
  0
LINE
  5
321
330
1F
100
AcDbEntity
  8
EXWALL
  6
CONTINUOUS
100
AcDbLine
 10
5094.968488900966
 20
18434.33229354201
 30
0.0
 11
5094.968488900965
 21
18596.26979354201
 31
0.0
  0
LINE
  5
322
330
1F
100
AcDbEntity
  8
EXWALL
  6
CONTINUOUS
100
AcDbLine
 10
5074.968488900965
 20
18414.33229354201
 30
0.0
 11
5074.968488900965
 21
18596.26979354201
 31
0.0
  0
TEXT
  5
323
330
1F
100
AcDbEntity
  8
EXROOF_TEXT
100
AcDbText
 10
5242.142623154024
 20
18678.30834034073
 30
0.0
 40
24.0
  1
005
  7
ARIAL_NARROW
 72
     1
 11
5265.078503099453
 21
18678.30834034073
 31
0.0
100
AcDbText
  0
CIRCLE
  5
324
102
{ACAD_REACTORS
330
313
102
}
330
1F
100
AcDbEntity
  8
EXWALL
100
AcDbCircle
 10
5266.968488900965
 20
18616.33229354201
 30
0.0
 40
4.0
  0
LINE
  5
325
330
1F
100
AcDbEntity
  8
EXWALL
  6
CONTINUOUS
100
AcDbLine
 10
5580.468488900963
 20
19050.20729354201
 30
0.0
 11
5580.468488900963
 21
19329.70729354201
 31
0.0
  0
LINE
  5
326
330
1F
100
AcDbEntity
  8
EXWALL
  6
CONTINUOUS
100
AcDbLine
 10
5592.468488900961
 20
19062.20729354201
 30
0.0
 11
5592.468488900963
 21
19317.70729354201
 31
0.0
  0
LINE
  5
327
330
1F
100
AcDbEntity
  8
EXWALL
  6
CONTINUOUS
100
AcDbLine
 10
5434.968488900965
 20
18438.33229354201
 30
0.0
 11
5434.968488900964
 21
18794.33229354201
 31
0.0
  0
LINE
  5
328
330
1F
100
AcDbEntity
  8
EXWALL
  6
CONTINUOUS
100
AcDbLine
 10
5438.968488900965
 20
18434.33229354201
 30
0.0
 11
5438.968488900965
 21
18798.33229354201
 31
0.0
  0
LINE
  5
329
330
1F
100
AcDbEntity
  8
EXWALL
  6
CONTINUOUS
100
AcDbLine
 10
5350.968488900965
 20
18434.33229354201
 30
0.0
 11
5430.968488900965
 21
18434.33229354201
 31
0.0
  0
LINE
  5
32A
330
1F
100
AcDbEntity
  8
EXWALL
  6
CONTINUOUS
100
AcDbLine
 10
5438.968488900964
 20
18434.33229354201
 30
0.0
 11
5438.968488900965
 21
18456.33229354201
 31
0.0
  0
LINE
  5
32B
330
1F
100
AcDbEntity
  8
EXWALL
  6
CONTINUOUS
100
AcDbLine
 10
5458.968488900965
 20
18414.33229354201
 30
0.0
 11
5458.968488900965
 21
18818.33229354201
 31
0.0
  0
MTEXT
  5
32C
330
1F
100
AcDbEntity
  8
ARGRID
100
AcDbMText
 10
5848.235588327882
 20
17596.9157364698
 30
0.0
 40
15.12
 41
40.125
 71
     5
 72
     5
  1
5
  0
LWPOLYLINE
  5
32D
330
1F
100
AcDbEntity
  8
ARGRID
  6
CONTINUOUS
100
AcDbPolyline
 90
        3
 70
     1
 43
0.0
 10
5849.968488900965
 20
17561.20676408058
 10
5819.649506760211
 20
17613.72078158213
 10
5880.287471041715
 20
17613.72078158213
  0
MTEXT
  5
32E
330
1F
100
AcDbEntity
  8
ARGRID
100
AcDbMText
 10
6141.792288210975
 20
17544.40010197835
 30
0.0
 40
15.12
 41
40.125
 71
     5
 72
     5
  1
3A
  0
LWPOLYLINE
  5
32F
330
1F
100
AcDbEntity
  8
ARGRID
  6
CONTINUOUS
100
AcDbPolyline
 90
        3
 70
     1
 43
0.0
 10
6143.525188784061
 20
17508.69112958913
 10
6113.206206643304
 20
17561.20514709068
 10
6173.844170924812
 20
17561.20514709068
  0
MTEXT
  5
330
330
1F
100
AcDbEntity
  8
ARGRID
100
AcDbMText
 10
5956.735588327882
 20
17544.4157364698
 30
0.0
 40
15.12
 41
40.125
 71
     5
 72
     5
  1
4B
  0
LWPOLYLINE
  5
331
330
1F
100
AcDbEntity
  8
ARGRID
  6
CONTINUOUS
100
AcDbPolyline
 90
        3
 70
     1
 43
0.0
 10
5958.468488900965
 20
17508.70676408058
 10
5928.149506760211
 20
17561.22078158213
 10
5988.787471041714
 20
17561.22078158213
  0
LWPOLYLINE
  5
332
330
1F
100
AcDbEntity
  8
ARGRID
  6
CONTINUOUS
100
AcDbPolyline
 90
        3
 70
     1
 43
0.0
 10
6102.468488900963
 20
17561.20676408058
 10
6072.149506760213
 20
17613.72078158213
 10
6132.787471041714
 20
17613.72078158213
  0
MTEXT
  5
333
330
1F
100
AcDbEntity
  8
ARGRID
100
AcDbMText
 10
6100.735588327884
 20
17596.9157364698
 30
0.0
 40
15.12
 41
40.125
 71
     5
 72
     5
  1
4
  0
LINE
  5
334
330
1F
100
AcDbEntity
  8
EXWALL
  6
CONTINUOUS
100
AcDbLine
 10
5933.468488900963
 20
19313.70729354201
 30
0.0
 11
5596.468488900962
 21
19313.70729354201
 31
0.0
  0
HATCH
  5
335
330
1F
100
AcDbEntity
  8
EXROOF
100
AcDbHatch
 10
0.0
 20
0.0
 30
0.0
210
0.0
220
0.0
230
1.0
  2
AR-RROOF
 70
     0
 71
     0
 91
        3
 92
        1
 93
        4
 72
     1
 10
5849.468488900964
 20
18801.83229354202
 11
5952.468488900966
 21
18801.83229354202
 72
     1
 10
5952.468488900966
 20
18801.83229354202
 11
5952.468488900966
 21
18558.20729354201
 72
     1
 10
5952.468488900966
 20
18558.20729354201
 11
5849.468488900964
 21
18558.20729354201
 72
     1
 10
5849.468488900964
 20
18558.20729354201
 11
5849.468488900964
 21
18801.83229354202
 97
        0
 92
       16
 93
        4
 72
     1
 10
5864.837239084012
 20
18778.90031629696
 11
5936.812879574058
 21
18778.90031629696
 72
     1
 10
5936.812879574058
 20
18778.90031629696
 11
5936.812879574058
 21
18731.92644454504
 72
     1
 10
5936.812879574058
 20
18731.92644454504
 11
5864.837239084012
 21
18731.92644454504
 72
     1
 10
5864.837239084012
 20
18731.92644454504
 11
5864.837239084012
 21
18778.90031629696
 97
        0
 92
       16
 93
        1
 72
     2
 10
5900.968488900965
 20
18680.01979354201
 40
4.0
 50
0.0
 51
360.0
 73
     1
 97
        0
 75
     0
 76
     1
 52
45.0
 41
115.0
 77
     0
 78
     3
 53
45.0
 43
1768.499999999999
 44
0.0
 45
97.5807358037436
 46
260.2152954766495
 79
     4
 49
1725.0
 49
-230.0
 49
575.0
 49
-115.0
 53
45.0
 43
1835.993342264255
 44
148.8106221007089
 45
-189.4692620189354
 46
26.83470234602952
 79
     4
 49
345.0
 49
-37.95
 49
690.0
 49
-86.25
 53
45.0
 43
1740.038952057241
 44
109.7783277792115
 45
368.367277659132
 46
477.3324326399789
 79
     4
 49
920.0
 49
-161.0
 49
460.0
 49
-115.0
 98
        1
 10
1768.499999999999
 20
0.0
  0
TEXT
  5
336
330
1F
100
AcDbEntity
  8
EXROOF_TEXT
100
AcDbText
 10
5883.161321683221
 20
18738.05628854503
 30
0.0
 40
17.0
  1
004
  7
ARIAL_NARROW
 72
     1
 11
5899.4075699779
 21
18738.05628854503
 31
0.0
100
AcDbText
  0
TEXT
  5
337
330
1F
100
AcDbEntity
  8
EXROOF_TEXT
100
AcDbText
 10
5873.989215200542
 20
18757.87040213395
 30
0.0
 40
17.0
  1
ROOF
  7
ARIAL_NARROW
 72
     1
 11
5902.121548079123
 21
18757.87040213395
 31
0.0
100
AcDbText
  0
LWPOLYLINE
  5
338
330
1F
100
AcDbEntity
  8
EXROOF_TEXT
100
AcDbPolyline
 90
        4
 70
     1
 43
0.0
 10
5864.837239084012
 20
18778.90031629696
 10
5936.812879574058
 20
18778.90031629696
 10
5936.812879574058
 20
18731.92644454504
 10
5864.837239084012
 20
18731.92644454504
  0
LWPOLYLINE
  5
339
330
1F
100
AcDbEntity
  8
EXROOF
100
AcDbPolyline
 90
        4
 70
     1
 43
0.0
 10
5849.468488900964
 20
18801.83229354202
 10
5952.468488900966
 20
18801.83229354202
 10
5952.468488900966
 20
18558.20729354201
 10
5849.468488900964
 20
18558.20729354201
  0
LINE
  5
33A
330
1F
100
AcDbEntity
  8
EXWALL
  6
CONTINUOUS
100
AcDbLine
 10
5952.468488900965
 20
18801.83229354201
 30
0.0
 11
5849.468488900964
 21
18801.83229354201
 31
0.0
  0
LINE
  5
33B
330
1F
100
AcDbEntity
  8
EXWALL
100
AcDbLine
 10
5849.468488900964
 20
18558.20729354201
 30
0.0
 11
5952.468488900964
 21
18558.20729354201
 31
0.0
  0
LINE
  5
33C
330
1F
100
AcDbEntity
  8
EXWALL
  6
CONTINUOUS
100
AcDbLine
 10
5956.468488900964
 20
18805.83229354201
 30
0.0
 11
5845.468488900965
 21
18805.83229354201
 31
0.0
  0
LINE
  5
33D
330
1F
100
AcDbEntity
  8
EXWALL
100
AcDbLine
 10
5845.468488900964
 20
18554.20729354201
 30
0.0
 11
5956.468488900965
 21
18554.20729354201
 31
0.0
  0
LINE
  5
33E
330
1F
100
AcDbEntity
  8
EXWALL
  6
CONTINUOUS
100
AcDbLine
 10
5968.468488900964
 20
18817.83229354201
 30
0.0
 11
5833.468488900966
 21
18817.83229354201
 31
0.0
  0
LINE
  5
33F
330
1F
100
AcDbEntity
  8
EXWALL
100
AcDbLine
 10
5833.468488900965
 20
18542.20729354201
 30
0.0
 11
5968.468488900965
 21
18542.20729354201
 31
0.0
  0
HATCH
  5
340
330
1F
100
AcDbEntity
  8
EXROOF
100
AcDbHatch
 10
0.0
 20
0.0
 30
0.0
210
0.0
220
0.0
230
1.0
  2
AR-RROOF
 70
     0
 71
     1
 91
        4
 92
       16
 93
        4
 72
     1
 10
5669.081891525835
 20
19221.2732080433
 11
5765.049412179229
 21
19221.2732080433
 72
     1
 10
5765.049412179229
 20
19221.2732080433
 11
5765.049412179229
 21
19158.64137904073
 72
     1
 10
5765.049412179229
 20
19158.64137904073
 11
5669.081891525835
 21
19158.64137904073
 72
     1
 10
5669.081891525835
 20
19158.64137904073
 11
5669.081891525835
 21
19221.2732080433
 97
        1
330
34B
 92
       16
 93
        1
 72
     2
 10
5849.718242109255
 20
19189.83513164666
 40
4.0
 50
0.0
 51
360.0
 73
     1
 97
        1
330
34D
 92
       16
 93
        1
 72
     2
 10
6018.468488900963
 20
19439.95729354201
 40
4.0
 50
0.0
 51
360.0
 73
     1
 97
        1
330
35F
 92
        1
 93
        6
 72
     1
 10
5596.468488900962
 20
19313.70729354201
 11
5933.468488900963
 21
19313.70729354201
 72
     1
 10
5933.468488900963
 20
19313.70729354201
 11
5933.468488900963
 21
19566.20729354201
 72
     1
 10
5933.468488900963
 20
19566.20729354201
 11
6036.968488900964
 21
19566.20729354201
 72
     1
 10
6036.968488900964
 20
19566.20729354201
 11
6036.96848890096
 21
19066.20729354201
 72
     1
 10
6036.96848890096
 20
19066.20729354201
 11
5596.468488900961
 21
19066.20729354202
 72
     1
 10
5596.468488900961
 20
19066.20729354202
 11
5596.468488900962
 21
19313.70729354201
 97
        1
330
341
 75
     0
 76
     1
 52
45.0
 41
115.0
 77
     0
 78
     3
 53
45.0
 43
0.0
 44
0.0
 45
97.5807358037436
 46
260.2152954766495
 79
     4
 49
1725.0
 49
-230.0
 49
575.0
 49
-115.0
 53
45.0
 43
67.493342264256
 44
148.8106221007089
 45
-189.4692620189354
 46
26.83470234602952
 79
     4
 49
345.0
 49
-37.95
 49
690.0
 49
-86.25
 53
45.0
 43
-28.46104794275853
 44
109.7783277792115
 45
368.367277659132
 46
477.3324326399789
 79
     4
 49
920.0
 49
-161.0
 49
460.0
 49
-115.0
 98
        1
 10
0.0
 20
0.0
  0
LWPOLYLINE
  5
341
102
{ACAD_REACTORS
330
340
102
}
330
1F
100
AcDbEntity
  8
EXROOF
100
AcDbPolyline
 90
        7
 70
     0
 43
0.0
 10
5596.468488900962
 20
19313.70729354201
 10
5933.468488900963
 20
19313.70729354201
 10
5933.468488900963
 20
19566.20729354201
 10
6036.968488900964
 20
19566.20729354201
 10
6036.96848890096
 20
19066.20729354201
 10
5596.468488900961
 20
19066.20729354202
 10
5596.468488900962
 20
19313.70729354201
  0
LINE
  5
342
330
1F
100
AcDbEntity
  8
EXWALL
  6
CONTINUOUS
100
AcDbLine
 10
6036.968488900964
 20
19066.20729354201
 30
0.0
 11
5857.968488900963
 21
19066.20729354201
 31
0.0
  0
LINE
  5
343
330
1F
100
AcDbEntity
  8
EXWALL
  6
CONTINUOUS
100
AcDbLine
 10
6040.968488900964
 20
19062.20729354201
 30
0.0
 11
5857.968488900963
 21
19062.20729354201
 31
0.0
  0
LWPOLYLINE
  5
344
330
1F
100
AcDbEntity
  8
EXROOF
100
AcDbPolyline
 90
        7
 70
     0
 43
0.0
 10
5933.468488900963
 20
19566.20729354201
 10
6036.968488900964
 20
19566.20729354201
 10
6036.968488900964
 20
19066.20729354201
 10
5596.468488900961
 20
19066.20729354202
 10
5596.468488900962
 20
19313.70729354201
 10
5933.468488900963
 20
19313.70729354201
 10
5933.468488900963
 20
19566.20729354201
  0
LINE
  5
345
330
1F
100
AcDbEntity
  8
EXWALL
  6
CONTINUOUS
100
AcDbLine
 10
5596.46848890096
 20
19066.20729354201
 30
0.0
 11
5596.468488900962
 21
19313.70729354201
 31
0.0
  0
LINE
  5
346
330
1F
100
AcDbEntity
  8
EXWALL
  6
CONTINUOUS
100
AcDbLine
 10
5857.968488900963
 20
19066.20729354201
 30
0.0
 11
5596.46848890096
 21
19066.20729354201
 31
0.0
  0
LINE
  5
347
330
1F
100
AcDbEntity
  8
EXWALL
100
AcDbLine
 10
5849.468488900965
 20
18558.20729354201
 30
0.0
 11
5849.468488900966
 21
18801.83229354201
 31
0.0
  0
LINE
  5
348
330
1F
100
AcDbEntity
  8
EXWALL
100
AcDbLine
 10
5845.468488900964
 20
18554.20729354201
 30
0.0
 11
5845.468488900965
 21
18805.83229354201
 31
0.0
  0
LINE
  5
349
330
1F
100
AcDbEntity
  8
EXWALL
100
AcDbLine
 10
5833.468488900965
 20
18542.20729354201
 30
0.0
 11
5833.468488900966
 21
18817.83229354201
 31
0.0
  0
TEXT
  5
34A
330
1F
100
AcDbEntity
  8
EXROOF_TEXT
100
AcDbText
 10
5679.078068867202
 20
19193.23332249261
 30
0.0
 40
24.0
  1
ROOF
  7
ARIAL_NARROW
 72
     1
 11
5718.794303519317
 21
19193.23332249261
 31
0.0
100
AcDbText
  0
LWPOLYLINE
  5
34B
102
{ACAD_REACTORS
330
340
102
}
330
1F
100
AcDbEntity
  8
EXROOF_TEXT
100
AcDbPolyline
 90
        4
 70
     1
 43
0.0
 10
5669.081891525835
 20
19221.2732080433
 10
5765.049412179229
 20
19221.2732080433
 10
5765.049412179229
 20
19158.64137904073
 10
5669.081891525835
 20
19158.64137904073
  0
TEXT
  5
34C
330
1F
100
AcDbEntity
  8
EXROOF_TEXT
100
AcDbText
 10
5692.239786105591
 20
19166.81450437406
 30
0.0
 40
24.0
  1
003
  7
ARIAL_NARROW
 72
     1
 11
5715.17566605102
 21
19166.81450437406
 31
0.0
100
AcDbText
  0
CIRCLE
  5
34D
102
{ACAD_REACTORS
330
340
102
}
330
1F
100
AcDbEntity
  8
EXWALL
100
AcDbCircle
 10
5849.718242109255
 20
19189.83513164666
 30
0.0
 40
4.0
  0
HATCH
  5
34E
330
1F
100
AcDbEntity
  8
EXROOF
100
AcDbHatch
 10
0.0
 20
0.0
 30
0.0
210
0.0
220
0.0
230
1.0
  2
STEEL
 70
     0
 71
     1
 91
        1
 92
        1
 93
        4
 72
     1
 10
6052.968488900964
 20
19570.20729354201
 11
6107.468488900964
 21
19570.20729354201
 72
     1
 10
6107.468488900964
 20
19570.20729354201
 11
6107.468488900964
 21
19062.20729354201
 72
     1
 10
6107.468488900964
 20
19062.20729354201
 11
6052.968488900964
 21
19062.20729354201
 72
     1
 10
6052.968488900964
 20
19062.20729354201
 11
6052.968488900964
 21
19570.20729354201
 97
        1
330
34F
 75
     0
 76
     1
 52
135.0
 41
200.0
 77
     0
 78
     2
 53
180.0
 43
0.0
 44
0.0
 45
-0.0000000000000053
 46
-25.0
 79
     0
 53
180.0
 43
-8.838834764831844
 44
-8.838834764831843
 45
-0.0000000000000053
 46
-25.0
 79
     0
 98
        1
 10
0.0
 20
0.0
  0
LWPOLYLINE
  5
34F
102
{ACAD_REACTORS
330
34E
102
}
330
1F
100
AcDbEntity
  8
EXROOF
100
AcDbPolyline
 90
        4
 70
     1
 43
0.0
 10
6052.968488900964
 20
19570.20729354201
 10
6107.468488900964
 20
19570.20729354201
 10
6107.468488900964
 20
19062.20729354201
 10
6052.968488900964
 20
19062.20729354201
  0
LINE
  5
350
330
1F
100
AcDbEntity
  8
EXWALL
100
AcDbLine
 10
6119.468488900963
 20
19050.20729354201
 30
0.0
 11
6119.468488900963
 21
19582.20729354201
 31
0.0
  0
LINE
  5
351
330
1F
100
AcDbEntity
  8
EXWALL
100
AcDbLine
 10
6107.468488900964
 20
19062.20729354201
 30
0.0
 11
6107.468488900963
 21
19570.20729354201
 31
0.0
  0
LINE
  5
352
330
1F
100
AcDbEntity
  8
EXWALL
100
AcDbLine
 10
6036.968488900964
 20
19066.20729354201
 30
0.0
 11
6036.968488900964
 21
19566.20729354201
 31
0.0
  0
LINE
  5
353
330
1F
100
AcDbEntity
  8
EXWALL
100
AcDbLine
 10
6040.968488900964
 20
19062.20729354201
 30
0.0
 11
6040.968488900964
 21
19570.20729354201
 31
0.0
  0
LINE
  5
354
330
1F
100
AcDbEntity
  8
EXWALL
100
AcDbLine
 10
6052.968488900964
 20
19062.20729354201
 30
0.0
 11
6052.968488900964
 21
19570.20729354201
 31
0.0
  0
LINE
  5
355
330
1F
100
AcDbEntity
  8
EXWALL
  6
CONTINUOUS
100
AcDbLine
 10
6119.468488900963
 20
19050.20729354201
 30
0.0
 11
5895.968488900963
 21
19050.20729354201
 31
0.0
  0
LINE
  5
356
330
1F
100
AcDbEntity
  8
EXWALL
  6
CONTINUOUS
100
AcDbLine
 10
5952.468488900964
 20
18558.20729354201
 30
0.0
 11
5952.468488900965
 21
18801.83229354201
 31
0.0
  0
LINE
  5
357
330
1F
100
AcDbEntity
  8
EXWALL
  6
CONTINUOUS
100
AcDbLine
 10
5956.468488900965
 20
18554.20729354201
 30
0.0
 11
5956.468488900964
 21
18805.83229354201
 31
0.0
  0
LINE
  5
358
330
1F
100
AcDbEntity
  8
EXWALL
  6
CONTINUOUS
100
AcDbLine
 10
5968.468488900965
 20
18542.20729354201
 30
0.0
 11
5968.468488900964
 21
18817.83229354201
 31
0.0
  0
CIRCLE
  5
359
330
1F
100
AcDbEntity
  8
EXWALL
100
AcDbCircle
 10
5900.968488900965
 20
18680.01979354201
 30
0.0
 40
4.0
  0
LINE
  5
35A
330
1F
100
AcDbEntity
  8
EXWALL
100
AcDbLine
 10
6052.968488900964
 20
19062.20729354201
 30
0.0
 11
6107.468488900963
 21
19062.20729354201
 31
0.0
  0
LINE
  5
35B
330
1F
100
AcDbEntity
  8
EXWALL
100
AcDbLine
 10
5917.468488900963
 20
19582.20729354201
 30
0.0
 11
6119.468488900963
 21
19582.20729354201
 31
0.0
  0
LINE
  5
35C
330
1F
100
AcDbEntity
  8
EXWALL
  6
CONTINUOUS
100
AcDbLine
 10
5929.468488900963
 20
19317.70729354201
 30
0.0
 11
5929.468488900963
 21
19570.20729354201
 31
0.0
  0
LINE
  5
35D
330
1F
100
AcDbEntity
  8
EXWALL
  6
CONTINUOUS
100
AcDbLine
 10
5933.468488900963
 20
19313.70729354201
 30
0.0
 11
5933.468488900963
 21
19566.20729354201
 31
0.0
  0
LINE
  5
35E
330
1F
100
AcDbEntity
  8
EXWALL
  6
CONTINUOUS
100
AcDbLine
 10
5917.468488900963
 20
19329.70729354201
 30
0.0
 11
5917.468488900963
 21
19582.20729354201
 31
0.0
  0
CIRCLE
  5
35F
102
{ACAD_REACTORS
330
340
102
}
330
1F
100
AcDbEntity
  8
EXWALL
100
AcDbCircle
 10
6018.468488900963
 20
19439.95729354201
 30
0.0
 40
4.0
  0
LINE
  5
360
330
1F
100
AcDbEntity
  8
EXWALL
100
AcDbLine
 10
5929.468488900963
 20
19570.20729354201
 30
0.0
 11
6040.968488900964
 21
19570.20729354201
 31
0.0
  0
LINE
  5
361
330
1F
100
AcDbEntity
  8
EXWALL
100
AcDbLine
 10
5933.468488900963
 20
19566.20729354201
 30
0.0
 11
6036.968488900964
 21
19566.20729354201
 31
0.0
  0
LEADER
  5
362
330
1F
100
AcDbEntity
  8
EXROOF_TEXT
100
AcDbLeader
  3
STANDARD
 76
     3
 10
6107.504943524514
 20
19316.20729354201
 30
0.0
 10
6140.451164975838
 20
19332.85895820735
 30
0.0
 10
6154.922974786226
 20
19332.85895820735
 30
0.0
211
-1.0
221
0.0
231
0.0
210
0.0
220
0.0
230
-1.0
1001
ACAD
1000
DSTYLE
1002
{
1070
     5
1000

1070
   147
1040
0.09
1070
    77
1070
     0
1070
    40
1040
96.0
1002
}
  0
LINE
  5
363
330
1F
100
AcDbEntity
  8
EXWALL
100
AcDbLine
 10
6052.968488900964
 20
19570.20729354201
 30
0.0
 11
6107.468488900963
 21
19570.20729354201
 31
0.0
  0
MTEXT
  5
364
330
1F
100
AcDbEntity
  8
ARGRID
100
AcDbMText
 10
5595.735588327882
 20
20589.67677456502
 30
0.0
 40
15.12
 41
40.125
 71
     5
 72
     5
  1
6
  0
LWPOLYLINE
  5
365
330
1F
100
AcDbEntity
  8
ARGRID
  6
CONTINUOUS
100
AcDbPolyline
 90
        3
 70
     1
 43
0.0
 10
5597.468488900965
 20
20553.96780217579
 10
5567.149506760211
 20
20606.48181967734
 10
5627.787471041715
 20
20606.48181967734
  0
LWPOLYLINE
  5
366
330
1F
100
AcDbEntity
  8
ARGRID
  6
CONTINUOUS
100
AcDbPolyline
 90
        3
 70
     1
 43
0.0
 10
5092.468488900965
 20
20553.96780217579
 10
5062.149506760211
 20
20606.48181967734
 10
5122.787471041715
 20
20606.48181967734
  0
MTEXT
  5
367
330
1F
100
AcDbEntity
  8
ARGRID
100
AcDbMText
 10
5090.735588327882
 20
20589.67677456502
 30
0.0
 40
15.12
 41
40.125
 71
     5
 72
     5
  1
8
  0
LWPOLYLINE
  5
368
330
1F
100
AcDbEntity
  8
ARGRID
  6
CONTINUOUS
100
AcDbPolyline
 90
        3
 70
     1
 43
0.0
 10
5466.279929558556
 20
20501.46361292643
 10
5435.960947417802
 20
20553.97763042798
 10
5496.598911699307
 20
20553.97763042798
  0
LINE
  5
369
330
1F
100
AcDbEntity
  8
ARGRID
  6
CONTINUOUS
100
AcDbLine
 10
5466.279929558556
 20
20501.46361292643
 30
0.0
 11
5435.968488900965
 21
20471.15217226884
 31
0.0
  0
LWPOLYLINE
  5
36A
330
1F
100
AcDbEntity
  8
ARGRID
  6
CONTINUOUS
100
AcDbPolyline
 90
        3
 70
     1
 43
0.0
 10
5344.968488900965
 20
20553.96780217579
 10
5314.649506760211
 20
20606.48181967734
 10
5375.287471041715
 20
20606.48181967734
  0
LWPOLYLINE
  5
36B
330
1F
100
AcDbEntity
  8
ARGRID
  6
CONTINUOUS
100
AcDbPolyline
 90
        3
 70
     1
 43
0.0
 10
5395.468488900961
 20
20501.46780217579
 10
5365.149506760207
 20
20553.98181967734
 10
5425.787471041712
 20
20553.98181967734
  0
MTEXT
  5
36C
330
1F
100
AcDbEntity
  8
ARGRID
100
AcDbMText
 10
5343.235588327882
 20
20589.67677456502
 30
0.0
 40
15.12
 41
40.125
 71
     5
 72
     5
  1
7
  0
MTEXT
  5
36D
330
1F
100
AcDbEntity
  8
ARGRID
100
AcDbMText
 10
5393.735588327879
 20
20537.17677456502
 30
0.0
 40
15.12
 41
40.125
 71
     5
 72
     5
  1
6C
  0
MTEXT
  5
36E
330
1F
100
AcDbEntity
  8
ARGRID
100
AcDbMText
 10
5464.547028985474
 20
20537.17258531566
 30
0.0
 40
15.12
 41
40.125
 71
     5
 72
     5
  1
6B
  0
MTEXT
  5
36F
330
1F
100
AcDbEntity
  8
ARGRID
100
AcDbMText
 10
5848.235588327882
 20
20589.67677456502
 30
0.0
 40
15.12
 41
40.125
 71
     5
 72
     5
  1
5
  0
LWPOLYLINE
  5
370
330
1F
100
AcDbEntity
  8
ARGRID
  6
CONTINUOUS
100
AcDbPolyline
 90
        3
 70
     1
 43
0.0
 10
5849.968488900965
 20
20553.96780217579
 10
5819.649506760211
 20
20606.48181967734
 10
5880.287471041715
 20
20606.48181967734
  0
MTEXT
  5
371
330
1F
100
AcDbEntity
  8
ARGRID
100
AcDbMText
 10
5956.735588327882
 20
20537.17677456502
 30
0.0
 40
15.12
 41
40.125
 71
     5
 72
     5
  1
4B
  0
LWPOLYLINE
  5
372
330
1F
100
AcDbEntity
  8
ARGRID
  6
CONTINUOUS
100
AcDbPolyline
 90
        3
 70
     1
 43
0.0
 10
5958.468488900965
 20
20501.46780217579
 10
5928.149506760211
 20
20553.98181967734
 10
5988.787471041714
 20
20553.98181967734
  0
LWPOLYLINE
  5
373
330
1F
100
AcDbEntity
  8
ARGRID
  6
CONTINUOUS
100
AcDbPolyline
 90
        3
 70
     1
 43
0.0
 10
6102.468488900963
 20
20553.96780217579
 10
6072.149506760213
 20
20606.48181967734
 10
6132.787471041714
 20
20606.48181967734
  0
LWPOLYLINE
  5
374
330
1F
100
AcDbEntity
  8
ARGRID
  6
CONTINUOUS
100
AcDbPolyline
 90
        3
 70
     1
 43
0.0
 10
6143.525188784061
 20
20501.45216768434
 10
6113.206206643304
 20
20553.96618518589
 10
6173.844170924812
 20
20553.96618518589
  0
LINE
  5
375
330
1F
100
AcDbEntity
  8
ARGRID
100
AcDbLine
 10
6143.525188784061
 20
20501.45216768434
 30
0.0
 11
6113.218488900963
 21
20471.14546780124
 31
0.0
  0
MTEXT
  5
376
330
1F
100
AcDbEntity
  8
ARGRID
100
AcDbMText
 10
6100.735588327884
 20
20589.67677456502
 30
0.0
 40
15.12
 41
40.125
 71
     5
 72
     5
  1
4
  0
MTEXT
  5
377
330
1F
100
AcDbEntity
  8
ARGRID
100
AcDbMText
 10
6141.792288210975
 20
20537.16114007357
 30
0.0
 40
15.12
 41
40.125
 71
     5
 72
     5
  1
3A
  0
LINE
  5
378
330
1F
100
AcDbEntity
  8
ARGRID
100
AcDbLine
 10
6859.968488900963
 20
20553.96780217579
 30
0.0
 11
6859.968488900963
 21
17613.72078158213
 31
0.0
  0
LINE
  5
379
330
1F
100
AcDbEntity
  8
ARGRID
100
AcDbLine
 10
6859.968488900963
 20
20553.96780217579
 30
0.0
 11
6859.968488900963
 21
17613.72078158213
 31
0.0
  0
LINE
  5
37A
330
1F
100
AcDbEntity
  8
ARGRID
100
AcDbLine
 10
6978.468488900963
 20
20501.46780217579
 30
0.0
 11
6978.468488900963
 21
17613.72078158213
 31
0.0
  0
LINE
  5
37B
330
1F
100
AcDbEntity
  8
ARGRID
100
AcDbLine
 10
6978.468488900963
 20
20471.15691304333
 30
0.0
 11
6978.468488900963
 21
17613.72078158213
 31
0.0
  0
LINE
  5
37C
330
1F
100
AcDbEntity
  8
ARGRID
100
AcDbLine
 10
6547.468488900963
 20
20553.96780217579
 30
0.0
 11
6547.468488900963
 21
17613.72078158213
 31
0.0
  0
LINE
  5
37D
330
1F
100
AcDbEntity
  8
ARGRID
100
AcDbLine
 10
6354.968488900963
 20
20553.96780217579
 30
0.0
 11
6354.968488900963
 21
17613.72078158213
 31
0.0
  0
LINE
  5
37E
330
1F
100
AcDbEntity
  8
ARGRID
100
AcDbLine
 10
6607.468488900963
 20
20553.96780217579
 30
0.0
 11
6607.468488900963
 21
17613.72078158213
 31
0.0
  0
LWPOLYLINE
  5
37F
330
1F
100
AcDbEntity
  8
ARGRID
  6
CONTINUOUS
100
AcDbPolyline
 90
        3
 70
     1
 43
0.0
 10
6354.968488900963
 20
17561.20676408058
 10
6324.649506760213
 20
17613.72078158213
 10
6385.287471041714
 20
17613.72078158213
  0
MTEXT
  5
380
330
1F
100
AcDbEntity
  8
ARGRID
100
AcDbMText
 10
6353.235588327884
 20
17596.9157364698
 30
0.0
 40
15.12
 41
40.125
 71
     5
 72
     5
  1
3
  0
LWPOLYLINE
  5
381
330
1F
100
AcDbEntity
  8
ARGRID
  6
CONTINUOUS
100
AcDbPolyline
 90
        3
 70
     1
 43
0.0
 10
6607.468488900963
 20
17561.20676408058
 10
6577.149506760213
 20
17613.72078158213
 10
6637.787471041714
 20
17613.72078158213
  0
MTEXT
  5
382
330
1F
100
AcDbEntity
  8
ARGRID
100
AcDbMText
 10
6605.735588327884
 20
17596.9157364698
 30
0.0
 40
15.12
 41
40.125
 71
     5
 72
     5
  1
2
  0
MTEXT
  5
383
330
1F
100
AcDbEntity
  8
ARGRID
100
AcDbMText
 10
6976.735588327884
 20
17544.4157364698
 30
0.0
 40
15.12
 41
40.125
 71
     5
 72
     5
  1
1A
  0
LWPOLYLINE
  5
384
330
1F
100
AcDbEntity
  8
ARGRID
  6
CONTINUOUS
100
AcDbPolyline
 90
        3
 70
     1
 43
0.0
 10
6978.468488900963
 20
17508.70676408058
 10
6948.149506760213
 20
17561.22078158213
 10
7008.787471041714
 20
17561.22078158213
  0
MTEXT
  5
385
330
1F
100
AcDbEntity
  8
ARGRID
100
AcDbMText
 10
6858.235588327884
 20
17596.9157364698
 30
0.0
 40
15.12
 41
40.125
 71
     5
 72
     5
  1
1
  0
LWPOLYLINE
  5
386
330
1F
100
AcDbEntity
  8
ARGRID
  6
CONTINUOUS
100
AcDbPolyline
 90
        3
 70
     1
 43
0.0
 10
6859.968488900963
 20
17561.20676408058
 10
6829.649506760213
 20
17613.72078158213
 10
6890.287471041714
 20
17613.72078158213
  0
LWPOLYLINE
  5
387
330
1F
100
AcDbEntity
  8
ARGRID
  6
CONTINUOUS
100
AcDbPolyline
 90
        3
 70
     1
 43
0.0
 10
6354.968488900963
 20
20553.96780217579
 10
6324.649506760213
 20
20606.48181967734
 10
6385.287471041714
 20
20606.48181967734
  0
MTEXT
  5
388
330
1F
100
AcDbEntity
  8
ARGRID
100
AcDbMText
 10
6353.235588327884
 20
20589.67677456502
 30
0.0
 40
15.12
 41
40.125
 71
     5
 72
     5
  1
3
  0
LWPOLYLINE
  5
389
330
1F
100
AcDbEntity
  8
ARGRID
  6
CONTINUOUS
100
AcDbPolyline
 90
        3
 70
     1
 43
0.0
 10
6607.468488900963
 20
20553.96780217579
 10
6577.149506760213
 20
20606.48181967734
 10
6637.787471041714
 20
20606.48181967734
  0
MTEXT
  5
38A
330
1F
100
AcDbEntity
  8
ARGRID
100
AcDbMText
 10
6605.735588327884
 20
20589.67677456502
 30
0.0
 40
15.12
 41
40.125
 71
     5
 72
     5
  1
2
  0
MTEXT
  5
38B
330
1F
100
AcDbEntity
  8
ARGRID
100
AcDbMText
 10
6858.235588327884
 20
20589.67677456502
 30
0.0
 40
15.12
 41
40.125
 71
     5
 72
     5
  1
1
  0
LWPOLYLINE
  5
38C
330
1F
100
AcDbEntity
  8
ARGRID
  6
CONTINUOUS
100
AcDbPolyline
 90
        3
 70
     1
 43
0.0
 10
6859.968488900963
 20
20553.96780217579
 10
6829.649506760213
 20
20606.48181967734
 10
6890.287471041714
 20
20606.48181967734
  0
MTEXT
  5
38D
330
1F
100
AcDbEntity
  8
ARGRID
100
AcDbMText
 10
6976.735588327884
 20
20537.17677456502
 30
0.0
 40
15.12
 41
40.125
 71
     5
 72
     5
  1
1A
  0
LWPOLYLINE
  5
38E
330
1F
100
AcDbEntity
  8
ARGRID
  6
CONTINUOUS
100
AcDbPolyline
 90
        3
 70
     1
 43
0.0
 10
6978.468488900963
 20
20501.46780217579
 10
6948.149506760213
 20
20553.98181967734
 10
7008.787471041714
 20
20553.98181967734
  0
LWPOLYLINE
  5
38F
330
1F
100
AcDbEntity
  8
ARGRID
  6
CONTINUOUS
100
AcDbPolyline
 90
        3
 70
     1
 43
0.0
 10
7514.687967044662
 20
18275.88831140126
 10
7567.201984546217
 20
18245.56932926051
 10
7567.201984546217
 20
18306.20729354201
  0
LWPOLYLINE
  5
390
330
1F
100
AcDbEntity
  8
ARGRID
  6
CONTINUOUS
100
AcDbPolyline
 90
        3
 70
     1
 43
0.0
 10
7514.701984546217
 20
18154.99547584655
 10
7567.216002047772
 20
18124.6764937058
 10
7567.216002047772
 20
18185.3144579873
  0
LWPOLYLINE
  5
391
330
1F
100
AcDbEntity
  8
ARGRID
  6
CONTINUOUS
100
AcDbPolyline
 90
        3
 70
     1
 43
0.0
 10
7514.701984546217
 20
18215.25844012805
 10
7567.216002047772
 20
18184.9394579873
 10
7567.216002047772
 20
18245.57742226881
  0
LINE
  5
392
330
1F
100
AcDbEntity
  8
ARGRID
  6
CONTINUOUS
100
AcDbLine
 10
7514.701984546217
 20
18215.25844012805
 30
0.0
 11
7492.900837960177
 21
18193.45729354201
 31
0.0
  0
LINE
  5
393
330
1F
100
AcDbEntity
  8
ARGRID
  6
CONTINUOUS
100
AcDbLine
 10
7514.687967044662
 20
18275.88831140126
 30
0.0
 11
7462.006949185413
 21
18223.20729354201
 31
0.0
  0
LINE
  5
394
330
1F
100
AcDbEntity
  8
ARGRID
  6
CONTINUOUS
100
AcDbLine
 10
7514.701984546217
 20
18154.99547584655
 30
0.0
 11
7491.615166850756
 21
18178.08229354201
 31
0.0
  0
MTEXT
  5
395
330
1F
100
AcDbEntity
  8
ARGRID
100
AcDbMText
 10
7602.910956935445
 20
18307.94019411509
 30
0.0
 40
15.12
 41
40.125
 71
     5
 72
     5
  1
G
 11
-6.123031769111886E-17
 21
-1.0
 31
0.0
  0
LWPOLYLINE
  5
396
330
1F
100
AcDbEntity
  8
ARGRID
  6
CONTINUOUS
100
AcDbPolyline
 90
        3
 70
     1
 43
0.0
 10
7567.201984546217
 20
18306.20729354201
 10
7619.716002047772
 20
18275.88831140126
 10
7619.716002047772
 20
18336.52627568277
  0
MTEXT
  5
397
330
1F
100
AcDbEntity
  8
ARGRID
100
AcDbMText
 10
7550.39693943389
 20
18277.62121197434
 30
0.0
 40
15.12
 41
40.125
 71
     5
 72
     5
  1
G1
 11
-6.123031769111886E-17
 21
-1.0
 31
0.0
  0
MTEXT
  5
398
330
1F
100
AcDbEntity
  8
ARGRID
100
AcDbMText
 10
7550.410956935445
 20
18156.72837641963
 30
0.0
 40
15.12
 41
40.125
 71
     5
 72
     5
  1
G3
 11
-6.123031769111886E-17
 21
-1.0
 31
0.0
  0
MTEXT
  5
399
330
1F
100
AcDbEntity
  8
ARGRID
100
AcDbMText
 10
7550.410956935445
 20
18216.99134070113
 30
0.0
 40
15.12
 41
40.125
 71
     5
 72
     5
  1
G2
 11
-3.061515884555943E-16
 21
-1.0
 31
0.0
  0
LWPOLYLINE
  5
39A
330
1F
100
AcDbEntity
  8
ARGRID
  6
CONTINUOUS
100
AcDbPolyline
 90
        3
 70
     1
 43
0.0
 10
7514.701984546217
 20
19178.82907180693
 10
7567.216002047772
 20
19148.51008966618
 10
7567.216002047772
 20
19209.14805394768
  0
LINE
  5
39B
330
1F
100
AcDbEntity
  8
ARGRID
  6
CONTINUOUS
100
AcDbLine
 10
7514.701984546217
 20
19178.82907180693
 30
0.0
 11
7471.830206281306
 21
19135.95729354201
 31
0.0
  0
LWPOLYLINE
  5
39C
330
1F
100
AcDbEntity
  8
ARGRID
  6
CONTINUOUS
100
AcDbPolyline
 90
        3
 70
     1
 43
0.0
 10
7514.701984546217
 20
19118.20729354201
 10
7567.216002047772
 20
19087.88831140126
 10
7567.216002047772
 20
19148.52627568277
  0
LWPOLYLINE
  5
39D
330
1F
100
AcDbEntity
  8
ARGRID
  6
CONTINUOUS
100
AcDbPolyline
 90
        3
 70
     1
 43
0.0
 10
7514.701984546217
 20
18917.33229354201
 10
7567.216002047772
 20
18887.01331140126
 10
7567.216002047772
 20
18947.65127568277
  0
LWPOLYLINE
  5
39E
330
1F
100
AcDbEntity
  8
ARGRID
  6
CONTINUOUS
100
AcDbPolyline
 90
        3
 70
     1
 43
0.0
 10
7514.687967044662
 20
18780.88831140126
 10
7567.201984546217
 20
18750.56932926051
 10
7567.201984546217
 20
18811.20729354201
  0
LWPOLYLINE
  5
39F
330
1F
100
AcDbEntity
  8
ARGRID
  6
CONTINUOUS
100
AcDbPolyline
 90
        3
 70
     1
 43
0.0
 10
7514.687967044662
 20
18720.25034711976
 10
7567.201984546217
 20
18689.93136497901
 10
7567.201984546217
 20
18750.56932926051
  0
LINE
  5
3A0
330
1F
100
AcDbEntity
  8
ARGRID
  6
CONTINUOUS
100
AcDbLine
 10
7514.697795296856
 20
18720.25788860292
 30
0.0
 11
7439.748390357764
 21
18795.20729354201
 31
0.0
  0
LINE
  5
3A1
330
1F
100
AcDbEntity
  8
ARGRID
  6
CONTINUOUS
100
AcDbLine
 10
7514.686350054767
 20
18780.90059365892
 30
0.0
 11
7492.379650171669
 21
18803.20729354201
 31
0.0
  0
MTEXT
  5
3A2
330
1F
100
AcDbEntity
  8
ARGRID
100
AcDbMText
 10
7602.910956935445
 20
18560.44019411509
 30
0.0
 40
15.12
 41
40.125
 71
     5
 72
     5
  1
F
 11
-6.123031769111886E-17
 21
-1.0
 31
0.0
  0
LWPOLYLINE
  5
3A3
330
1F
100
AcDbEntity
  8
ARGRID
  6
CONTINUOUS
100
AcDbPolyline
 90
        3
 70
     1
 43
0.0
 10
7567.201984546217
 20
18558.70729354201
 10
7619.716002047772
 20
18528.38831140126
 10
7619.716002047772
 20
18589.02627568277
  0
MTEXT
  5
3A4
330
1F
100
AcDbEntity
  8
ARGRID
100
AcDbMText
 10
7550.239974557274
 20
18721.55497575691
 30
0.0
 40
15.12
 41
40.125
 71
     5
 72
     5
  1
E2
 11
-3.061515884555943E-16
 21
-1.0
 31
0.0
  0
MTEXT
  5
3A5
330
1F
100
AcDbEntity
  8
ARGRID
100
AcDbMText
 10
7602.910956935445
 20
19061.97439296893
 30
0.0
 40
15.12
 41
40.125
 71
     5
 72
     5
  1
D
210
0.0
220
0.0
230
-1.0
 11
1.836909530733566E-16
 21
-1.0
 31
0.0
  0
LWPOLYLINE
  5
3A6
330
1F
100
AcDbEntity
  8
ARGRID
  6
CONTINUOUS
100
AcDbPolyline
 90
        3
 70
     1
 43
0.0
 10
7567.201984546217
 20
19063.70729354201
 10
7619.716002047772
 20
19033.38831140126
 10
7619.716002047772
 20
19094.02627568277
  0
MTEXT
  5
3A7
330
1F
100
AcDbEntity
  8
ARGRID
100
AcDbMText
 10
7602.910956935445
 20
18809.47439296894
 30
0.0
 40
15.12
 41
40.125
 71
     5
 72
     5
  1
E
210
0.0
220
0.0
230
-1.0
 11
1.836909530733566E-16
 21
-1.0
 31
0.0
  0
LWPOLYLINE
  5
3A8
330
1F
100
AcDbEntity
  8
ARGRID
  6
CONTINUOUS
100
AcDbPolyline
 90
        3
 70
     1
 43
0.0
 10
7567.201984546217
 20
18811.20729354201
 10
7619.716002047772
 20
18780.88831140126
 10
7619.716002047772
 20
18841.52627568277
  0
MTEXT
  5
3A9
330
1F
100
AcDbEntity
  8
ARGRID
100
AcDbMText
 10
7550.410956935445
 20
19119.94019411509
 30
0.0
 40
15.12
 41
40.125
 71
     5
 72
     5
  1
C3
 11
-3.061515884555943E-16
 21
-1.0
 31
0.0
  0
MTEXT
  5
3AA
330
1F
100
AcDbEntity
  8
ARGRID
100
AcDbMText
 10
7551.703386053302
 20
18919.17152444993
 30
0.0
 40
15.12
 41
40.125
 71
     5
 72
     5
  1
D2
 11
1.382835172531311E-13
 21
-1.0
 31
0.0
  0
MTEXT
  5
3AB
330
1F
100
AcDbEntity
  8
ARGRID
100
AcDbMText
 10
7553.350606412886
 20
18781.23782044004
 30
0.0
 40
15.12
 41
40.125
 71
     5
 72
     5
  1
E1
 11
-1.386139055908787E-13
 21
-1.0
 31
0.0
  0
LWPOLYLINE
  5
3AC
330
1F
100
AcDbEntity
  8
ARGRID
  6
CONTINUOUS
100
AcDbPolyline
 90
        3
 70
     1
 43
0.0
 10
7514.701984546217
 20
19243.59525782352
 10
7567.216002047772
 20
19213.27627568277
 10
7567.216002047772
 20
19273.91423996427
  0
LINE
  5
3AD
330
1F
100
AcDbEntity
  8
ARGRID
  6
CONTINUOUS
100
AcDbLine
 10
7514.701984546217
 20
19243.59525782352
 30
0.0
 11
7454.064020264709
 21
19182.95729354201
 31
0.0
  0
LWPOLYLINE
  5
3AE
330
1F
100
AcDbEntity
  8
ARGRID
  6
CONTINUOUS
100
AcDbPolyline
 90
        3
 70
     1
 43
0.0
 10
7567.201984546217
 20
19568.70729354201
 10
7619.716002047772
 20
19538.38831140126
 10
7619.716002047772
 20
19599.02627568277
  0
MTEXT
  5
3AF
330
1F
100
AcDbEntity
  8
ARGRID
100
AcDbMText
 10
7602.910956935445
 20
19314.47439296894
 30
0.0
 40
15.12
 41
40.125
 71
     5
 72
     5
  1
C
210
0.0
220
0.0
230
-1.0
 11
1.836909530733566E-16
 21
-1.0
 31
0.0
  0
LWPOLYLINE
  5
3B0
330
1F
100
AcDbEntity
  8
ARGRID
  6
CONTINUOUS
100
AcDbPolyline
 90
        3
 70
     1
 43
0.0
 10
7567.201984546217
 20
19316.20729354201
 10
7619.716002047772
 20
19285.88831140126
 10
7619.716002047772
 20
19346.52627568277
  0
MTEXT
  5
3B1
330
1F
100
AcDbEntity
  8
ARGRID
100
AcDbMText
 10
7550.410956935445
 20
19180.56197238001
 30
0.0
 40
15.12
 41
40.125
 71
     5
 72
     5
  1
C2
 11
-3.061515884555943E-16
 21
-1.0
 31
0.0
  0
MTEXT
  5
3B2
330
1F
100
AcDbEntity
  8
ARGRID
100
AcDbMText
 10
7550.410956935445
 20
19245.32815839659
 30
0.0
 40
15.12
 41
40.125
 71
     5
 72
     5
  1
C1
 11
-1.388588268616431E-13
 21
-1.0
 31
0.0
  0
MTEXT
  5
3B3
330
1F
100
AcDbEntity
  8
ARGRID
100
AcDbMText
 10
7602.910956935445
 20
19819.47439296894
 30
0.0
 40
15.12
 41
40.125
 71
     5
 72
     5
  1
A
210
0.0
220
0.0
230
-1.0
 11
-6.123031769111886E-17
 21
1.0
 31
0.0
  0
LWPOLYLINE
  5
3B4
330
1F
100
AcDbEntity
  8
ARGRID
  6
CONTINUOUS
100
AcDbPolyline
 90
        3
 70
     1
 43
0.0
 10
7567.201984546217
 20
19821.20729354201
 10
7619.716002047772
 20
19790.88831140126
 10
7619.716002047772
 20
19851.52627568277
  0
MTEXT
  5
3B5
330
1F
100
AcDbEntity
  8
ARGRID
100
AcDbMText
 10
7602.910956935445
 20
19566.97439296893
 30
0.0
 40
15.12
 41
40.125
 71
     5
 72
     5
  1
B
210
0.0
220
0.0
230
-1.0
 11
1.836909530733566E-16
 21
-1.0
 31
0.0
  0
ENDSEC
  0
SECTION
  2
OBJECTS
  0
DICTIONARY
  5
C
330
0
100
AcDbDictionary
  3
ACAD_COLOR
350
3BB
  3
ACAD_GROUP
350
D
  3
ACAD_LAYOUT
350
1A
  3
ACAD_MATERIAL
350
3BA
  3
ACAD_MLEADERSTYLE
350
41F
  3
ACAD_MLINESTYLE
350
17
  3
ACAD_PLOTSETTINGS
350
19
  3
ACAD_SCALELIST
350
3FD
  3
ACAD_VISUALSTYLE
350
3EC
  3
ACDBHEADERROUNDTRIPXREC
350
45D
  3
ACDBVARIABLEDICTIONARY
350
66
  3
DWGPROPS
350
483
  0
DICTIONARY
  5
484
330
8
100
AcDbDictionary
280
     1
  3
ACAD_XREC_ROUNDTRIP
360
485
  0
DICTIONARY
  5
81
330
2
100
AcDbDictionary
280
     1
  3
ACAD_LAYERFILTERS
360
3D1
  3
ACAD_LAYERSTATES
360
82
  3
ACLYDICTIONARY
360
3D0
  0
DICTIONARY
  5
429
330
10
100
AcDbDictionary
280
     1
  3
ADSK_XREC_LAYER_RECONCILED
360
42A
  0
DICTIONARY
  5
42B
330
7A
100
AcDbDictionary
280
     1
  3
ADSK_XREC_LAYER_RECONCILED
360
42C
  0
DICTIONARY
  5
42D
330
7B
100
AcDbDictionary
280
     1
  3
ADSK_XREC_LAYER_RECONCILED
360
42E
  0
DICTIONARY
  5
42F
330
7C
100
AcDbDictionary
280
     1
  3
ADSK_XREC_LAYER_RECONCILED
360
430
  0
DICTIONARY
  5
431
330
7D
100
AcDbDictionary
280
     1
  3
ADSK_XREC_LAYER_RECONCILED
360
432
  0
DICTIONARY
  5
433
330
7E
100
AcDbDictionary
280
     1
  3
ADSK_XREC_LAYER_RECONCILED
360
434
  0
DICTIONARY
  5
435
330
7F
100
AcDbDictionary
280
     1
  3
ADSK_XREC_LAYER_RECONCILED
360
436
  0
DICTIONARY
  5
3BB
102
{ACAD_REACTORS
330
C
102
}
330
C
100
AcDbDictionary
  0
DICTIONARY
  5
D
102
{ACAD_REACTORS
330
C
102
}
330
C
100
AcDbDictionary
  0
DICTIONARY
  5
1A
102
{ACAD_REACTORS
330
C
102
}
330
C
100
AcDbDictionary
  0
DICTIONARY
  5
3BA
102
{ACAD_REACTORS
330
C
102
}
330
C
100
AcDbDictionary
  3
BYBLOCK
350
3DC
  3
BYLAYER
350
3D4
  3
GLOBAL
350
3E4
  0
DICTIONARY
  5
41F
102
{ACAD_REACTORS
330
C
102
}
330
C
100
AcDbDictionary
  3
STANDARD
350
420
  0
DICTIONARY
  5
17
102
{ACAD_REACTORS
330
C
102
}
330
C
100
AcDbDictionary
  3
STANDARD
350
18
  0
DICTIONARY
  5
19
102
{ACAD_REACTORS
330
C
102
}
330
C
100
AcDbDictionary
  0
DICTIONARY
  5
3FD
102
{ACAD_REACTORS
330
C
102
}
330
C
100
AcDbDictionary
  3
A0
350
3FE
  3
A1
350
3FF
  3
A2
350
400
  3
A3
350
401
  3
A4
350
402
  3
A5
350
403
  3
A6
350
404
  3
A7
350
405
  3
A8
350
406
  3
A9
350
407
  3
B0
350
408
  3
B1
350
409
  3
B2
350
40A
  3
B3
350
40B
  3
B4
350
40C
  3
B5
350
40D
  3
B6
350
40E
  3
B7
350
40F
  3
B8
350
410
  3
B9
350
411
  3
C0
350
412
  3
C1
350
413
  3
C2
350
414
  3
C3
350
415
  3
C4
350
416
  3
C5
350
417
  3
C6
350
418
  3
C7
350
419
  3
C8
350
41A
  3
C9
350
41B
  3
D0
350
41C
  3
D1
350
41D
  3
D2
350
41E
  0
DICTIONARY
  5
3EC
102
{ACAD_REACTORS
330
C
102
}
330
C
100
AcDbDictionary
  3
2DWIREFRAME
350
3F2
  3
3DWIREFRAME
350
3F3
  3
3D_HIDDEN
350
3F4
  3
BASIC
350
3F1
  3
BRIGHTEN
350
3F8
  3
COLORCHANGE
350
3FC
  3
CONCEPTUAL
350
3F5
  3
DIM
350
3F7
  3
EDGECOLOROFF
350
457
  3
FACEPATTERN
350
3FB
  3
FLAT
350
3ED
  3
FLATWITHEDGES
350
3EE
  3
GOURAUD
350
3EF
  3
GOURAUDWITHEDGES
350
3F0
  3
HIDDEN
350
454
  3
JITTEROFF
350
455
  3
LINEPATTERN
350
3FA
  3
OVERHANGOFF
350
456
  3
REALISTIC
350
3F6
  3
SHADED
350
45C
  3
SHADED_WITH_EDGES
350
45B
  3
SHADES_OF_GRAY
350
458
  3
SKETCHY
350
459
  3
THICKEN
350
3F9
  3
WIREFRAME
350
453
  3
X-RAY
350
45A
  0
DICTIONARY
  5
45D
102
{ACAD_REACTORS
330
C
102
}
330
C
100
AcDbDictionary
  3
CEPSNID
350
467
  3
CEPSNTYPE
350
466
  3
COLORDICT
350
481
  3
DIMSTYLEDATA
350
47D
  3
FINGERPRINTGUID
350
468
  3
HYPERLINKBASE
350
460
  3
INSUNITS
350
465
  3
LAYOUTDICT
350
462
  3
LWETCUNION
350
464
  3
MATERIALDICT
350
482
  3
PLOTSETDICT
350
463
  3
PSVPSCALE
350
46A
  3
PUCSBASE
350
46D
  3
PUCSORGBACK
350
473
  3
PUCSORGBOTTOM
350
46F
  3
PUCSORGFRONT
350
472
  3
PUCSORGLEFT
350
470
  3
PUCSORGRIGHT
350
471
  3
PUCSORGTOP
350
46E
  3
PUCSORTHOREF
350
46B
  3
PUCSORTHOVIEW
350
46C
  3
STYLESHEET
350
461
  3
TSTACKALIGN
350
45E
  3
TSTACKSIZE
350
45F
  3
UCSBASE
350
476
  3
UCSORGBACK
350
47C
  3
UCSORGBOTTOM
350
478
  3
UCSORGFRONT
350
47B
  3
UCSORGLEFT
350
479
  3
UCSORGRIGHT
350
47A
  3
UCSORGTOP
350
477
  3
UCSORTHOREF
350
474
  3
UCSORTHOVIEW
350
475
  3
VERSIONGUID
350
469
  0
DICTIONARY
  5
66
102
{ACAD_REACTORS
330
C
102
}
330
C
100
AcDbDictionary
  3
CANNOSCALE
350
486
  3
CMLEADERSTYLE
350
44F
  3
CTABLESTYLE
350
3C4
  3
DIMASSOC
350
67
  3
HIDETEXT
350
6B
  3
INDEXCTL
350
452
  3
MSLTSCALE
350
47E
  3
SORTENTS
350
451
  0
XRECORD
  5
483
102
{ACAD_REACTORS
330
C
102
}
330
C
100
AcDbXrecord
  1
DWGPROPS COOKIE
  2

  3

  4

  6

  7

  8
skucharski
  9

300
=
301
=
302
=
303
=
304
=
305
=
306
=
307
=
308
=
309
=
 40
0.0
 41
2453696.795622616
 42
2458157.197877106
  1

 90
        0
  0
XRECORD
  5
485
102
{ACAD_REACTORS
330
484
102
}
330
484
100
AcDbXrecord
102
VTR_0.000_0.000_1.000_1.000_VISUALSTYLE
340
3F2
102
VTR_0.000_0.000_1.000_1.000_GRIDDISPLAY
 70
     3
102
VTR_0.000_0.000_1.000_1.000_GRIDMAJOR
 70
     5
102
VTR_0.000_0.000_1.000_1.000_DEFAULTLIGHTING
280
     1
102
VTR_0.000_0.000_1.000_1.000_DEFAULTLIGHTINGTYPE
 70
     1
102
VTR_0.000_0.000_1.000_1.000_BRIGHTNESS
141
0.0
102
VTR_0.000_0.000_1.000_1.000_CONTRAST
142
0.0
  0
DICTIONARY
  5
3D1
102
{ACAD_REACTORS
330
81
102
}
330
81
100
AcDbDictionary
  0
DICTIONARY
  5
82
102
{ACAD_REACTORS
330
81
102
}
330
81
100
AcDbDictionary
  0
DICTIONARY
  5
3D0
102
{ACAD_REACTORS
330
81
102
}
330
81
100
AcDbDictionary
1001
ACAD
1000
<All
  0
ACAD_PROXY_OBJECT
  5
42A
102
{ACAD_REACTORS
330
429
102
}
330
429
100
AcDbProxyObject
 90
      499
 91
      512
 93
       34
310
40C8804040
  0
ACAD_PROXY_OBJECT
  5
42C
102
{ACAD_REACTORS
330
42B
102
}
330
42B
100
AcDbProxyObject
 90
      499
 91
      512
 93
       34
310
40C8804040
  0
ACAD_PROXY_OBJECT
  5
42E
102
{ACAD_REACTORS
330
42D
102
}
330
42D
100
AcDbProxyObject
 90
      499
 91
      512
 93
       34
310
40C8804040
  0
ACAD_PROXY_OBJECT
  5
430
102
{ACAD_REACTORS
330
42F
102
}
330
42F
100
AcDbProxyObject
 90
      499
 91
      512
 93
       34
310
40C8804040
  0
ACAD_PROXY_OBJECT
  5
432
102
{ACAD_REACTORS
330
431
102
}
330
431
100
AcDbProxyObject
 90
      499
 91
      512
 93
       34
310
40C8804040
  0
ACAD_PROXY_OBJECT
  5
434
102
{ACAD_REACTORS
330
433
102
}
330
433
100
AcDbProxyObject
 90
      499
 91
      512
 93
       34
310
40C8804040
  0
ACAD_PROXY_OBJECT
  5
436
102
{ACAD_REACTORS
330
435
102
}
330
435
100
AcDbProxyObject
 90
      499
 91
      512
 93
       34
310
40C8804040
  0
MATERIAL
  5
3DC
102
{ACAD_REACTORS
330
3BA
102
}
102
{ACAD_XDICTIONARY
360
487
102
}
330
3BA
100
AcDbMaterial
  1
BYBLOCK
 72
     0
 73
     2
 43
0.0208333333333333
 43
0.0
 43
0.0
 43
0.0
 43
0.0
 43
0.0208333333333333
 43
0.0
 43
0.0
 43
0.0
 43
0.0
 43
1.0
 43
0.0
 43
0.0
 43
0.0
 43
0.0
 43
1.0
 77
     0
 78
     2
 47
0.0208333333333333
 47
0.0
 47
0.0
 47
0.0
 47
0.0
 47
0.0208333333333333
 47
0.0
 47
0.0
 47
0.0
 47
0.0
 47
1.0
 47
0.0
 47
0.0
 47
0.0
 47
0.0
 47
1.0
171
     0
172
     2
 49
0.0208333333333333
 49
0.0
 49
0.0
 49
0.0
 49
0.0
 49
0.0208333333333333
 49
0.0
 49
0.0
 49
0.0
 49
0.0
 49
1.0
 49
0.0
 49
0.0
 49
0.0
 49
0.0
 49
1.0
175
     0
176
     2
142
0.0208333333333333
142
0.0
142
0.0
142
0.0
142
0.0
142
0.0208333333333333
142
0.0
142
0.0
142
0.0
142
0.0
142
1.0
142
0.0
142
0.0
142
0.0
142
0.0
142
1.0
179
     0
270
     2
144
0.0208333333333333
144
0.0
144
0.0
144
0.0
144
0.0
144
0.0208333333333333
144
0.0
144
0.0
144
0.0
144
0.0
144
1.0
144
0.0
144
0.0
144
0.0
144
0.0
144
1.0
274
     2
147
0.0208333333333333
147
0.0
147
0.0
147
0.0
147
0.0
147
0.0208333333333333
147
0.0
147
0.0
147
0.0
147
0.0
147
1.0
147
0.0
147
0.0
147
0.0
147
0.0
147
1.0
  0
MATERIAL
  5
3D4
102
{ACAD_REACTORS
330
3BA
102
}
102
{ACAD_XDICTIONARY
360
489
102
}
330
3BA
100
AcDbMaterial
  1
BYLAYER
 72
     0
 73
     2
 43
0.0208333333333333
 43
0.0
 43
0.0
 43
0.0
 43
0.0
 43
0.0208333333333333
 43
0.0
 43
0.0
 43
0.0
 43
0.0
 43
1.0
 43
0.0
 43
0.0
 43
0.0
 43
0.0
 43
1.0
 77
     0
 78
     2
 47
0.0208333333333333
 47
0.0
 47
0.0
 47
0.0
 47
0.0
 47
0.0208333333333333
 47
0.0
 47
0.0
 47
0.0
 47
0.0
 47
1.0
 47
0.0
 47
0.0
 47
0.0
 47
0.0
 47
1.0
171
     0
172
     2
 49
0.0208333333333333
 49
0.0
 49
0.0
 49
0.0
 49
0.0
 49
0.0208333333333333
 49
0.0
 49
0.0
 49
0.0
 49
0.0
 49
1.0
 49
0.0
 49
0.0
 49
0.0
 49
0.0
 49
1.0
175
     0
176
     2
142
0.0208333333333333
142
0.0
142
0.0
142
0.0
142
0.0
142
0.0208333333333333
142
0.0
142
0.0
142
0.0
142
0.0
142
1.0
142
0.0
142
0.0
142
0.0
142
0.0
142
1.0
179
     0
270
     2
144
0.0208333333333333
144
0.0
144
0.0
144
0.0
144
0.0
144
0.0208333333333333
144
0.0
144
0.0
144
0.0
144
0.0
144
1.0
144
0.0
144
0.0
144
0.0
144
0.0
144
1.0
274
     2
147
0.0208333333333333
147
0.0
147
0.0
147
0.0
147
0.0
147
0.0208333333333333
147
0.0
147
0.0
147
0.0
147
0.0
147
1.0
147
0.0
147
0.0
147
0.0
147
0.0
147
1.0
  0
MATERIAL
  5
3E4
102
{ACAD_REACTORS
330
3BA
102
}
102
{ACAD_XDICTIONARY
360
48B
102
}
330
3BA
100
AcDbMaterial
  1
GLOBAL
 72
     0
 73
     2
 43
0.0208333333333333
 43
0.0
 43
0.0
 43
0.0
 43
0.0
 43
0.0208333333333333
 43
0.0
 43
0.0
 43
0.0
 43
0.0
 43
1.0
 43
0.0
 43
0.0
 43
0.0
 43
0.0
 43
1.0
 77
     0
 78
     2
 47
0.0208333333333333
 47
0.0
 47
0.0
 47
0.0
 47
0.0
 47
0.0208333333333333
 47
0.0
 47
0.0
 47
0.0
 47
0.0
 47
1.0
 47
0.0
 47
0.0
 47
0.0
 47
0.0
 47
1.0
171
     0
172
     2
 49
0.0208333333333333
 49
0.0
 49
0.0
 49
0.0
 49
0.0
 49
0.0208333333333333
 49
0.0
 49
0.0
 49
0.0
 49
0.0
 49
1.0
 49
0.0
 49
0.0
 49
0.0
 49
0.0
 49
1.0
175
     0
176
     2
142
0.0208333333333333
142
0.0
142
0.0
142
0.0
142
0.0
142
0.0208333333333333
142
0.0
142
0.0
142
0.0
142
0.0
142
1.0
142
0.0
142
0.0
142
0.0
142
0.0
142
1.0
179
     0
270
     2
144
0.0208333333333333
144
0.0
144
0.0
144
0.0
144
0.0
144
0.0208333333333333
144
0.0
144
0.0
144
0.0
144
0.0
144
1.0
144
0.0
144
0.0
144
0.0
144
0.0
144
1.0
274
     2
147
0.0208333333333333
147
0.0
147
0.0
147
0.0
147
0.0
147
0.0208333333333333
147
0.0
147
0.0
147
0.0
147
0.0
147
1.0
147
0.0
147
0.0
147
0.0
147
0.0
147
1.0
  0
ACAD_PROXY_OBJECT
  5
420
102
{ACAD_REACTORS
330
41F
102
}
330
41F
100
AcDbProxyObject
 90
      499
 91
      508
 93
      610
310
40901902A4063FBFFFFFE056BD1B81E855B9FC0AD7A3703D0AD73F4214DD185B99185C9900AD7A3703D0AC73F90141901A02B5E8DC0F42B1CFC02B5E8DC0F42B1CFE5764000000000000300FC0
340
14
340
0
340
11
340
0
 94
        0
1001
ACAD_MLEADERVER
1070
     2
  0
MLINESTYLE
  5
18
102
{ACAD_REACTORS
330
17
102
}
330
17
100
AcDbMlineStyle
  2
STANDARD
 70
     0
  3

 62
   256
 51
90.0
 52
90.0
 71
     2
 49
0.5
 62
   256
  6
BYLAYER
 49
-0.5
 62
   256
  6
BYLAYER
  0
ACAD_PROXY_OBJECT
  5
3FE
102
{ACAD_REACTORS
330
3FD
102
}
330
3FD
100
AcDbProxyObject
 90
      499
 91
      507
 93
       41
310
903313A31580
  0
ACAD_PROXY_OBJECT
  5
3FF
102
{ACAD_REACTORS
330
3FD
102
}
330
3FD
100
AcDbProxyObject
 90
      499
 91
      507
 93
      105
310
903313A324000000000000004000
  0
ACAD_PROXY_OBJECT
  5
400
102
{ACAD_REACTORS
330
3FD
102
}
330
3FD
100
AcDbProxyObject
 90
      499
 91
      507
 93
      105
310
903313A344000000000000104000
  0
ACAD_PROXY_OBJECT
  5
401
102
{ACAD_REACTORS
330
3FD
102
}
330
3FD
100
AcDbProxyObject
 90
      499
 91
      507
 93
      105
310
903313A354000000000000144000
  0
ACAD_PROXY_OBJECT
  5
402
102
{ACAD_REACTORS
330
3FD
102
}
330
3FD
100
AcDbProxyObject
 90
      499
 91
      507
 93
      105
310
903313A384000000000000204000
  0
ACAD_PROXY_OBJECT
  5
403
102
{ACAD_REACTORS
330
3FD
102
}
330
3FD
100
AcDbProxyObject
 90
      499
 91
      507
 93
      113
310
904313A31304000000000000244000
  0
ACAD_PROXY_OBJECT
  5
404
102
{ACAD_REACTORS
330
3FD
102
}
330
3FD
100
AcDbProxyObject
 90
      499
 91
      507
 93
      113
310
904313A31364000000000000304000
  0
ACAD_PROXY_OBJECT
  5
405
102
{ACAD_REACTORS
330
3FD
102
}
330
3FD
100
AcDbProxyObject
 90
      499
 91
      507
 93
      113
310
904313A32304000000000000344000
  0
ACAD_PROXY_OBJECT
  5
406
102
{ACAD_REACTORS
330
3FD
102
}
330
3FD
100
AcDbProxyObject
 90
      499
 91
      507
 93
      113
310
904313A333040000000000003E4000
  0
ACAD_PROXY_OBJECT
  5
407
102
{ACAD_REACTORS
330
3FD
102
}
330
3FD
100
AcDbProxyObject
 90
      499
 91
      507
 93
      113
310
904313A34304000000000000444000
  0
ACAD_PROXY_OBJECT
  5
408
102
{ACAD_REACTORS
330
3FD
102
}
330
3FD
100
AcDbProxyObject
 90
      499
 91
      507
 93
      113
310
904313A35304000000000000494000
  0
ACAD_PROXY_OBJECT
  5
409
102
{ACAD_REACTORS
330
3FD
102
}
330
3FD
100
AcDbProxyObject
 90
      499
 91
      507
 93
      121
310
905313A3130304000000000000594000
  0
ACAD_PROXY_OBJECT
  5
40A
102
{ACAD_REACTORS
330
3FD
102
}
330
3FD
100
AcDbProxyObject
 90
      499
 91
      507
 93
      105
310
903323A310000000000000010100
  0
ACAD_PROXY_OBJECT
  5
40B
102
{ACAD_REACTORS
330
3FD
102
}
330
3FD
100
AcDbProxyObject
 90
      499
 91
      507
 93
      105
310
903343A310000000000000410100
  0
ACAD_PROXY_OBJECT
  5
40C
102
{ACAD_REACTORS
330
3FD
102
}
330
3FD
100
AcDbProxyObject
 90
      499
 91
      507
 93
      105
310
903383A310000000000000810100
  0
ACAD_PROXY_OBJECT
  5
40D
102
{ACAD_REACTORS
330
3FD
102
}
330
3FD
100
AcDbProxyObject
 90
      499
 91
      507
 93
      113
310
90431303A310000000000000910100
  0
ACAD_PROXY_OBJECT
  5
40E
102
{ACAD_REACTORS
330
3FD
102
}
330
3FD
100
AcDbProxyObject
 90
      499
 91
      507
 93
      121
310
9053130303A310000000000001650100
  0
ACAD_PROXY_OBJECT
  5
40F
102
{ACAD_REACTORS
330
3FD
102
}
330
3FD
100
AcDbProxyObject
 90
      499
 91
      507
 93
      257
310
90E312F31323822203D2031272D3022000000000000200FC000000000000284000
  0
ACAD_PROXY_OBJECT
  5
410
102
{ACAD_REACTORS
330
3FD
102
}
330
3FD
100
AcDbProxyObject
 90
      499
 91
      507
 93
      249
310
90D312F363422203D2031272D3022000000000000240FC000000000000284000
  0
ACAD_PROXY_OBJECT
  5
411
102
{ACAD_REACTORS
330
3FD
102
}
330
3FD
100
AcDbProxyObject
 90
      499
 91
      507
 93
      249
310
90D312F333222203D2031272D3022000000000000280FC000000000000284000
  0
ACAD_PROXY_OBJECT
  5
412
102
{ACAD_REACTORS
330
3FD
102
}
330
3FD
100
AcDbProxyObject
 90
      499
 91
      507
 93
      249
310
90D312F313622203D2031272D30220000000000002C0FC000000000000284000
  0
ACAD_PROXY_OBJECT
  5
413
102
{ACAD_REACTORS
330
3FD
102
}
330
3FD
100
AcDbProxyObject
 90
      499
 91
      507
 93
      249
310
90D332F333222203D2031272D30220000000000002E0FC000000000000284000
  0
ACAD_PROXY_OBJECT
  5
414
102
{ACAD_REACTORS
330
3FD
102
}
330
3FD
100
AcDbProxyObject
 90
      499
 91
      507
 93
      241
310
90C312F3822203D2031272D3022000000000000300FC000000000000284000
  0
ACAD_PROXY_OBJECT
  5
415
102
{ACAD_REACTORS
330
3FD
102
}
330
3FD
100
AcDbProxyObject
 90
      499
 91
      507
 93
      249
310
90D332F313622203D2031272D3022000000000000320FC000000000000284000
  0
ACAD_PROXY_OBJECT
  5
416
102
{ACAD_REACTORS
330
3FD
102
}
330
3FD
100
AcDbProxyObject
 90
      499
 91
      507
 93
      241
310
90C312F3422203D2031272D3022000000000000340FC000000000000284000
  0
ACAD_PROXY_OBJECT
  5
417
102
{ACAD_REACTORS
330
3FD
102
}
330
3FD
100
AcDbProxyObject
 90
      499
 91
      507
 93
      241
310
90C332F3822203D2031272D3022000000000000360FC000000000000284000
  0
ACAD_PROXY_OBJECT
  5
418
102
{ACAD_REACTORS
330
3FD
102
}
330
3FD
100
AcDbProxyObject
 90
      499
 91
      507
 93
      241
310
90C312F3222203D2031272D3022000000000000380FC000000000000284000
  0
ACAD_PROXY_OBJECT
  5
419
102
{ACAD_REACTORS
330
3FD
102
}
330
3FD
100
AcDbProxyObject
 90
      499
 91
      507
 93
      241
310
90C332F3422203D2031272D30220000000000003A0FC000000000000284000
  0
ACAD_PROXY_OBJECT
  5
41A
102
{ACAD_REACTORS
330
3FD
102
}
330
3FD
100
AcDbProxyObject
 90
      499
 91
      507
 93
      161
310
90A3122203D2031272D30224000000000000284000
  0
ACAD_PROXY_OBJECT
  5
41B
102
{ACAD_REACTORS
330
3FD
102
}
330
3FD
100
AcDbProxyObject
 90
      499
 91
      507
 93
      257
310
90E312D312F3222203D2031272D30220000000000003E0FC000000000000284000
  0
ACAD_PROXY_OBJECT
  5
41C
102
{ACAD_REACTORS
330
3FD
102
}
330
3FD
100
AcDbProxyObject
 90
      499
 91
      507
 93
      225
310
90A3322203D2031272D302200000000000002100000000000000284000
  0
ACAD_PROXY_OBJECT
  5
41D
102
{ACAD_REACTORS
330
3FD
102
}
330
3FD
100
AcDbProxyObject
 90
      499
 91
      507
 93
      225
310
90A3622203D2031272D302200000000000006100000000000000284000
  0
ACAD_PROXY_OBJECT
  5
41E
102
{ACAD_REACTORS
330
3FD
102
}
330
3FD
100
AcDbProxyObject
 90
      499
 91
      507
 93
      249
310
90D31272D3022203D2031272D30220000000000000A100000000000000284000
  0
ACAD_PROXY_OBJECT
  5
3F2
102
{ACAD_REACTORS
330
3EC
102
}
330
3EC
100
AcDbProxyObject
 90
      499
 91
      506
 93
      436
310
42CC9915DA5C99599C985B595049028333333333333E3BF0000000000000FB0107901411070040501600405405064090741402480A0340
1001
ACAD
1000
AcDbSavedByObjectVersion
1070
     0
  0
ACAD_PROXY_OBJECT
  5
3F3
102
{ACAD_REACTORS
330
3EC
102
}
330
3EC
100
AcDbProxyObject
 90
      499
 91
      506
 93
      436
310
42CCD915DA5C99599C985B595059028333333333333E3BF0000000000000FB0107901411070040501600405405064090741402480A0340
1001
ACAD
1000
AcDbSavedByObjectVersion
1070
     0
  0
ACAD_PROXY_OBJECT
  5
3F4
102
{ACAD_REACTORS
330
3EC
102
}
330
3EC
100
AcDbProxyObject
 90
      499
 91
      506
 93
      500
310
424CD108121A5919195B90640502408333333333333E3BF0000000000000FB01079024090700405020000000000001110200405405064090740C02480A0340
1001
ACAD
1000
AcDbSavedByObjectVersion
1070
     0
  0
ACAD_PROXY_OBJECT
  5
3F1
102
{ACAD_REACTORS
330
3EC
102
}
330
3EC
100
AcDbProxyObject
 90
      499
 91
      506
 93
      388
310
4150985CDA58D07406404333333333333E3BF0000000000000FB0107A41107004050150841D405064090741402480A0350
1001
ACAD
1000
AcDbSavedByObjectVersion
1070
     0
  0
ACAD_PROXY_OBJECT
  5
3F8
102
{ACAD_REACTORS
330
3EC
102
}
330
3EC
100
AcDbProxyObject
 90
      499
 91
      506
 93
      428
310
42109C9A59DA1D195B90C409028333333333333E3BF0000000000000FB010790141107004050150841D405064090741402480A029950
1001
ACAD
1000
AcDbSavedByObjectVersion
1070
     0
  0
ACAD_PROXY_OBJECT
  5
3FC
102
{ACAD_REACTORS
330
3EC
102
}
330
3EC
100
AcDbProxyObject
 90
      499
 91
      506
 93
      452
310
42D0DBDB1BDC90DA185B99D95104090240C333333333333E3BF0000000000000FB0108901411070040501508421405064090741402480A0350
1001
ACAD
1000
AcDbSavedByObjectVersion
1070
     0
  0
ACAD_PROXY_OBJECT
  5
3F5
102
{ACAD_REACTORS
330
3EC
102
}
330
3EC
100
AcDbProxyObject
 90
      499
 91
      506
 93
      500
310
4290DBDB98D95C1D1D585B10940D028333333333333E3BF0000000000000FB0107902409070040501000000000000111010841D405064090740C02480A0340
1001
ACAD
1000
AcDbSavedByObjectVersion
1070
     0
  0
ACAD_PROXY_OBJECT
  5
3F7
102
{ACAD_REACTORS
330
3EC
102
}
330
3EC
100
AcDbProxyObject
 90
      499
 91
      506
 93
      412
310
40D11A5B50B409028333333333333E3BF0000000000000FB010790141107004050150841D405064090741402480A02677FFFFFD0
1001
ACAD
1000
AcDbSavedByObjectVersion
1070
     0
  0
ACAD_PROXY_OBJECT
  5
457
102
{ACAD_REACTORS
330
3EC
102
}
330
3EC
100
AcDbProxyObject
 90
      499
 91
      506
 93
      452
310
43115919D950DBDB1BDC93D999916409028333333333333E33F0000000000000F9010790141107004050150841D405064090741402480A0350
1001
ACAD
1000
AcDbSavedByObjectVersion
1070
     0
  0
ACAD_PROXY_OBJECT
  5
3FB
102
{ACAD_REACTORS
330
3EC
102
}
330
3EC
100
AcDbProxyObject
 90
      499
 91
      506
 93
      444
310
42D19858D95C185D1D195C9B90F409028333333333333E3BF0000000000000FB010790141107004050150841D405064090741402480A0350
1001
ACAD
1000
AcDbSavedByObjectVersion
1070
     0
  0
ACAD_PROXY_OBJECT
  5
3ED
102
{ACAD_REACTORS
330
3EC
102
}
330
3EC
100
AcDbProxyObject
 90
      499
 91
      506
 93
      388
310
41119B185D240901404333333333333E3BF0000000000000F9010740A41107004050150841D405064090741402480A1B50
1001
ACAD
1000
AcDbSavedByObjectVersion
1070
     0
  0
ACAD_PROXY_OBJECT
  5
3EE
102
{ACAD_REACTORS
330
3EC
102
}
330
3EC
100
AcDbProxyObject
 90
      499
 91
      506
 93
      476
310
43519B185D15DA5D1A115919D95CD0140901404333333333333E3BF0000000000000F9010740901411070040501600405405064090741402480A1B50
1001
ACAD
1000
AcDbSavedByObjectVersion
1070
     0
  0
ACAD_PROXY_OBJECT
  5
3EF
102
{ACAD_REACTORS
330
3EC
102
}
330
3EC
100
AcDbProxyObject
 90
      499
 91
      506
 93
      412
310
41D1DBDD5C985D5910240902404333333333333E3BF0000000000000F9010740A411070040501641D405064090741402480A1B50
1001
ACAD
1000
AcDbSavedByObjectVersion
1070
     0
  0
ACAD_PROXY_OBJECT
  5
3F0
102
{ACAD_REACTORS
330
3EC
102
}
330
3EC
100
AcDbProxyObject
 90
      499
 91
      506
 93
      500
310
4411DBDD5C985D5915DA5D1A115919D95CD0340902404333333333333E3BF0000000000000F9010740901411070040501600405405064090741402480A1B50
1001
ACAD
1000
AcDbSavedByObjectVersion
1070
     0
  0
ACAD_PROXY_OBJECT
  5
454
102
{ACAD_REACTORS
330
3EC
102
}
330
3EC
100
AcDbProxyObject
 90
      499
 91
      506
 93
      476
310
41921A5919195B90640502408333333333333E33F0000000000000F901079024090700405020000000000001110200405405064090740C02480A0340
1001
ACAD
1000
AcDbSavedByObjectVersion
1070
     0
  0
ACAD_PROXY_OBJECT
  5
455
102
{ACAD_REACTORS
330
3EC
102
}
330
3EC
100
AcDbProxyObject
 90
      499
 91
      506
 93
      428
310
42529A5D1D195C93D999914409028333333333333E33F0000000000000F9010790141107004050150A41D405064090741402480A0350
1001
ACAD
1000
AcDbSavedByObjectVersion
1070
     0
  0
ACAD_PROXY_OBJECT
  5
3FA
102
{ACAD_REACTORS
330
3EC
102
}
330
3EC
100
AcDbProxyObject
 90
      499
 91
      506
 93
      444
310
42D31A5B995C185D1D195C9B90E409028333333333333E3BF0000000000000FB010790141107004050750841D405064090741402483A0350
1001
ACAD
1000
AcDbSavedByObjectVersion
1070
     0
  0
ACAD_PROXY_OBJECT
  5
456
102
{ACAD_REACTORS
330
3EC
102
}
330
3EC
100
AcDbProxyObject
 90
      499
 91
      506
 93
      444
310
42D3DD995C9A185B99D3D999915409028333333333333E33F0000000000000F9010790141107004050150941D405064090741402480A0350
1001
ACAD
1000
AcDbSavedByObjectVersion
1070
     0
  0
ACAD_PROXY_OBJECT
  5
3F6
102
{ACAD_REACTORS
330
3EC
102
}
330
3EC
100
AcDbProxyObject
 90
      499
 91
      506
 93
      420
310
425499585B1A5CDD1A58D08409028333333333333E3BF0000000000000FB01079019070040501508421405064090741402480A1B40
1001
ACAD
1000
AcDbSavedByObjectVersion
1070
     0
  0
ACAD_PROXY_OBJECT
  5
45C
102
{ACAD_REACTORS
330
3EC
102
}
330
3EC
100
AcDbProxyObject
 90
      499
 91
      506
 93
      420
310
4194DA1859195911B40902404333333333333E33F0000000000000F9010740A41107004050150800405405064090840C02480A0B40
1001
ACAD
1000
AcDbSavedByObjectVersion
1070
     0
  0
ACAD_PROXY_OBJECT
  5
45B
102
{ACAD_REACTORS
330
3EC
102
}
330
3EC
100
AcDbProxyObject
 90
      499
 91
      506
 93
      516
310
4454DA18591959081DDA5D1A08195919D95CD1A40902404333333333333E33F0000000000000F901074090142907004050250800405405064090740C02480A0B40
1001
ACAD
1000
AcDbSavedByObjectVersion
1070
     0
  0
ACAD_PROXY_OBJECT
  5
458
102
{ACAD_REACTORS
330
3EC
102
}
330
3EC
100
AcDbProxyObject
 90
      499
 91
      506
 93
      532
310
4394DA1859195CC81BD98811DC985E5174090240C333333333333E33F0000000000000F901079024090741D01000000000000111010841D405064090740C02480A0340
1001
ACAD
1000
AcDbSavedByObjectVersion
1070
     0
  0
ACAD_PROXY_OBJECT
  5
459
102
{ACAD_REACTORS
330
3EC
102
}
330
3EC
100
AcDbProxyObject
 90
      499
 91
      506
 93
      476
310
41D4DAD95D18DA1E51840502408333333333333E33F0000000000000F901079024090741D01000000000000111010B41D405064090741802480A0340
1001
ACAD
1000
AcDbSavedByObjectVersion
1070
     0
  0
ACAD_PROXY_OBJECT
  5
3F9
102
{ACAD_REACTORS
330
3EC
102
}
330
3EC
100
AcDbProxyObject
 90
      499
 91
      506
 93
      412
310
41D51A1A58DAD95B90D409028333333333333E3BF0000000000000FB010790141107004050150C41D405064090741402480A0350
1001
ACAD
1000
AcDbSavedByObjectVersion
1070
     0
  0
ACAD_PROXY_OBJECT
  5
453
102
{ACAD_REACTORS
330
3EC
102
}
330
3EC
100
AcDbProxyObject
 90
      499
 91
      506
 93
      420
310
4255DA5C99599C985B595059028333333333333E33F0000000000000F90107901411070040501600405405064090740C02480A0340
1001
ACAD
1000
AcDbSavedByObjectVersion
1070
     0
  0
ACAD_PROXY_OBJECT
  5
45A
102
{ACAD_REACTORS
330
3EC
102
}
330
3EC
100
AcDbProxyObject
 90
      499
 91
      506
 93
      404
310
41560B54985E51940902404000000000000E03F0000000000000F9010740501907004050150841D405064090740C02480A1B40
1001
ACAD
1000
AcDbSavedByObjectVersion
1070
     0
  0
XRECORD
  5
467
102
{ACAD_REACTORS
330
45D
102
}
330
45D
100
AcDbXrecord
340
0
  0
XRECORD
  5
466
102
{ACAD_REACTORS
330
45D
102
}
330
45D
100
AcDbXrecord
 90
        0
  0
XRECORD
  5
481
102
{ACAD_REACTORS
330
45D
102
}
330
45D
100
AcDbXrecord
340
3BB
  0
XRECORD
  5
47D
102
{ACAD_REACTORS
330
45D
102
}
330
45D
100
AcDbXrecord
1000
DSTYLE
1002
{
1070
   340
340
11
1002
}
  0
XRECORD
  5
468
102
{ACAD_REACTORS
330
45D
102
}
330
45D
100
AcDbXrecord
  1
{FDEAD576-A652-11D2-9A35-0060089B3A3F}
  0
XRECORD
  5
460
102
{ACAD_REACTORS
330
45D
102
}
330
45D
100
AcDbXrecord
  1

  0
XRECORD
  5
465
102
{ACAD_REACTORS
330
45D
102
}
330
45D
100
AcDbXrecord
 90
        1
  0
XRECORD
  5
462
102
{ACAD_REACTORS
330
45D
102
}
330
45D
100
AcDbXrecord
340
1A
  0
XRECORD
  5
464
102
{ACAD_REACTORS
330
45D
102
}
330
45D
100
AcDbXrecord
 90
    10781
  0
XRECORD
  5
482
102
{ACAD_REACTORS
330
45D
102
}
330
45D
100
AcDbXrecord
340
3BA
  0
XRECORD
  5
463
102
{ACAD_REACTORS
330
45D
102
}
330
45D
100
AcDbXrecord
340
19
  0
XRECORD
  5
46A
102
{ACAD_REACTORS
330
45D
102
}
330
45D
100
AcDbXrecord
 40
0.0
  0
XRECORD
  5
46D
102
{ACAD_REACTORS
330
45D
102
}
330
45D
100
AcDbXrecord
340
0
  0
XRECORD
  5
473
102
{ACAD_REACTORS
330
45D
102
}
330
45D
100
AcDbXrecord
 10
0.0
 20
0.0
 30
0.0
  0
XRECORD
  5
46F
102
{ACAD_REACTORS
330
45D
102
}
330
45D
100
AcDbXrecord
 10
0.0
 20
0.0
 30
0.0
  0
XRECORD
  5
472
102
{ACAD_REACTORS
330
45D
102
}
330
45D
100
AcDbXrecord
 10
0.0
 20
0.0
 30
0.0
  0
XRECORD
  5
470
102
{ACAD_REACTORS
330
45D
102
}
330
45D
100
AcDbXrecord
 10
0.0
 20
0.0
 30
0.0
  0
XRECORD
  5
471
102
{ACAD_REACTORS
330
45D
102
}
330
45D
100
AcDbXrecord
 10
0.0
 20
0.0
 30
0.0
  0
XRECORD
  5
46E
102
{ACAD_REACTORS
330
45D
102
}
330
45D
100
AcDbXrecord
 10
0.0
 20
0.0
 30
0.0
  0
XRECORD
  5
46B
102
{ACAD_REACTORS
330
45D
102
}
330
45D
100
AcDbXrecord
340
0
  0
XRECORD
  5
46C
102
{ACAD_REACTORS
330
45D
102
}
330
45D
100
AcDbXrecord
 70
     0
  0
XRECORD
  5
461
102
{ACAD_REACTORS
330
45D
102
}
330
45D
100
AcDbXrecord
  1
dwf.ctb
  0
XRECORD
  5
45E
102
{ACAD_REACTORS
330
45D
102
}
330
45D
100
AcDbXrecord
 90
        1
  0
XRECORD
  5
45F
102
{ACAD_REACTORS
330
45D
102
}
330
45D
100
AcDbXrecord
 90
       70
  0
XRECORD
  5
476
102
{ACAD_REACTORS
330
45D
102
}
330
45D
100
AcDbXrecord
340
0
  0
XRECORD
  5
47C
102
{ACAD_REACTORS
330
45D
102
}
330
45D
100
AcDbXrecord
 10
0.0
 20
0.0
 30
0.0
  0
XRECORD
  5
478
102
{ACAD_REACTORS
330
45D
102
}
330
45D
100
AcDbXrecord
 10
0.0
 20
0.0
 30
0.0
  0
XRECORD
  5
47B
102
{ACAD_REACTORS
330
45D
102
}
330
45D
100
AcDbXrecord
 10
0.0
 20
0.0
 30
0.0
  0
XRECORD
  5
479
102
{ACAD_REACTORS
330
45D
102
}
330
45D
100
AcDbXrecord
 10
0.0
 20
0.0
 30
0.0
  0
XRECORD
  5
47A
102
{ACAD_REACTORS
330
45D
102
}
330
45D
100
AcDbXrecord
 10
0.0
 20
0.0
 30
0.0
  0
XRECORD
  5
477
102
{ACAD_REACTORS
330
45D
102
}
330
45D
100
AcDbXrecord
 10
0.0
 20
0.0
 30
0.0
  0
XRECORD
  5
474
102
{ACAD_REACTORS
330
45D
102
}
330
45D
100
AcDbXrecord
340
0
  0
XRECORD
  5
475
102
{ACAD_REACTORS
330
45D
102
}
330
45D
100
AcDbXrecord
 70
     0
  0
XRECORD
  5
469
102
{ACAD_REACTORS
330
45D
102
}
330
45D
100
AcDbXrecord
  1
{119D7757-026A-471A-811A-BD194093D624}
  0
DICTIONARYVAR
  5
486
102
{ACAD_REACTORS
330
66
102
}
330
66
100
DictionaryVariables
280
     0
  1
1:1
  0
DICTIONARYVAR
  5
44F
102
{ACAD_REACTORS
330
66
102
}
330
66
100
DictionaryVariables
280
     0
  1
Standard
  0
DICTIONARYVAR
  5
3C4
102
{ACAD_REACTORS
330
66
102
}
330
66
100
DictionaryVariables
280
     0
  1
Standard
  0
DICTIONARYVAR
  5
67
102
{ACAD_REACTORS
330
66
102
}
330
66
100
DictionaryVariables
280
     0
  1
2
  0
DICTIONARYVAR
  5
6B
102
{ACAD_REACTORS
330
66
102
}
330
66
100
DictionaryVariables
280
     0
  1
1
  0
DICTIONARYVAR
  5
452
102
{ACAD_REACTORS
330
66
102
}
330
66
100
DictionaryVariables
280
     0
  1
0
  0
DICTIONARYVAR
  5
47E
102
{ACAD_REACTORS
330
66
102
}
330
66
100
DictionaryVariables
280
     0
  1
0
  0
DICTIONARYVAR
  5
451
102
{ACAD_REACTORS
330
66
102
}
330
66
100
DictionaryVariables
280
     0
  1
127
  0
DICTIONARY
  5
487
330
3DC
100
AcDbDictionary
280
     1
  3
ACAD_XREC_ROUNDTRIP
360
488
  0
DICTIONARY
  5
489
330
3D4
100
AcDbDictionary
280
     1
  3
ACAD_XREC_ROUNDTRIP
360
48A
  0
DICTIONARY
  5
48B
330
3E4
100
AcDbDictionary
280
     1
  3
ACAD_XREC_ROUNDTRIP
360
48C
  0
XRECORD
  5
488
102
{ACAD_REACTORS
330
487
102
}
330
487
100
AcDbXrecord
102
MATERIAL
148
0.0
149
0.0
149
0.0
 93
        0
 94
      127
282
     0
 72
     0
 77
     0
171
     0
175
     0
179
     0
273
     0
  0
XRECORD
  5
48A
102
{ACAD_REACTORS
330
489
102
}
330
489
100
AcDbXrecord
102
MATERIAL
148
0.0
149
0.0
149
0.0
 93
        0
 94
      127
282
     0
 72
     0
 77
     0
171
     0
175
     0
179
     0
273
     0
  0
XRECORD
  5
48C
102
{ACAD_REACTORS
330
48B
102
}
330
48B
100
AcDbXrecord
102
MATERIAL
148
0.0
149
0.0
149
0.0
 93
        0
 94
      127
282
     0
 72
     0
 77
     0
171
     0
175
     0
179
     0
273
     0
  0
ENDSEC
  0
EOF
